#N canvas 415 22 450 300 10;
#N canvas 0 22 450 300 map_control_1 0;
#X obj 71 88 ctlin 1;
#X obj 125 88 ctlin 2;
#X obj 178 89 ctlin 3;
#X obj 231 90 ctlin 4;
#X obj 285 90 ctlin 5;
#X obj 340 92 ctlin 6;
#X obj 395 92 ctlin 7;
#X obj 71 143 pack f f f f f f f;
#X obj 125 109 t b f;
#X obj 178 111 t b f;
#X obj 231 112 t b f;
#X obj 285 112 t b f;
#X obj 340 114 t b f;
#X obj 395 113 t b f;
#X obj 71 176 outlet;
#X connect 0 0 7 0;
#X connect 1 0 8 0;
#X connect 2 0 9 0;
#X connect 3 0 10 0;
#X connect 4 0 11 0;
#X connect 5 0 12 0;
#X connect 6 0 13 0;
#X connect 7 0 14 0;
#X connect 8 0 7 0;
#X connect 8 1 7 1;
#X connect 9 0 7 0;
#X connect 9 1 7 2;
#X connect 10 0 7 0;
#X connect 10 1 7 3;
#X connect 11 0 7 0;
#X connect 11 1 7 4;
#X connect 12 0 7 0;
#X connect 12 1 7 5;
#X connect 13 0 7 0;
#X connect 13 1 7 6;
#X restore 20 104 pd map_control_1;
#N canvas 415 22 450 300 map_control_2 0;
#X obj 65 142 pack f f f f f f f;
#X obj 119 108 t b f;
#X obj 172 110 t b f;
#X obj 225 111 t b f;
#X obj 279 111 t b f;
#X obj 334 113 t b f;
#X obj 389 112 t b f;
#X obj 65 87 ctlin 8;
#X obj 119 87 ctlin 9;
#X obj 172 88 ctlin 10;
#X obj 225 89 ctlin 11;
#X obj 279 89 ctlin 12;
#X obj 334 91 ctlin 13;
#X obj 389 91 ctlin 14;
#X obj 65 177 outlet;
#X connect 0 0 14 0;
#X connect 1 0 0 0;
#X connect 1 1 0 1;
#X connect 2 0 0 0;
#X connect 2 1 0 2;
#X connect 3 0 0 0;
#X connect 3 1 0 3;
#X connect 4 0 0 0;
#X connect 4 1 0 4;
#X connect 5 0 0 0;
#X connect 5 1 0 5;
#X connect 6 0 0 0;
#X connect 6 1 0 6;
#X connect 7 0 0 0;
#X connect 8 0 1 0;
#X connect 9 0 2 0;
#X connect 10 0 3 0;
#X connect 11 0 4 0;
#X connect 12 0 5 0;
#X connect 13 0 6 0;
#X restore 135 104 pd map_control_2;
#N canvas 0 22 450 300 map_control_3 0;
#X obj 63 139 pack f f f f f f f;
#X obj 117 105 t b f;
#X obj 170 107 t b f;
#X obj 223 108 t b f;
#X obj 277 108 t b f;
#X obj 332 110 t b f;
#X obj 390 107 t b f;
#X obj 63 84 ctlin 15;
#X obj 117 84 ctlin 16;
#X obj 170 85 ctlin 17;
#X obj 223 86 ctlin 18;
#X obj 277 86 ctlin 19;
#X obj 332 88 ctlin 20;
#X obj 390 86 ctlin 21;
#X obj 63 170 outlet;
#X connect 0 0 14 0;
#X connect 1 0 0 0;
#X connect 1 1 0 1;
#X connect 2 0 0 0;
#X connect 2 1 0 2;
#X connect 3 0 0 0;
#X connect 3 1 0 3;
#X connect 4 0 0 0;
#X connect 4 1 0 4;
#X connect 5 0 0 0;
#X connect 5 1 0 5;
#X connect 6 0 0 0;
#X connect 6 1 0 6;
#X connect 7 0 0 0;
#X connect 8 0 1 0;
#X connect 9 0 2 0;
#X connect 10 0 3 0;
#X connect 11 0 4 0;
#X connect 12 0 5 0;
#X connect 13 0 6 0;
#X restore 249 105 pd map_control_3;
#N canvas 0 22 450 300 map_control_4 0;
#X obj 41 133 pack f f f f f f f;
#X obj 95 99 t b f;
#X obj 148 101 t b f;
#X obj 201 102 t b f;
#X obj 255 102 t b f;
#X obj 310 104 t b f;
#X obj 365 103 t b f;
#X obj 41 78 ctlin 22;
#X obj 95 78 ctlin 23;
#X obj 148 79 ctlin 24;
#X obj 201 80 ctlin 25;
#X obj 255 80 ctlin 26;
#X obj 310 82 ctlin 27;
#X obj 365 82 ctlin 28;
#X obj 41 162 outlet;
#X connect 0 0 14 0;
#X connect 1 0 0 0;
#X connect 1 1 0 1;
#X connect 2 0 0 0;
#X connect 2 1 0 2;
#X connect 3 0 0 0;
#X connect 3 1 0 3;
#X connect 4 0 0 0;
#X connect 4 1 0 4;
#X connect 5 0 0 0;
#X connect 5 1 0 5;
#X connect 6 0 0 0;
#X connect 6 1 0 6;
#X connect 7 0 0 0;
#X connect 8 0 1 0;
#X connect 9 0 2 0;
#X connect 10 0 3 0;
#X connect 11 0 4 0;
#X connect 12 0 5 0;
#X connect 13 0 6 0;
#X restore 364 106 pd map_control_4;
#X obj 20 129 outlet;
#X obj 135 128 outlet;
#X obj 249 133 outlet;
#X obj 364 138 outlet;
#X connect 0 0 4 0;
#X connect 1 0 5 0;
#X connect 2 0 6 0;
#X connect 3 0 7 0;
