#N canvas 68 82 660 738 10;
#X floatatom 66 48 5 -50 50 0 drive - -, f 5;
#X floatatom 66 65 5 0 1 0 output - -, f 5;
#X obj 19 127 inlet~;
#X obj 24 223 outlet~;
#X obj 3 6 cnv 5 5 5 empty empty INPUT 0 0 0 8 -262144 -66577 0;
#X obj 40 7 cnv 5 5 5 empty empty SAT 0 0 0 8 -262144 -66577 0;
#X obj 104 7 cnv 5 5 5 empty empty OUT 0 0 0 8 -262144 -66577 0;
#X floatatom 66 31 5 0.2 50 0 saturation - -, f 5;
#X obj 238 -33 inlet output;
#X obj 229 -58 r \$1-dist-ouput-in;
#X obj 120 -98 r \$1-dist-drive-in;
#X obj 138 -76 inlet drive;
#X obj 21 -76 inlet saturation;
#X obj 3 -98 r \$1-dist-sat-in;
#X obj 70 7 cnv 5 5 5 empty empty DRV 0 0 0 8 -262144 -66577 0;
#X obj 24 198 fx-disto~;
#X connect 0 0 15 2;
#X connect 1 0 15 3;
#X connect 2 0 15 0;
#X connect 7 0 15 1;
#X connect 8 0 1 0;
#X connect 9 0 1 0;
#X connect 10 0 0 0;
#X connect 11 0 0 0;
#X connect 12 0 7 0;
#X connect 13 0 7 0;
#X connect 15 0 3 0;
#X coords 0 -1 1 1 120 85 2 0 0;
