#N canvas 468 99 288 409 10;
#X floatatom 176 137 5 0.2 50 0 - - -;
#X floatatom 175 181 5 -50 50 0 - - -;
#X obj 18 128 clip~ -1 1;
#X obj 18 210 clip~ -1 1;
#X obj 18 268 *~;
#X floatatom 194 220 5 0 1 0 - - -;
#X text 218 178 mod2 [-50 \; 50] DRIVE;
#X text 222 133 mod1 [1 \; 50] SAT;
#X obj 18 69 *~;
#X obj 18 22 inlet~;
#X obj 18 302 outlet~;
#X obj 169 110 inlet SAT;
#X obj 179 160 inlet DRIVE;
#X obj 199 200 inlet OUT;
#X obj 18 169 overdrive~ 25;
#X obj 118 44 import;
#X connect 0 0 8 1;
#X connect 1 0 14 1;
#X connect 2 0 14 0;
#X connect 3 0 4 0;
#X connect 4 0 10 0;
#X connect 5 0 4 1;
#X connect 8 0 2 0;
#X connect 9 0 8 0;
#X connect 11 0 0 0;
#X connect 12 0 1 0;
#X connect 13 0 5 0;
#X connect 14 0 3 0;
