#N canvas 421 274 1031 681 10;
#X floatatom 61 29 5 0 5000 0 delay - -, f 5;
#X floatatom 61 49 5 0 5000 0 feedback - -, f 5;
#X obj 23 165 inlet~;
#X obj 24 225 outlet~;
#X obj 6 7 cnv 5 10 4 empty empty INPUT 0 0 0 8 -262144 -66577 0;
#X obj 34 6 cnv 5 5 5 empty empty DEL 0 0 0 8 -262144 -66577 0;
#X obj 61 6 cnv 5 5 5 empty empty FB 0 0 0 8 -262144 -66577 0;
#X obj 118 -45 inlet delay;
#X obj 258 -45 inlet feedback;
#X obj 100 -67 r \$1-delay-in;
#X obj 249 -70 r \$1-feedback-in;
#X obj 60 89 hsl 27 15 0 1 0 0 empty empty dry/wet -50 7 0 10 -262144
-1 -1 1300 1;
#X obj 161 84 loadbang;
#X msg 161 105 0.5;
#X obj 24 200 fx-del~;
#X obj 381 -69 r \$1-effectlevel-in;
#X obj 389 -44 inlet effectlevel;
#X floatatom 61 68 5 0 1 0 eff_lvl - -, f 5;
#X obj 531 -63 r \$1-dw-in;
#X obj 539 -39 inlet dw;
#X obj 80 6 cnv 5 5 5 empty empty EFF_LVL 0 0 0 8 -262144 -66577 0
;
#X obj 120 6 cnv 5 5 5 empty empty DW 0 0 0 8 -262144 -66577 0;
#X text 18 112 ADAPTATIVE_DELAY;
#X obj 252 111 loadbang;
#X obj 253 140 f \$1;
#X obj 289 140 f \$2;
#X floatatom 16 128 5 0 0 0 - - -, f 5;
#X floatatom 73 129 5 0 0 0 - - -, f 5;
#X connect 0 0 14 2;
#X connect 1 0 14 3;
#X connect 2 0 14 0;
#X connect 7 0 0 0;
#X connect 8 0 1 0;
#X connect 9 0 0 0;
#X connect 10 0 1 0;
#X connect 11 0 14 1;
#X connect 12 0 13 0;
#X connect 13 0 11 0;
#X connect 14 0 3 0;
#X connect 15 0 17 0;
#X connect 16 0 17 0;
#X connect 17 0 14 4;
#X connect 18 0 11 0;
#X connect 19 0 11 0;
#X connect 23 0 24 0;
#X connect 23 0 25 0;
#X connect 24 0 26 0;
#X connect 25 0 27 0;
#X coords 0 -1 1 1 130 150 2 4 -1;
