#N canvas 468 99 288 409 10;
#X floatatom 123 138 5 0.2 50 0 - - -, f 5;
#X obj 18 169 overdrive~ 25;
#X floatatom 122 182 5 -50 50 0 - - -, f 5;
#X obj 18 128 clip~ -1 1;
#X obj 18 210 clip~ -1 1;
#X obj 18 268 *~;
#X floatatom 141 221 5 0 1 0 - - -, f 5;
#X text 165 179 mod2 [-50 \; 50] DRIVE;
#X text 169 134 mod1 [1 \; 50] SAT;
#X obj 18 69 *~;
#X obj 18 22 inlet~;
#X obj 18 302 outlet~;
#X obj 116 111 inlet SAT;
#X obj 126 161 inlet DRIVE;
#X obj 146 201 inlet OUT;
#X connect 0 0 9 1;
#X connect 1 0 4 0;
#X connect 2 0 1 1;
#X connect 3 0 1 0;
#X connect 4 0 5 0;
#X connect 5 0 11 0;
#X connect 6 0 5 1;
#X connect 9 0 3 0;
#X connect 10 0 9 0;
#X connect 12 0 0 0;
#X connect 13 0 2 0;
#X connect 14 0 6 0;
