#N canvas 365 129 450 300 10;
#X floatatom 127 117 4 0 999 1 delay - -, f 4;
#X obj 24 44 inlet~;
#X obj 75 171 *~;
#X floatatom 127 159 4 0 999 1 feedback - -, f 4;
#X obj 44 272 outlet~;
#X obj 298 36 inlet feedback;
#X obj 220 36 inlet delay;
#X obj 220 56 utils-line;
#X obj 298 56 utils-line;
#X obj 87 47 hsl 27 15 0 1 0 0 empty empty empty -2 -8 0 10 -262144
-1 -1 1300 1;
#X obj 80 26 inlet dw;
#X obj 151 8 loadbang;
#X msg 151 29 0.5;
#X obj 63 97 delwrite~ \$0-del 5000;
#X obj 127 136 delread~ \$0-del;
#X obj 24 67 utils-drywet;
#X obj 402 37 inlet effect_level;
#X obj 402 60 utils-line;
#X obj 84 228 *~;
#X floatatom 402 122 5 0 0 0 - - -, f 5;
#X connect 0 0 14 0;
#X connect 1 0 15 0;
#X connect 2 0 13 0;
#X connect 2 0 18 0;
#X connect 3 0 2 1;
#X connect 5 0 8 0;
#X connect 6 0 7 0;
#X connect 7 0 0 0;
#X connect 8 0 3 0;
#X connect 9 0 15 1;
#X connect 10 0 9 0;
#X connect 11 0 12 0;
#X connect 12 0 9 0;
#X connect 14 0 2 0;
#X connect 14 0 18 0;
#X connect 15 0 4 0;
#X connect 15 1 13 0;
#X connect 16 0 17 0;
#X connect 17 0 18 1;
#X connect 17 0 19 0;
#X connect 18 0 4 0;
