#N canvas 731 36 641 453 10;
#X floatatom 61 32 5 0 5000 0 delay - -, f 5;
#X floatatom 61 49 5 0 5000 0 feedback - -, f 5;
#X obj 19 129 inlet~;
#X obj 24 225 outlet~;
#X obj 3 8 cnv 5 5 5 empty empty INPUT 0 0 0 8 -262144 -66577 0;
#X obj 60 9 cnv 5 5 5 empty empty DEL 0 0 0 8 -262144 -66577 0;
#X obj 104 9 cnv 5 5 5 empty empty FB 0 0 0 8 -262144 -66577 0;
#X obj 48 -74 inlet delay;
#X obj 188 -74 inlet feedback;
#X obj 30 -96 r \$1-delay-in;
#X obj 179 -99 r \$1-feedback-in;
#X obj 24 200 del_fb_dw~;
#X obj 64 66 hsl 27 15 0 1 0 0 empty empty dry/wet -50 7 0 10 -262144
-1 -1 1300 1;
#X obj 183 20 loadbang;
#X msg 183 41 0.5;
#X connect 0 0 11 2;
#X connect 1 0 11 3;
#X connect 2 0 11 0;
#X connect 7 0 0 0;
#X connect 8 0 1 0;
#X connect 9 0 0 0;
#X connect 10 0 1 0;
#X connect 11 0 3 0;
#X connect 12 0 11 1;
#X connect 13 0 14 0;
#X connect 14 0 12 0;
#X coords 0 -1 1 1 120 85 2 0 0;
