#N canvas 506 22 774 681 10;
#X floatatom 279 49 5 0 1 2 - #0-fb-all-in #0-fb-all, f 5;
#X floatatom 279 32 5 0 5000 2 All #0-del-all-in #0-del-all, f 5;
#X obj 228 -74 inlet delays;
#X obj 210 -96 r \$1-delays-in;
#X floatatom 61 32 5 0 5000 0 delay #0-del-6-in #0-del-6, f 5;
#X text 69 18 6;
#X text 104 18 5;
#X text 140 18 4;
#X text 173 18 3;
#X text 209 18 2;
#X text 245 17 1;
#N canvas 1280 22 1920 1057 hex-processing 0;
#X obj 12 127 inlet~;
#X obj 84 127 inlet~;
#X obj 13 315 outlet~;
#X obj 84 315 outlet~;
#X obj 672 163 inlet delays;
#X obj 672 185 unpack f f f f f f;
#X obj 819 194 unpack f f f f f f;
#X obj 819 172 inlet feedbacks;
#X obj 533 175 unpack f f f f f f;
#X obj 533 153 inlet drywet;
#X obj 154 127 inlet~;
#X obj 154 315 outlet~;
#X obj 224 127 inlet~;
#X obj 224 315 outlet~;
#X obj 294 127 inlet~;
#X obj 294 315 outlet~;
#X obj 364 127 inlet~;
#X obj 364 315 outlet~;
#X obj 13 237 fx-del~;
#X obj 85 237 fx-del~;
#X obj 155 237 fx-del~;
#X obj 225 237 fx-del~;
#X obj 295 237 fx-del~;
#X obj 365 237 fx-del~;
#X obj 961 193 unpack f f f f f f;
#X obj 961 171 inlet effect_level;
#X connect 0 0 18 0;
#X connect 1 0 19 0;
#X connect 4 0 5 0;
#X connect 5 0 18 2;
#X connect 5 1 19 2;
#X connect 5 2 20 2;
#X connect 5 3 21 2;
#X connect 5 4 22 2;
#X connect 5 5 23 2;
#X connect 6 0 18 3;
#X connect 6 1 19 3;
#X connect 6 2 20 3;
#X connect 6 3 21 3;
#X connect 6 4 22 3;
#X connect 6 5 23 3;
#X connect 7 0 6 0;
#X connect 8 0 18 1;
#X connect 8 1 19 1;
#X connect 8 2 20 1;
#X connect 8 3 21 1;
#X connect 8 4 22 1;
#X connect 8 5 23 1;
#X connect 9 0 8 0;
#X connect 10 0 20 0;
#X connect 12 0 21 0;
#X connect 14 0 22 0;
#X connect 16 0 23 0;
#X connect 18 0 2 0;
#X connect 19 0 3 0;
#X connect 20 0 11 0;
#X connect 21 0 13 0;
#X connect 22 0 15 0;
#X connect 23 0 17 0;
#X connect 24 0 18 4;
#X connect 24 1 19 4;
#X connect 24 2 20 4;
#X connect 24 3 21 4;
#X connect 24 4 22 4;
#X connect 24 5 23 4;
#X connect 25 0 24 0;
#X restore 38 325 pd hex-processing;
#X obj 309 -99 r \$1-feedbacks-in;
#X floatatom 61 49 5 0 1 0 feedback #0-fb-6-in #0-fb-6, f 5;
#X floatatom 96 49 5 0 1 2 - #0-fb-5-in #0-fb-5, f 5;
#X floatatom 131 49 5 0 1 2 - #0-fb-4-in #0-fb-4, f 5;
#X floatatom 166 49 5 0 1 2 - #0-fb-3-in #0-fb-3, f 5;
#X floatatom 202 49 5 0 1 2 - #0-fb-2-in #0-fb-2, f 5;
#X floatatom 237 49 5 0 1 2 - #0-fb-1-in #0-fb-1, f 5;
#X obj 38 254 inlet~;
#X obj 57 276 inlet~;
#X obj 77 296 inlet~;
#X obj 97 254 inlet~;
#X obj 117 276 inlet~;
#X obj 137 296 inlet~;
#X obj 38 350 outlet~;
#X obj 57 370 outlet~;
#X obj 77 390 outlet~;
#X obj 97 349 outlet~;
#X obj 117 370 outlet~;
#X obj 137 390 outlet~;
#X obj 3 8 cnv 5 5 5 empty empty |-----------------INPUTS----------------|
0 0 0 8 -262144 -66577 0;
#X obj 204 6 cnv 5 5 5 empty empty DELs 0 0 0 8 -262144 -66577 0;
#X obj 239 6 cnv 5 5 5 empty empty FBs 0 0 0 8 -262144 -66577 0;
#X obj 7 135 cnv 5 5 5 empty empty |---------------------------OUTPUTS--------------------------|
0 0 0 8 -262144 -66577 0;
#X floatatom 96 32 5 0 5000 0 - #0-del-5-in #0-del-5, f 5;
#X floatatom 131 32 5 0 5000 0 - #0-del-4-in #0-del-4, f 5;
#X floatatom 166 32 5 0 5000 0 - #0-del-3-in #0-del-3, f 5;
#X floatatom 202 32 5 0 5000 0 - #0-del-2-in #0-del-2, f 5;
#X floatatom 237 32 5 0 5000 0 - #0-del-1-in #0-del-1, f 5;
#N canvas 496 184 450 300 sends 0;
#X obj 39 23 inlet;
#X obj 39 65 unpack f f f f f f;
#X obj 39 87 s \$0-del-6-in;
#X obj 60 107 s \$0-del-5-in;
#X obj 81 127 s \$0-del-4-in;
#X obj 102 147 s \$0-del-3-in;
#X obj 123 167 s \$0-del-2-in;
#X obj 144 187 s \$0-del-1-in;
#X msg 187 34 \$1 \$1 \$1 \$1 \$1 \$1;
#X obj 187 12 r \$0-del-all;
#X connect 0 0 1 0;
#X connect 1 0 2 0;
#X connect 1 1 3 0;
#X connect 1 2 4 0;
#X connect 1 3 5 0;
#X connect 1 4 6 0;
#X connect 1 5 7 0;
#X connect 8 0 1 0;
#X connect 9 0 8 0;
#X restore 210 -45 pd sends;
#N canvas 722 258 466 498 receives 0;
#X obj 58 331 pack f f f f f f;
#X obj 138 280 r \$0-del-1;
#X obj 138 302 t b f;
#X obj 128 252 t b f;
#X obj 108 202 t b f;
#X obj 98 152 t b f;
#X obj 68 102 t b f;
#X obj 58 50 r \$0-del-6;
#X obj 68 80 r \$0-del-5;
#X obj 98 130 r \$0-del-4;
#X obj 108 180 r \$0-del-3;
#X obj 128 230 r \$0-del-2;
#X obj 58 353 outlet;
#X connect 0 0 12 0;
#X connect 1 0 2 0;
#X connect 2 0 0 0;
#X connect 2 1 0 5;
#X connect 3 0 0 0;
#X connect 3 1 0 4;
#X connect 4 0 0 0;
#X connect 4 1 0 3;
#X connect 5 0 0 0;
#X connect 5 1 0 2;
#X connect 6 0 0 0;
#X connect 6 1 0 1;
#X connect 7 0 0 0;
#X connect 8 0 6 0;
#X connect 9 0 5 0;
#X connect 10 0 4 0;
#X connect 11 0 3 0;
#X restore 233 190 pd receives;
#N canvas 843 22 466 498 receives 0;
#X obj 58 331 pack f f f f f f;
#X obj 138 302 t b f;
#X obj 128 252 t b f;
#X obj 108 202 t b f;
#X obj 98 152 t b f;
#X obj 68 102 t b f;
#X obj 58 353 outlet;
#X obj 58 50 r \$0-fb-6;
#X obj 68 80 r \$0-fb-5;
#X obj 98 130 r \$0-fb-4;
#X obj 108 180 r \$0-fb-3;
#X obj 128 230 r \$0-fb-2;
#X obj 138 280 r \$0-fb-1;
#X connect 0 0 6 0;
#X connect 1 0 0 0;
#X connect 1 1 0 5;
#X connect 2 0 0 0;
#X connect 2 1 0 4;
#X connect 3 0 0 0;
#X connect 3 1 0 3;
#X connect 4 0 0 0;
#X connect 4 1 0 2;
#X connect 5 0 0 0;
#X connect 5 1 0 1;
#X connect 7 0 0 0;
#X connect 8 0 5 0;
#X connect 9 0 4 0;
#X connect 10 0 3 0;
#X connect 11 0 2 0;
#X connect 12 0 1 0;
#X restore 233 212 pd receives;
#N canvas 843 22 466 498 receives 0;
#X obj 58 331 pack f f f f f f;
#X obj 138 302 t b f;
#X obj 128 252 t b f;
#X obj 108 202 t b f;
#X obj 98 152 t b f;
#X obj 68 102 t b f;
#X obj 58 353 outlet;
#X obj 58 50 r \$0-dw-6;
#X obj 68 80 r \$0-dw-5;
#X obj 98 130 r \$0-dw-4;
#X obj 108 180 r \$0-dw-3;
#X obj 128 230 r \$0-dw-2;
#X obj 138 280 r \$0-dw-1;
#X connect 0 0 6 0;
#X connect 1 0 0 0;
#X connect 1 1 0 5;
#X connect 2 0 0 0;
#X connect 2 1 0 4;
#X connect 3 0 0 0;
#X connect 3 1 0 3;
#X connect 4 0 0 0;
#X connect 4 1 0 2;
#X connect 5 0 0 0;
#X connect 5 1 0 1;
#X connect 7 0 0 0;
#X connect 8 0 5 0;
#X connect 9 0 4 0;
#X connect 10 0 3 0;
#X connect 11 0 2 0;
#X connect 12 0 1 0;
#X restore 233 234 pd receives;
#N canvas 496 184 450 300 sends 0;
#X obj 39 23 inlet;
#X obj 39 65 unpack f f f f f f;
#X msg 187 34 \$1 \$1 \$1 \$1 \$1 \$1;
#X obj 187 12 r \$0-fb-all;
#X obj 39 87 s \$0-fb-6-in;
#X obj 60 107 s \$0-fb-5-in;
#X obj 81 127 s \$0-fb-4-in;
#X obj 102 147 s \$0-fb-3-in;
#X obj 123 167 s \$0-fb-2-in;
#X obj 144 187 s \$0-fb-1-in;
#X connect 0 0 1 0;
#X connect 1 0 4 0;
#X connect 1 1 5 0;
#X connect 1 2 6 0;
#X connect 1 3 7 0;
#X connect 1 4 8 0;
#X connect 1 5 9 0;
#X connect 2 0 1 0;
#X connect 3 0 2 0;
#X restore 309 -45 pd sends;
#N canvas 190 239 450 323 sends 0;
#X obj 39 23 inlet;
#X obj 39 65 unpack f f f f f f;
#X msg 187 34 \$1 \$1 \$1 \$1 \$1 \$1;
#X obj 187 12 r \$0-dw-all;
#X obj 39 87 s \$0-dw-6-in;
#X obj 60 107 s \$0-dw-5-in;
#X obj 81 127 s \$0-dw-4-in;
#X obj 102 147 s \$0-dw-3-in;
#X obj 123 167 s \$0-dw-2-in;
#X obj 144 187 s \$0-dw-1-in;
#X connect 0 0 1 0;
#X connect 1 0 4 0;
#X connect 1 1 5 0;
#X connect 1 2 6 0;
#X connect 1 3 7 0;
#X connect 1 4 8 0;
#X connect 1 5 9 0;
#X connect 2 0 1 0;
#X connect 3 0 2 0;
#X restore 641 -37 pd sends;
#X obj 641 -91 r \$1-drywets-in;
#X obj 670 -67 inlet drywets;
#X obj 338 -75 inlet feedbacks;
#X obj 64 91 hsl 27 15 0 1 0 0 \$0-dw-6 \$0-dw-6-in dry/wet -50 7 0
10 -262144 -1 -1 1950 1;
#X obj 99 91 hsl 27 15 0 1 0 0 \$0-dw-5 \$0-dw-5-in empty -2 -8 0 10
-262144 -1 -1 1950 1;
#X obj 134 91 hsl 27 15 0 1 0 0 \$0-dw-4 \$0-dw-4-in empty -2 -8 0
10 -262144 -1 -1 1950 1;
#X obj 169 91 hsl 27 15 0 1 0 0 \$0-dw-3 \$0-dw-3-in empty -2 -8 0
10 -262144 -1 -1 1950 1;
#X obj 205 91 hsl 27 15 0 1 0 0 \$0-dw-2 \$0-dw-2-in empty -2 -8 0
10 -262144 -1 -1 1950 1;
#X obj 240 91 hsl 27 15 0 1 0 0 \$0-dw-1 \$0-dw-1-in empty -2 -8 0
10 -262144 -1 -1 1950 1;
#X obj 282 91 hsl 27 15 0 1 0 0 \$0-dw-all \$0-dw-all-in empty -2 -8
0 10 -262144 -1 -1 1950 1;
#X text 245 110 HEX_DELAY;
#X obj 304 6 cnv 5 5 5 empty empty DWs 0 0 0 8 -262144 -66577 0;
#X obj 369 22 loadbang;
#X msg 369 44 0.5;
#X obj 369 66 s \$0-dw-all-in;
#X obj 313 222 s \$1-delays-out;
#X obj 313 242 s \$1-feedbacks-out;
#X obj 313 262 s \$1-drywets-out;
#N canvas 415 22 450 300 receives 0;
#X obj 155 149 pack f f f f f f;
#X obj 235 120 t b f;
#X obj 225 70 t b f;
#X obj 205 20 t b f;
#X obj 195 -30 t b f;
#X obj 165 -80 t b f;
#X obj 155 171 outlet;
#X obj 155 -132 r \$0-effectlevel-6;
#X obj 165 -103 r \$0-effectlevel-5;
#X obj 196 -52 r \$0-effectlevel-4;
#X obj 205 -2 r \$0-effectlevel-3;
#X obj 225 48 r \$0-effectlevel-2;
#X obj 235 98 r \$0-effectlevel-1;
#X connect 0 0 6 0;
#X connect 1 0 0 0;
#X connect 1 1 0 5;
#X connect 2 0 0 0;
#X connect 2 1 0 4;
#X connect 3 0 0 0;
#X connect 3 1 0 3;
#X connect 4 0 0 0;
#X connect 4 1 0 2;
#X connect 5 0 0 0;
#X connect 5 1 0 1;
#X connect 7 0 0 0;
#X connect 8 0 5 0;
#X connect 9 0 4 0;
#X connect 10 0 3 0;
#X connect 11 0 2 0;
#X connect 12 0 1 0;
#X restore 233 256 pd receives;
#X obj 313 282 s \$1-effect_levels-out;
#X floatatom 278 68 5 0 1 2 - #0-effectlevel-all-in #0-effectlevel-all
, f 5;
#X floatatom 60 68 5 0 1 0 eff-lvl #0-effectlevel-6-in #0-effectlevel-6
, f 5;
#X floatatom 95 68 5 0 1 2 - #0-effectlevel-5-in #0-effectlevel-5,
f 5;
#X floatatom 130 68 5 0 1 2 - #0-effectlevel-4-in #0-effectlevel-4
, f 5;
#X floatatom 165 68 5 0 1 2 - #0-effectlevel-3-in #0-effectlevel-3
, f 5;
#X floatatom 201 68 5 0 1 2 - #0-effectlevel-2-in #0-effectlevel-2
, f 5;
#X floatatom 236 68 5 0 1 2 - #0-effectlevel-1-in #0-effectlevel-1
, f 5;
#N canvas 1355 577 450 323 sends 0;
#X obj 39 23 inlet;
#X obj 39 65 unpack f f f f f f;
#X msg 187 34 \$1 \$1 \$1 \$1 \$1 \$1;
#X obj 187 12 r \$0-effectlevel-all;
#X obj 39 87 s \$0-effectlevel-6-in;
#X obj 60 107 s \$0-effectlevel-5-in;
#X obj 81 127 s \$0-effectlevel-4-in;
#X obj 102 147 s \$0-effectlevel-3-in;
#X obj 124 167 s \$0-effectlevel-2-in;
#X obj 144 187 s \$0-effectlevel-1-in;
#X connect 0 0 1 0;
#X connect 1 0 4 0;
#X connect 1 1 5 0;
#X connect 1 2 6 0;
#X connect 1 3 7 0;
#X connect 1 4 8 0;
#X connect 1 5 9 0;
#X connect 2 0 1 0;
#X connect 3 0 2 0;
#X restore 445 -42 pd sends;
#X obj 474 -72 inlet effectlevels;
#X obj 445 -96 r \$1-effectlevels-in;
#X obj 262 6 cnv 5 5 5 empty empty EFF_LVLs 0 0 0 8 -262144 -66577
0;
#X connect 2 0 40 0;
#X connect 3 0 40 0;
#X connect 11 0 25 0;
#X connect 11 1 26 0;
#X connect 11 2 27 0;
#X connect 11 3 28 0;
#X connect 11 4 29 0;
#X connect 11 5 30 0;
#X connect 12 0 44 0;
#X connect 19 0 11 0;
#X connect 20 0 11 1;
#X connect 21 0 11 2;
#X connect 22 0 11 3;
#X connect 23 0 11 4;
#X connect 24 0 11 5;
#X connect 41 0 11 7;
#X connect 41 0 61 0;
#X connect 42 0 11 8;
#X connect 42 0 62 0;
#X connect 43 0 11 6;
#X connect 43 0 63 0;
#X connect 46 0 45 0;
#X connect 47 0 45 0;
#X connect 48 0 44 0;
#X connect 58 0 59 0;
#X connect 59 0 60 0;
#X connect 64 0 65 0;
#X connect 64 0 11 9;
#X connect 74 0 73 0;
#X connect 75 0 73 0;
#X coords 0 -1 1 1 320 150 2 0 0;
