#N canvas 360 28 920 675 10;
#X floatatom 283 49 5 -50 50 2 - #0-disto-drive-all-in #0-disto-drive-all
, f 5;
#X floatatom 283 32 5 0.2 50 2 All #0-disto-sat-all-in #0-disto-sat-all
, f 5;
#X floatatom 65 32 5 0.2 50 0 saturation #0-disto-sat-6-in #0-disto-sat-6
, f 5;
#X text 73 18 6;
#X text 108 18 5;
#X text 144 18 4;
#X text 177 18 3;
#X text 213 18 2;
#X text 249 17 1;
#N canvas 196 405 879 423 hex-processing 0;
#X obj 12 127 inlet~;
#X obj 84 127 inlet~;
#X obj 13 205 outlet~;
#X obj 84 205 outlet~;
#X obj 616 126 unpack f f f f f f;
#X obj 758 141 unpack f f f f f f;
#X obj 471 122 unpack f f f f f f;
#X obj 154 127 inlet~;
#X obj 154 205 outlet~;
#X obj 224 127 inlet~;
#X obj 224 205 outlet~;
#X obj 294 127 inlet~;
#X obj 294 205 outlet~;
#X obj 364 127 inlet~;
#X obj 364 205 outlet~;
#X obj 224 168 fx-disto~;
#X obj 758 119 inlet outputs;
#X obj 616 104 inlet drives;
#X obj 471 100 inlet saturations;
#X obj 12 168 fx-disto~;
#X obj 84 168 fx-disto~;
#X obj 154 168 fx-disto~;
#X obj 294 168 fx-disto~;
#X obj 364 168 fx-disto~;
#X connect 0 0 19 0;
#X connect 1 0 20 0;
#X connect 4 0 19 2;
#X connect 4 1 20 2;
#X connect 4 2 21 2;
#X connect 4 3 15 3;
#X connect 4 4 22 2;
#X connect 4 5 23 2;
#X connect 5 0 19 3;
#X connect 5 1 20 3;
#X connect 5 2 21 3;
#X connect 5 3 15 2;
#X connect 5 4 22 3;
#X connect 5 5 23 3;
#X connect 6 0 19 1;
#X connect 6 1 20 1;
#X connect 6 2 21 1;
#X connect 6 3 15 1;
#X connect 6 4 22 1;
#X connect 6 5 23 1;
#X connect 7 0 21 0;
#X connect 9 0 15 0;
#X connect 11 0 22 0;
#X connect 13 0 23 0;
#X connect 15 0 10 0;
#X connect 16 0 5 0;
#X connect 17 0 4 0;
#X connect 18 0 6 0;
#X connect 19 0 2 0;
#X connect 20 0 3 0;
#X connect 21 0 8 0;
#X connect 22 0 12 0;
#X connect 23 0 14 0;
#X restore 36 210 pd hex-processing;
#X floatatom 65 49 5 -50 50 0 drive #0-disto-drive-6-in #0-disto-drive-6
, f 5;
#X floatatom 100 49 5 -50 50 2 - #0-disto-drive-5-in #0-disto-drive-5
, f 5;
#X floatatom 135 49 5 -50 50 2 - #0-disto-drive-4-in #0-disto-drive-4
, f 5;
#X floatatom 170 49 5 -50 50 2 - #0-disto-drive-3-in #0-disto-drive-3
, f 5;
#X floatatom 206 49 5 -50 50 2 - #0-disto-drive-2-in #0-disto-drive-2
, f 5;
#X floatatom 241 49 5 -50 50 2 - #0-disto-drive-1-in #0-disto-drive-1
, f 5;
#X obj 36 139 inlet~;
#X obj 55 161 inlet~;
#X obj 75 181 inlet~;
#X obj 95 139 inlet~;
#X obj 115 161 inlet~;
#X obj 135 181 inlet~;
#X obj 36 235 outlet~;
#X obj 55 255 outlet~;
#X obj 75 275 outlet~;
#X obj 95 234 outlet~;
#X obj 115 255 outlet~;
#X obj 135 275 outlet~;
#X obj 3 8 cnv 5 5 5 empty empty |-----------------INPUTS----------------|
0 0 0 8 -262144 -66577 0;
#X obj 229 9 cnv 5 5 5 empty empty SATs 0 0 0 8 -262144 -66577 0;
#X obj 258 8 cnv 5 5 5 empty empty DRIVEs 0 0 0 8 -262144 -66577 0
;
#X obj 4 110 cnv 5 5 5 empty empty |---------------------------OUTPUTS--------------------------|
0 0 0 8 -262144 -66577 0;
#X floatatom 100 32 5 0.2 50 0 - #0-disto-sat-5-in #0-disto-sat-5,
f 5;
#X floatatom 135 32 5 0.2 50 0 - #0-disto-sat-4-in #0-disto-sat-4,
f 5;
#X floatatom 170 32 5 0.2 50 0 - #0-disto-sat-3-in #0-disto-sat-3,
f 5;
#X floatatom 206 32 5 0.2 50 0 - #0-disto-sat-2-in #0-disto-sat-2,
f 5;
#X floatatom 241 32 5 0.2 50 0 - #0-disto-sat-1-in #0-disto-sat-1,
f 5;
#N canvas 237 407 450 300 sends 0;
#X obj 39 23 inlet;
#X obj 39 65 unpack f f f f f f;
#X msg 187 34 \$1 \$1 \$1 \$1 \$1 \$1;
#X obj 39 87 s \$0-disto-sat-6-in;
#X obj 144 187 s \$0-disto-sat-1-in;
#X obj 123 167 s \$0-disto-sat-2-in;
#X obj 102 147 s \$0-disto-sat-3-in;
#X obj 81 127 s \$0-disto-sat-4-in;
#X obj 60 107 s \$0-disto-sat-5-in;
#X obj 187 12 r \$0-disto-sat-all;
#X connect 0 0 1 0;
#X connect 1 0 3 0;
#X connect 1 1 8 0;
#X connect 1 2 7 0;
#X connect 1 3 6 0;
#X connect 1 4 5 0;
#X connect 1 5 4 0;
#X connect 2 0 1 0;
#X connect 9 0 2 0;
#X restore 180 -45 pd sends;
#N canvas 224 303 466 498 receives 0;
#X obj 58 331 pack f f f f f f;
#X obj 138 302 t b f;
#X obj 128 252 t b f;
#X obj 108 202 t b f;
#X obj 98 152 t b f;
#X obj 68 102 t b f;
#X obj 58 353 outlet;
#X obj 58 50 r \$0-disto-sat-6;
#X obj 68 80 r \$0-disto-sat-5;
#X obj 98 130 r \$0-disto-sat-4;
#X obj 108 180 r \$0-disto-sat-3;
#X obj 128 230 r \$0-disto-sat-2;
#X obj 138 280 r \$0-disto-sat-1;
#X connect 0 0 6 0;
#X connect 1 0 0 0;
#X connect 1 1 0 5;
#X connect 2 0 0 0;
#X connect 2 1 0 4;
#X connect 3 0 0 0;
#X connect 3 1 0 3;
#X connect 4 0 0 0;
#X connect 4 1 0 2;
#X connect 5 0 0 0;
#X connect 5 1 0 1;
#X connect 7 0 0 0;
#X connect 8 0 5 0;
#X connect 9 0 4 0;
#X connect 10 0 3 0;
#X connect 11 0 2 0;
#X connect 12 0 1 0;
#X restore 220 128 pd receives;
#N canvas 843 23 466 498 receives 0;
#X obj 58 331 pack f f f f f f;
#X obj 138 302 t b f;
#X obj 128 252 t b f;
#X obj 108 202 t b f;
#X obj 98 152 t b f;
#X obj 68 102 t b f;
#X obj 58 353 outlet;
#X obj 58 50 r \$0-disto-drive-6;
#X obj 68 80 r \$0-disto-drive-5;
#X obj 98 130 r \$0-disto-drive-4;
#X obj 108 180 r \$0-disto-drive-3;
#X obj 128 230 r \$0-disto-drive-2;
#X obj 138 280 r \$0-disto-drive-1;
#X connect 0 0 6 0;
#X connect 1 0 0 0;
#X connect 1 1 0 5;
#X connect 2 0 0 0;
#X connect 2 1 0 4;
#X connect 3 0 0 0;
#X connect 3 1 0 3;
#X connect 4 0 0 0;
#X connect 4 1 0 2;
#X connect 5 0 0 0;
#X connect 5 1 0 1;
#X connect 7 0 0 0;
#X connect 8 0 5 0;
#X connect 9 0 4 0;
#X connect 10 0 3 0;
#X connect 11 0 2 0;
#X connect 12 0 1 0;
#X restore 220 150 pd receives;
#N canvas 843 23 466 498 receives 0;
#X obj 58 331 pack f f f f f f;
#X obj 138 302 t b f;
#X obj 128 252 t b f;
#X obj 108 202 t b f;
#X obj 98 152 t b f;
#X obj 68 102 t b f;
#X obj 58 353 outlet;
#X obj 58 50 r \$0-disto-out-6;
#X obj 68 80 r \$0-disto-out-5;
#X obj 98 130 r \$0-disto-out-4;
#X obj 108 180 r \$0-disto-out-3;
#X obj 128 230 r \$0-disto-out-2;
#X obj 138 280 r \$0-disto-out-1;
#X connect 0 0 6 0;
#X connect 1 0 0 0;
#X connect 1 1 0 5;
#X connect 2 0 0 0;
#X connect 2 1 0 4;
#X connect 3 0 0 0;
#X connect 3 1 0 3;
#X connect 4 0 0 0;
#X connect 4 1 0 2;
#X connect 5 0 0 0;
#X connect 5 1 0 1;
#X connect 7 0 0 0;
#X connect 8 0 5 0;
#X connect 9 0 4 0;
#X connect 10 0 3 0;
#X connect 11 0 2 0;
#X connect 12 0 1 0;
#X restore 220 172 pd receives;
#N canvas 244 214 450 300 sends 0;
#X obj 39 23 inlet;
#X obj 39 65 unpack f f f f f f;
#X msg 187 34 \$1 \$1 \$1 \$1 \$1 \$1;
#X obj 187 12 r \$0-disto-drive-all;
#X obj 39 87 s \$0-disto-drive-6-in;
#X obj 60 107 s \$0-disto-drive-5-in;
#X obj 81 127 s \$0-disto-drive-4-in;
#X obj 102 147 s \$0-disto-drive-3-in;
#X obj 123 167 s \$0-disto-drive-2-in;
#X obj 144 187 s \$0-disto-drive-1-in;
#X connect 0 0 1 0;
#X connect 1 0 4 0;
#X connect 1 1 5 0;
#X connect 1 2 6 0;
#X connect 1 3 7 0;
#X connect 1 4 8 0;
#X connect 1 5 9 0;
#X connect 2 0 1 0;
#X connect 3 0 2 0;
#X restore 309 -45 pd sends;
#N canvas 496 184 450 300 sends 0;
#X obj 39 23 inlet;
#X obj 39 65 unpack f f f f f f;
#X msg 187 34 \$1 \$1 \$1 \$1 \$1 \$1;
#X obj 39 87 s \$0-disto-out-6-in;
#X obj 60 107 s \$0-disto-out-5-in;
#X obj 81 127 s \$0-disto-out-4-in;
#X obj 102 147 s \$0-disto-out-3-in;
#X obj 123 167 s \$0-disto-out-2-in;
#X obj 144 187 s \$0-disto-out-1-in;
#X obj 187 12 r \$0-disto-out-all;
#X connect 0 0 1 0;
#X connect 1 0 3 0;
#X connect 1 1 4 0;
#X connect 1 2 5 0;
#X connect 1 3 6 0;
#X connect 1 4 7 0;
#X connect 1 5 8 0;
#X connect 2 0 1 0;
#X connect 9 0 2 0;
#X restore 439 -45 pd sends;
#X obj 298 8 cnv 5 5 5 empty empty OUTs 0 0 0 8 -262144 -66577 0;
#X obj 369 22 loadbang;
#X msg 369 44 0.5;
#X obj 300 168 s \$1-disto-drive-out;
#X obj 300 188 s \$1-disto-output-out;
#X obj 300 148 s \$1-disto-sat-out;
#X obj 309 -99 r \$1-disto-drives-in;
#X obj 180 -96 r \$1-disto-sat-in;
#X obj 439 -99 r \$1-disto-outputs-in;
#X obj 468 -75 inlet putputs;
#X obj 338 -75 inlet drives;
#X obj 198 -74 inlet saturations;
#X text 256 90 HEX_DISTO;
#X floatatom 283 66 5 0 1 2 - #0-disto-out-all-in #0-disto-out-all
, f 5;
#X floatatom 65 66 5 0 1 0 output #0-disto-out-6-in #0-disto-out-6
, f 5;
#X floatatom 100 66 5 0 1 2 - #0-disto-out-5-in #0-disto-out-5, f
5;
#X floatatom 135 66 5 0 1 2 - #0-disto-out-4-in #0-disto-out-4, f
5;
#X floatatom 170 66 5 0 1 2 - #0-disto-out-3-in #0-disto-out-3, f
5;
#X floatatom 206 66 5 0 1 2 - #0-disto-out-2-in #0-disto-out-2, f
5;
#X floatatom 241 66 5 0 1 2 - #0-disto-out-1-in #0-disto-out-1, f
5;
#X obj 369 66 s \$0-drive-out-all-in;
#X obj 222 204 print;
#X connect 9 0 22 0;
#X connect 9 1 23 0;
#X connect 9 2 24 0;
#X connect 9 3 25 0;
#X connect 9 4 26 0;
#X connect 9 5 27 0;
#X connect 16 0 9 0;
#X connect 17 0 9 1;
#X connect 18 0 9 2;
#X connect 19 0 9 3;
#X connect 20 0 9 4;
#X connect 21 0 9 5;
#X connect 38 0 48 0;
#X connect 38 0 9 6;
#X connect 39 0 46 0;
#X connect 39 0 9 7;
#X connect 39 0 64 0;
#X connect 40 0 47 0;
#X connect 40 0 9 8;
#X connect 44 0 45 0;
#X connect 45 0 63 0;
#X connect 49 0 41 0;
#X connect 50 0 37 0;
#X connect 51 0 42 0;
#X connect 52 0 42 0;
#X connect 53 0 41 0;
#X connect 54 0 37 0;
#X coords 0 -1 1 1 320 120 2 0 0;
