#N canvas 635 123 572 513 10;
#X floatatom 279 49 5 0 1000 2 - #0-lpf-all-in #0-lpf-all, f 5;
#X floatatom 279 32 5 0 0 0 - #0-wtf-all-in #0-wtf-all, f 5;
#X floatatom 61 32 5 0 0 0 wtf #0-wtf-6-in #0-wtf-6, f 5;
#X text 69 18 6;
#X text 104 18 5;
#X text 140 18 4;
#X text 173 18 3;
#X text 209 18 2;
#X text 245 17 1;
#N canvas 71 141 1277 450 hex-processing 0;
#X floatatom 97 138 4 0 5000 1 lpf - -, f 4;
#X obj 6 89 inlet~;
#X floatatom 120 190 4 0 999 1 wtf - -, f 4;
#X obj 5 309 outlet~;
#X obj 1132 122 unpack f f f f f f;
#X obj 1119 174 unpack f f f f f f;
#X obj 1144 68 unpack f f f f f f;
#X obj 1144 46 inlet drywet;
#X obj 78 84 hsl 27 15 0 1 0 0 empty empty empty -2 -8 0 10 -262144
-1 -1 1200 1;
#X floatatom 281 138 4 0 5000 1 lpf - -, f 4;
#X obj 190 89 inlet~;
#X floatatom 304 190 4 0 999 1 wtf - -, f 4;
#X obj 189 309 outlet~;
#X obj 262 84 hsl 27 15 0 1 0 0 empty empty empty -2 -8 0 10 -262144
-1 -1 1200 1;
#X obj 190 109 utils-drywet;
#X floatatom 463 138 4 0 5000 1 lpf - -, f 4;
#X obj 372 89 inlet~;
#X floatatom 486 190 4 0 999 1 wtf - -, f 4;
#X obj 371 309 outlet~;
#X obj 444 84 hsl 27 15 0 1 0 0 empty empty empty -2 -8 0 10 -262144
-1 -1 1200 1;
#X obj 372 109 utils-drywet;
#X floatatom 651 138 4 0 5000 1 lpf - -, f 4;
#X obj 560 89 inlet~;
#X floatatom 674 190 4 0 999 1 wtf - -, f 4;
#X obj 559 309 outlet~;
#X obj 632 84 hsl 27 15 0 1 0 0 empty empty empty -2 -8 0 10 -262144
-1 -1 1200 1;
#X obj 560 109 utils-drywet;
#X floatatom 842 138 4 0 5000 1 lpf - -, f 4;
#X obj 751 89 inlet~;
#X floatatom 865 190 4 0 999 1 wtf - -, f 4;
#X obj 750 309 outlet~;
#X obj 823 84 hsl 27 15 0 1 0 0 empty empty empty -2 -8 0 10 -262144
-1 -1 1200 1;
#X obj 751 109 utils-drywet;
#X floatatom 1034 138 4 0 5000 1 lpf - -, f 4;
#X obj 943 89 inlet~;
#X floatatom 1057 190 4 0 999 1 wtf - -, f 4;
#X obj 942 309 outlet~;
#X obj 1015 84 hsl 27 15 0 1 0 0 empty empty empty -2 -8 0 10 -262144
-1 -1 1200 1;
#X obj 943 109 utils-drywet;
#X obj 1132 95 inlet lpf;
#X obj 1119 143 inlet wtf;
#X obj 6 109 utils-drywet;
#X obj 75 253 fx-octafuzz~;
#X obj 259 253 fx-octafuzz~;
#X obj 441 253 fx-octafuzz~;
#X obj 629 253 fx-octafuzz~;
#X obj 820 253 fx-octafuzz~;
#X obj 1012 253 fx-octafuzz~;
#X connect 0 0 42 1;
#X connect 1 0 41 0;
#X connect 2 0 42 2;
#X connect 4 0 0 0;
#X connect 4 1 9 0;
#X connect 4 2 15 0;
#X connect 4 3 21 0;
#X connect 4 5 33 0;
#X connect 5 0 2 0;
#X connect 5 1 11 0;
#X connect 5 2 17 0;
#X connect 5 3 23 0;
#X connect 5 4 29 0;
#X connect 5 5 35 0;
#X connect 6 0 8 0;
#X connect 6 1 13 0;
#X connect 6 2 19 0;
#X connect 6 3 25 0;
#X connect 6 4 31 0;
#X connect 6 5 37 0;
#X connect 7 0 6 0;
#X connect 8 0 41 1;
#X connect 9 0 43 1;
#X connect 10 0 14 0;
#X connect 11 0 43 2;
#X connect 13 0 14 1;
#X connect 14 0 12 0;
#X connect 14 1 43 0;
#X connect 15 0 44 1;
#X connect 16 0 20 0;
#X connect 17 0 44 2;
#X connect 19 0 20 1;
#X connect 20 0 18 0;
#X connect 20 1 44 0;
#X connect 21 0 45 1;
#X connect 22 0 26 0;
#X connect 23 0 45 2;
#X connect 25 0 26 1;
#X connect 26 0 24 0;
#X connect 26 1 45 0;
#X connect 27 0 46 1;
#X connect 28 0 32 0;
#X connect 29 0 46 2;
#X connect 31 0 32 1;
#X connect 32 0 30 0;
#X connect 32 1 46 0;
#X connect 33 0 47 1;
#X connect 34 0 38 0;
#X connect 35 0 47 2;
#X connect 37 0 38 1;
#X connect 38 0 36 0;
#X connect 38 1 47 0;
#X connect 39 0 4 0;
#X connect 40 0 5 0;
#X connect 41 0 3 0;
#X connect 41 1 42 0;
#X connect 42 0 3 0;
#X connect 43 0 12 0;
#X connect 44 0 18 0;
#X connect 45 0 24 0;
#X connect 46 0 30 0;
#X connect 47 0 36 0;
#X restore 36 205 pd hex-processing;
#X floatatom 61 49 5 0 1000 0 lpf #0-lpf-6-in #0-lpf-6, f 5;
#X floatatom 96 49 5 0 1000 2 - #0-lpf-5-in #0-lpf-5, f 5;
#X floatatom 131 49 5 0 1000 2 - #0-lpf-4-in #0-lpf-4, f 5;
#X floatatom 166 50 5 0 1000 2 - #0-lpf-3-in #0-lpf-3, f 5;
#X floatatom 202 49 5 0 1000 2 - #0-lpf-2-in #0-lpf-2, f 5;
#X floatatom 237 49 5 0 1000 2 - #0-lpf-1-in #0-lpf-1, f 5;
#X obj 36 129 inlet~;
#X obj 47 149 inlet~;
#X obj 59 171 inlet~;
#X obj 91 150 inlet~;
#X obj 113 171 inlet~;
#X obj 145 149 inlet~;
#X obj 36 225 outlet~;
#X obj 67 245 outlet~;
#X obj 99 265 outlet~;
#X obj 103 225 outlet~;
#X obj 146 245 outlet~;
#X obj 184 267 outlet~;
#X obj 3 8 cnv 5 5 5 empty empty |-----------------INPUTS----------------|
0 0 0 8 -262144 -66577 0;
#X obj 237 9 cnv 5 5 5 empty empty WTFs 0 0 0 8 -262144 -66577 0;
#X obj 273 9 cnv 5 5 5 empty empty LPFs 0 0 0 8 -262144 -66577 0;
#X obj 3 114 cnv 5 5 5 empty empty |---------------------------OUTPUTS--------------------------|
0 0 0 8 -262144 -66577 0;
#X floatatom 96 32 5 0 0 0 - #0-wtf-5-in #0-wtf-5, f 5;
#X floatatom 131 31 5 0 0 0 - #0-wtf-4-in #0-wtf-4, f 5;
#X floatatom 166 33 5 0 0 0 - #0-wtf-3-in #0-wtf-3, f 5;
#X floatatom 202 32 5 0 0 0 - #0-wtf-2-in #0-wtf-2, f 5;
#X floatatom 237 32 5 0 0 0 - #0-wtf-1-in #0-wtf-1, f 5;
#N canvas 496 184 450 300 sends 0;
#X obj 39 23 inlet;
#X obj 39 65 unpack f f f f f f;
#X msg 187 34 \$1 \$1 \$1 \$1 \$1 \$1;
#X obj 81 127 s \$0-wtf-4-in;
#X obj 102 147 s \$0-wtf-3-in;
#X obj 123 167 s \$0-wtf-2-in;
#X obj 144 187 s \$0-wtf-1-in;
#X obj 39 87 s \$0-wtf-6-in;
#X obj 60 107 s \$0-wtf-5-in;
#X obj 187 12 r \$0-wtf-all;
#X connect 0 0 1 0;
#X connect 1 0 7 0;
#X connect 1 1 8 0;
#X connect 1 2 3 0;
#X connect 1 3 4 0;
#X connect 1 4 5 0;
#X connect 1 5 6 0;
#X connect 2 0 1 0;
#X connect 9 0 2 0;
#X restore 150 -45 pd sends;
#N canvas 722 258 466 498 receives 0;
#X obj 58 331 pack f f f f f f;
#X obj 138 302 t b f;
#X obj 128 252 t b f;
#X obj 108 202 t b f;
#X obj 98 152 t b f;
#X obj 68 102 t b f;
#X obj 58 353 outlet;
#X obj 58 50 r \$0-wtf-6;
#X obj 68 80 r \$0-wtf-5;
#X obj 98 130 r \$0-wtf-4;
#X obj 108 180 r \$0-wtf-3;
#X obj 128 230 r \$0-wtf-2;
#X obj 138 280 r \$0-wtf-1;
#X connect 0 0 6 0;
#X connect 1 0 0 0;
#X connect 1 1 0 5;
#X connect 2 0 0 0;
#X connect 2 1 0 4;
#X connect 3 0 0 0;
#X connect 3 1 0 3;
#X connect 4 0 0 0;
#X connect 4 1 0 2;
#X connect 5 0 0 0;
#X connect 5 1 0 1;
#X connect 7 0 0 0;
#X connect 8 0 5 0;
#X connect 9 0 4 0;
#X connect 10 0 3 0;
#X connect 11 0 2 0;
#X connect 12 0 1 0;
#X restore 257 125 pd receives;
#N canvas 843 23 466 469 receives 0;
#X obj 58 331 pack f f f f f f;
#X obj 138 302 t b f;
#X obj 128 252 t b f;
#X obj 108 202 t b f;
#X obj 98 152 t b f;
#X obj 68 102 t b f;
#X obj 58 353 outlet;
#X obj 58 50 r \$0-lpf-6;
#X obj 68 80 r \$0-lpf-5;
#X obj 98 130 r \$0-lpf-4;
#X obj 108 180 r \$0-lpf-3;
#X obj 128 230 r \$0-lpf-2;
#X obj 138 280 r \$0-lpf-1;
#X connect 0 0 6 0;
#X connect 1 0 0 0;
#X connect 1 1 0 5;
#X connect 2 0 0 0;
#X connect 2 1 0 4;
#X connect 3 0 0 0;
#X connect 3 1 0 3;
#X connect 4 0 0 0;
#X connect 4 1 0 2;
#X connect 5 0 0 0;
#X connect 5 1 0 1;
#X connect 7 0 0 0;
#X connect 8 0 5 0;
#X connect 9 0 4 0;
#X connect 10 0 3 0;
#X connect 11 0 2 0;
#X connect 12 0 1 0;
#X restore 257 147 pd receives;
#N canvas 843 23 466 498 receives 0;
#X obj 58 331 pack f f f f f f;
#X obj 138 302 t b f;
#X obj 128 252 t b f;
#X obj 108 202 t b f;
#X obj 98 152 t b f;
#X obj 68 102 t b f;
#X obj 58 353 outlet;
#X obj 58 50 r \$0-dw-6;
#X obj 68 80 r \$0-dw-5;
#X obj 98 130 r \$0-dw-4;
#X obj 108 180 r \$0-dw-3;
#X obj 128 230 r \$0-dw-2;
#X obj 138 280 r \$0-dw-1;
#X connect 0 0 6 0;
#X connect 1 0 0 0;
#X connect 1 1 0 5;
#X connect 2 0 0 0;
#X connect 2 1 0 4;
#X connect 3 0 0 0;
#X connect 3 1 0 3;
#X connect 4 0 0 0;
#X connect 4 1 0 2;
#X connect 5 0 0 0;
#X connect 5 1 0 1;
#X connect 7 0 0 0;
#X connect 8 0 5 0;
#X connect 9 0 4 0;
#X connect 10 0 3 0;
#X connect 11 0 2 0;
#X connect 12 0 1 0;
#X restore 257 169 pd receives;
#N canvas 496 184 450 300 sends 0;
#X obj 39 23 inlet;
#X obj 39 65 unpack f f f f f f;
#X msg 187 34 \$1 \$1 \$1 \$1 \$1 \$1;
#X obj 187 12 r \$0-lpf-all;
#X obj 39 87 s \$0-lpf-6-in;
#X obj 60 107 s \$0-lpf-5-in;
#X obj 81 127 s \$0-lpf-4-in;
#X obj 102 147 s \$0-lpf-3-in;
#X obj 123 167 s \$0-lpf-2-in;
#X obj 144 187 s \$0-lpf-1-in;
#X connect 0 0 1 0;
#X connect 1 0 4 0;
#X connect 1 1 5 0;
#X connect 1 2 6 0;
#X connect 1 3 7 0;
#X connect 1 4 8 0;
#X connect 1 5 9 0;
#X connect 2 0 1 0;
#X connect 3 0 2 0;
#X restore 309 -45 pd sends;
#N canvas 496 184 450 300 sends 0;
#X obj 39 23 inlet;
#X obj 39 65 unpack f f f f f f;
#X msg 187 34 \$1 \$1 \$1 \$1 \$1 \$1;
#X obj 187 12 r \$0-dw-all;
#X obj 39 87 s \$0-dw-6-in;
#X obj 60 107 s \$0-dw-5-in;
#X obj 81 127 s \$0-dw-4-in;
#X obj 102 147 s \$0-dw-3-in;
#X obj 123 167 s \$0-dw-2-in;
#X obj 144 187 s \$0-dw-1-in;
#X connect 0 0 1 0;
#X connect 1 0 4 0;
#X connect 1 1 5 0;
#X connect 1 2 6 0;
#X connect 1 3 7 0;
#X connect 1 4 8 0;
#X connect 1 5 9 0;
#X connect 2 0 1 0;
#X connect 3 0 2 0;
#X restore 439 -45 pd sends;
#X obj 468 -75 inlet drywets;
#X obj 64 66 hsl 27 15 0 1 0 0 \$0-dw-6 \$0-dw-6-in dry/wet -50 7 0
10 -262144 -1 -1 1200 1;
#X obj 99 66 hsl 27 15 0 1 0 0 \$0-dw-5 \$0-dw-5-in empty -2 -8 0 10
-262144 -1 -1 1200 1;
#X obj 134 66 hsl 27 15 0 1 0 0 \$0-dw-4 \$0-dw-4-in empty -2 -8 0
10 -262144 -1 -1 1200 1;
#X obj 169 66 hsl 27 15 0 1 0 0 \$0-dw-3 \$0-dw-3-in empty -2 -8 0
10 -262144 -1 -1 1200 1;
#X obj 205 66 hsl 27 15 0 1 0 0 \$0-dw-2 \$0-dw-2-in empty -2 -8 0
10 -262144 -1 -1 1200 1;
#X obj 240 66 hsl 27 15 0 1 0 0 \$0-dw-1 \$0-dw-1-in empty -2 -8 0
10 -262144 -1 -1 1200 1;
#X obj 282 66 hsl 27 15 0 1 0 0 \$0-dw-all \$0-dw-all-in empty -2 -8
0 10 -262144 -1 -1 1200 1;
#X obj 304 9 cnv 5 5 5 empty empty DWs 0 0 0 8 -262144 -66577 0;
#X obj 369 22 loadbang;
#X obj 369 66 s \$0-dw-all-in;
#X text 234 92 HEX_OCTAFUZZ;
#X obj 168 -74 inlet wtfs;
#X obj 338 -75 inlet lpfs;
#X obj 150 -96 r \$1-octafuzz-wtf-in;
#X obj 309 -99 r \$1-octafuzz-lpf-in;
#X obj 439 -99 r \$1-octafuzz-drywets-in;
#X obj 337 145 s \$1-octafuzz-wtf-out;
#X obj 337 165 s \$1-octafuzz-lpf-out;
#X obj 337 185 s \$1-octafuzz-drywets-out;
#X msg 369 44 1;
#X connect 9 0 22 0;
#X connect 9 1 23 0;
#X connect 9 2 24 0;
#X connect 9 3 25 0;
#X connect 9 4 26 0;
#X connect 9 5 27 0;
#X connect 16 0 9 0;
#X connect 17 0 9 1;
#X connect 18 0 9 2;
#X connect 19 0 9 3;
#X connect 20 0 9 4;
#X connect 21 0 9 5;
#X connect 38 0 9 6;
#X connect 38 0 60 0;
#X connect 39 0 9 7;
#X connect 39 0 61 0;
#X connect 40 0 9 8;
#X connect 40 0 62 0;
#X connect 43 0 42 0;
#X connect 52 0 63 0;
#X connect 55 0 37 0;
#X connect 56 0 41 0;
#X connect 57 0 37 0;
#X connect 58 0 41 0;
#X connect 59 0 42 0;
#X connect 63 0 53 0;
#X coords -1 -1 500 1 320 120 2 0 0;
