#N canvas 307 131 714 784 10;
#X obj 23 316 fexpr~ fmod($y+$x \, 1);
#X obj 23 297 *~;
#X obj 23 278 expr~ if($v1<0 \, $v1+1 \, $v1);
#X obj 23 220 hilbert~;
#X obj 23 335 -~ 0.25;
#X obj 23 354 cos~;
#X floatatom 322 367 5 0 0 0 - - -, f 5;
#X obj 23 240 expr~ atan2($v2 \, $v1)/2.0/3.1415926;
#X obj 23 259 rzero~ 1;
#X floatatom 257 232 5 0 0 0 - - -, f 5;
#X obj 257 284 sig~ 1;
#X obj 23 382 lop~ 100;
#X obj 23 530 outlet~;
#X obj 24 17 inlet~;
#X obj 257 183 inlet wtf;
#X obj 322 328 inlet lpf;
#X obj 257 207 utils-line;
#X obj 322 347 utils-line;
#X connect 0 0 4 0;
#X connect 1 0 0 0;
#X connect 2 0 1 0;
#X connect 3 0 7 0;
#X connect 3 1 7 1;
#X connect 4 0 5 0;
#X connect 5 0 11 0;
#X connect 6 0 11 1;
#X connect 7 0 8 0;
#X connect 8 0 2 0;
#X connect 9 0 10 0;
#X connect 10 0 1 1;
#X connect 11 0 12 0;
#X connect 13 0 3 0;
#X connect 14 0 16 0;
#X connect 15 0 17 0;
#X connect 16 0 9 0;
#X connect 17 0 6 0;
