#N canvas 0 22 1280 681 10;
#N canvas 0 0 1280 800 hex-processing 0;
#X obj 22 93 inlet~;
#X obj 97 93 inlet~;
#X obj 172 93 inlet~;
#X obj 247 96 inlet~;
#X obj 323 94 inlet~;
#X obj 399 89 inlet~;
#X obj 22 193 outlet~;
#X obj 97 193 outlet~;
#X obj 172 194 outlet~;
#X obj 247 195 outlet~;
#X obj 323 195 outlet~;
#X obj 399 196 outlet~;
#X obj 22 136 fx-phaser~;
#X obj 97 136 fx-phaser~;
#X obj 172 136 fx-phaser~;
#X obj 247 136 fx-phaser~;
#X obj 323 136 fx-phaser~;
#X obj 399 136 fx-phaser~;
#X obj 536 79 inlet speed;
#X obj 536 100 unpack f f f f f f;
#X obj 671 97 unpack f f f f f f;
#X obj 671 76 inlet depth;
#X obj 802 96 unpack f f f f f f;
#X obj 802 75 inlet feedback;
#X obj 932 95 unpack f f f f f f;
#X obj 932 74 inlet drywet;
#X connect 0 0 12 0;
#X connect 1 0 13 0;
#X connect 2 0 14 0;
#X connect 3 0 15 0;
#X connect 4 0 16 0;
#X connect 5 0 17 0;
#X connect 12 0 6 0;
#X connect 13 0 7 0;
#X connect 14 0 8 0;
#X connect 15 0 9 0;
#X connect 16 0 10 0;
#X connect 17 0 11 0;
#X connect 18 0 19 0;
#X connect 19 0 12 1;
#X connect 19 1 13 1;
#X connect 19 2 14 1;
#X connect 19 3 15 1;
#X connect 19 4 16 1;
#X connect 19 5 17 1;
#X connect 20 0 12 2;
#X connect 20 1 13 2;
#X connect 20 2 14 2;
#X connect 20 3 15 2;
#X connect 20 4 16 2;
#X connect 20 5 17 2;
#X connect 21 0 20 0;
#X connect 22 0 12 3;
#X connect 22 1 13 3;
#X connect 22 2 14 3;
#X connect 22 3 15 3;
#X connect 22 4 16 3;
#X connect 22 5 17 3;
#X connect 23 0 22 0;
#X connect 24 0 12 4;
#X connect 24 1 13 4;
#X connect 24 2 14 4;
#X connect 24 3 15 4;
#X connect 24 4 16 4;
#X connect 24 5 17 4;
#X connect 25 0 24 0;
#X restore 154 350 pd hex-processing;
#X obj -3 277 inlet~;
#X obj 50 277 inlet~;
#X obj 108 279 inlet~;
#X obj 169 277 inlet~;
#X obj 228 280 inlet~;
#X obj 291 283 inlet~;
#X obj 154 384 outlet~;
#X obj 179 416 outlet~;
#X obj 206 450 outlet~;
#X obj 232 472 outlet~;
#X obj 257 494 outlet~;
#X obj 283 516 outlet~;
#N canvas 0 22 450 300 receives 0;
#X obj 150 139 pack f f f f f f;
#X obj 230 110 t b f;
#X obj 220 60 t b f;
#X obj 200 10 t b f;
#X obj 190 -40 t b f;
#X obj 160 -90 t b f;
#X obj 150 161 outlet;
#X obj 150 -142 r \$0-phaser-speed-6;
#X obj 160 -112 r \$0-phaser-speed-5;
#X obj 190 -60 r \$0-phaser-speed-4;
#X obj 200 -11 r \$0-phaser-speed-3;
#X obj 220 38 r \$0-phaser-speed-2;
#X obj 230 88 r \$0-phaser-speed-1;
#X connect 0 0 6 0;
#X connect 1 0 0 0;
#X connect 1 1 0 5;
#X connect 2 0 0 0;
#X connect 2 1 0 4;
#X connect 3 0 0 0;
#X connect 3 1 0 3;
#X connect 4 0 0 0;
#X connect 4 1 0 2;
#X connect 5 0 0 0;
#X connect 5 1 0 1;
#X connect 7 0 0 0;
#X connect 8 0 5 0;
#X connect 9 0 4 0;
#X connect 10 0 3 0;
#X connect 11 0 2 0;
#X connect 12 0 1 0;
#X restore 360 254 pd receives;
#N canvas 0 22 450 300 receives 0;
#X obj 145 169 pack f f f f f f;
#X obj 225 140 t b f;
#X obj 215 90 t b f;
#X obj 195 40 t b f;
#X obj 185 -10 t b f;
#X obj 155 -60 t b f;
#X obj 145 191 outlet;
#X obj 145 -112 r \$0-phaser-depth-6;
#X obj 155 -82 r \$0-phaser-depth-5;
#X obj 185 -30 r \$0-phaser-depth-4;
#X obj 195 19 r \$0-phaser-depth-3;
#X obj 215 68 r \$0-phaser-depth-2;
#X obj 225 118 r \$0-phaser-depth-1;
#X connect 0 0 6 0;
#X connect 1 0 0 0;
#X connect 1 1 0 5;
#X connect 2 0 0 0;
#X connect 2 1 0 4;
#X connect 3 0 0 0;
#X connect 3 1 0 3;
#X connect 4 0 0 0;
#X connect 4 1 0 2;
#X connect 5 0 0 0;
#X connect 5 1 0 1;
#X connect 7 0 0 0;
#X connect 8 0 5 0;
#X connect 9 0 4 0;
#X connect 10 0 3 0;
#X connect 11 0 2 0;
#X connect 12 0 1 0;
#X restore 360 273 pd receives;
#N canvas 0 22 450 300 receives 0;
#X obj 161 155 pack f f f f f f;
#X obj 241 126 t b f;
#X obj 231 76 t b f;
#X obj 211 26 t b f;
#X obj 201 -24 t b f;
#X obj 171 -74 t b f;
#X obj 161 177 outlet;
#X obj 161 -126 r \$0-phaser-feedback-6;
#X obj 171 -96 r \$0-phaser-feedback-5;
#X obj 201 -44 r \$0-phaser-feedback-4;
#X obj 211 5 r \$0-phaser-feedback-3;
#X obj 231 54 r \$0-phaser-feedback-2;
#X obj 241 104 r \$0-phaser-feedback-1;
#X connect 0 0 6 0;
#X connect 1 0 0 0;
#X connect 1 1 0 5;
#X connect 2 0 0 0;
#X connect 2 1 0 4;
#X connect 3 0 0 0;
#X connect 3 1 0 3;
#X connect 4 0 0 0;
#X connect 4 1 0 2;
#X connect 5 0 0 0;
#X connect 5 1 0 1;
#X connect 7 0 0 0;
#X connect 8 0 5 0;
#X connect 9 0 4 0;
#X connect 10 0 3 0;
#X connect 11 0 2 0;
#X connect 12 0 1 0;
#X restore 361 291 pd receives;
#N canvas 678 89 450 323 receives 0;
#X obj 172 196 pack f f f f f f;
#X obj 252 167 t b f;
#X obj 242 117 t b f;
#X obj 222 67 t b f;
#X obj 212 17 t b f;
#X obj 182 -33 t b f;
#X obj 172 218 outlet;
#X obj 172 -85 r \$0-phaser-dw-6;
#X obj 182 -55 r \$0-phaser-dw-5;
#X obj 212 -3 r \$0-phaser-dw-4;
#X obj 222 47 r \$0-phaser-dw-3;
#X obj 243 95 r \$0-phaser-dw-2;
#X obj 252 146 r \$0-phaser-dw-1;
#X connect 0 0 6 0;
#X connect 1 0 0 0;
#X connect 1 1 0 5;
#X connect 2 0 0 0;
#X connect 2 1 0 4;
#X connect 3 0 0 0;
#X connect 3 1 0 3;
#X connect 4 0 0 0;
#X connect 4 1 0 2;
#X connect 5 0 0 0;
#X connect 5 1 0 1;
#X connect 7 0 0 0;
#X connect 8 0 5 0;
#X connect 9 0 4 0;
#X connect 10 0 3 0;
#X connect 11 0 2 0;
#X connect 12 0 1 0;
#X restore 362 309 pd receives;
#X obj 464 271 s \$1-phaser-speed-out;
#X obj 464 290 s \$1-phaser-depth-out;
#X obj 464 309 s \$1-phaser-feedback-out;
#X obj 464 328 s \$1-phaser-drywet-out;
#X obj 577 137 loadbang;
#X msg 577 159 0.5;
#X obj 577 181 s \$0-phaser-drywet-all-in;
#N canvas 0 22 1280 681 sends 0;
#X obj 73 55 inlet;
#X msg 221 59 \$1 \$1 \$1 \$1 \$1 \$1;
#X obj 73 90 unpack f f f f f f f;
#X obj 221 37 r \$0-phaser-speed-all;
#X obj 73 133 s \$0-phaser-speed-6-in;
#X obj 93 159 s \$0-phaser-speed-5-in;
#X obj 113 182 s \$0-phaser-speed-4-in;
#X obj 133 208 s \$0-phaser-speed-3-in;
#X obj 148 233 s \$0-phaser-speed-2-in;
#X obj 170 271 s \$0-phaser-speed-1-in;
#X obj 189 308 s \$0-phaser-speed-all-in;
#X connect 0 0 2 0;
#X connect 1 0 2 0;
#X connect 2 0 4 0;
#X connect 2 1 5 0;
#X connect 2 2 6 0;
#X connect 2 3 7 0;
#X connect 2 4 8 0;
#X connect 2 5 9 0;
#X connect 2 6 10 0;
#X connect 3 0 1 0;
#X restore 430 19 pd sends;
#N canvas 611 70 450 515 sends 0;
#X obj 75 33 inlet;
#X msg 223 44 \$1 \$1 \$1 \$1 \$1 \$1;
#X obj 75 75 unpack f f f f f f f;
#X obj 223 22 r \$0-phaser-depth-all;
#X obj 74 97 s \$0-phaser-depth-6-in;
#X obj 96 117 s \$0-phaser-depth-5-in;
#X obj 117 137 s \$0-phaser-depth-4-in;
#X obj 138 157 s \$0-phaser-depth-3-in;
#X obj 159 177 s \$0-phaser-depth-2-in;
#X obj 180 198 s \$0-phaser-depth-1-in;
#X obj 201 220 s \$0-phaser-depth-all-in;
#X connect 0 0 2 0;
#X connect 1 0 2 0;
#X connect 2 0 4 0;
#X connect 2 1 5 0;
#X connect 2 2 6 0;
#X connect 2 3 7 0;
#X connect 2 4 8 0;
#X connect 2 5 9 0;
#X connect 2 6 10 0;
#X connect 3 0 1 0;
#X restore 600 26 pd sends;
#N canvas 415 22 450 300 sends 0;
#X obj 80 52 inlet;
#X msg 228 63 \$1 \$1 \$1 \$1 \$1 \$1;
#X obj 80 94 unpack f f f f f f f;
#X obj 228 41 r \$0-phaser-feedback-all;
#X obj 80 116 s \$0-phaser-feedback-6-in;
#X obj 100 136 s \$0-phaser-feedback-5-in;
#X obj 122 156 s \$0-phaser-feedback-4-in;
#X obj 143 176 s \$0-phaser-feedback-3-in;
#X obj 164 196 s \$0-phaser-feedback-2-in;
#X obj 185 216 s \$0-phaser-feedback-1-in;
#X obj 196 239 s \$0-phaser-feedback-all-in;
#X connect 0 0 2 0;
#X connect 1 0 2 0;
#X connect 2 0 4 0;
#X connect 2 1 5 0;
#X connect 2 2 6 0;
#X connect 2 3 7 0;
#X connect 2 4 8 0;
#X connect 2 5 9 0;
#X connect 2 6 10 0;
#X connect 3 0 1 0;
#X restore 779 36 pd sends;
#N canvas 690 254 450 346 sends 0;
#X obj 80 52 inlet;
#X msg 228 63 \$1 \$1 \$1 \$1 \$1 \$1;
#X obj 80 94 unpack f f f f f f f;
#X obj 228 41 r \$0-phaser-drywet-all;
#X obj 80 116 s \$0-phaser-drywet-6-in;
#X obj 101 136 s \$0-phaser-drywet-5-in;
#X obj 122 156 s \$0-phaser-drywet-4-in;
#X obj 142 176 s \$0-phaser-drywet-3-in;
#X obj 164 196 s \$0-phaser-drywet-2-in;
#X obj 184 216 s \$0-phaser-drywet-1-in;
#X obj 205 236 s \$0-phaser-drywet-all-in;
#X connect 0 0 2 0;
#X connect 1 0 2 0;
#X connect 2 0 4 0;
#X connect 2 1 5 0;
#X connect 2 2 6 0;
#X connect 2 3 7 0;
#X connect 2 4 8 0;
#X connect 2 5 9 0;
#X connect 2 6 10 0;
#X connect 3 0 1 0;
#X restore 954 41 pd sends;
#X obj 970 3 inlet drywets;
#X obj 430 -39 r \$1-phaser-speeds-in;
#X obj 600 -40 r \$1-phaser-depths-in;
#X obj 779 -39 r \$1-phaser-feedbacks-in;
#X obj 954 -41 r \$1-phaser-drywets-sin;
#X obj 470 -7 inlet speeds;
#X obj 623 -8 inlet depths;
#X obj 808 1 inlet feedbacks;
#X obj 10 12 cnv 5 5 5 empty empty |-----------------INPUTS----------------|
0 0 0 8 -262144 -66577 0;
#X floatatom 315 65 5 0 3 2 - #0-phaser-depth-all-in #0-phaser-depth-all
, f 5;
#X floatatom 315 48 5 0 10 2 All #0-phaser-speed-all-in #0-phaser-speed-all
, f 5;
#X floatatom 97 48 5 0 10 0 speed #0-phaser-speed-6-in #0-phaser-speed-6
, f 5;
#X text 105 34 6;
#X text 140 34 5;
#X text 176 34 4;
#X text 209 34 3;
#X text 245 34 2;
#X text 281 33 1;
#X floatatom 97 65 5 0 3 0 depth #0-phaser-depth-6-in #0-phaser-depth-6
, f 5;
#X floatatom 132 65 5 0 3 2 - #0-phaser-depth-5-in #0-phaser-depth-5
, f 5;
#X floatatom 167 65 5 0 3 2 - #0-phaser-depth-4-in #0-phaser-depth-4
, f 5;
#X floatatom 202 65 5 0 3 2 - #0-phaser-depth-3-in #0-phaser-depth-3
, f 5;
#X floatatom 238 65 5 0 3 2 - #0-phaser-depth-2-in #0-phaser-depth-2
, f 5;
#X floatatom 273 65 5 0 3 2 - #0-phaser-depth-1-in #0-phaser-depth-1
, f 5;
#X floatatom 132 48 5 0 10 0 - #0-phaser-speed-5-in #0-phaser-speed-5
, f 5;
#X floatatom 167 48 5 0 10 0 - #0-phaser-speed-4-in #0-phaser-speed-4
, f 5;
#X floatatom 202 48 5 0 10 0 - #0-phaser-speed-3-in #0-phaser-speed-3
, f 5;
#X floatatom 238 48 5 0 10 0 - #0-phaser-speed-2-in #0-phaser-speed-2
, f 5;
#X floatatom 273 48 5 0 10 0 - #0-phaser-speed-1-in #0-phaser-speed-1
, f 5;
#X floatatom 315 82 5 -0.9 0.9 2 - #0-phaser-feedback-all-in #0-phaser-feedback-all
, f 5;
#X floatatom 97 82 5 -0.9 0.9 0 feedback #0-phaser-feedback-6-in #0-phaser-feedback-6
, f 5;
#X floatatom 132 82 5 -0.9 0.9 2 - #0-phaser-feedback-5-in #0-phaser-feedback-5
, f 5;
#X floatatom 167 82 5 -0.9 0.9 2 - #0-phaser-feedback-4-in #0-phaser-feedback-4
, f 5;
#X floatatom 202 82 5 -0.9 0.9 2 - #0-phaser-feedback-3-in #0-phaser-feedback-3
, f 5;
#X floatatom 238 82 5 -0.9 0.9 2 - #0-phaser-feedback-2-in #0-phaser-feedback-2
, f 5;
#X floatatom 273 82 5 -0.9 0.9 2 - #0-phaser-feedback-1-in #0-phaser-feedback-1
, f 5;
#X obj 98 101 hsl 27 15 0 1 0 0 \$0-phaser-dw-6 \$0-phaser-drywet-6-in
dry/wet -50 7 0 10 -262144 -1 -1 0 1;
#X obj 133 101 hsl 27 15 0 1 0 0 \$0-phaser-dw-5 \$0-phaser-drywet-5-in
empty -2 -8 0 10 -262144 -1 -1 0 1;
#X obj 168 101 hsl 27 15 0 1 0 0 \$0-phaser-dw-4 \$0-phaser-drywet-4-in
empty -2 -8 0 10 -262144 -1 -1 0 1;
#X obj 203 101 hsl 27 15 0 1 0 0 \$0-phaser-dw-3 \$0-phaser-drywet-3-in
empty -2 -8 0 10 -262144 -1 -1 0 1;
#X obj 239 101 hsl 27 15 0 1 0 0 \$0-phaser-dw-2 \$0-phaser-drywet-2-in
empty -2 -8 0 10 -262144 -1 -1 0 1;
#X obj 274 101 hsl 27 15 0 1 0 0 \$0-phaser-dw-1 \$0-phaser-drywet-1-in
empty -2 -8 0 10 -262144 -1 -1 0 1;
#X obj 316 101 hsl 27 15 0 1 0 0 \$0-phaser-drywet-all \$0-phaser-drywet-all-in
empty -2 -8 0 10 -262144 -1 -1 0 1;
#X obj 232 11 cnv 5 5 5 empty empty SPEEDs 0 0 0 8 -262144 -66577 0
;
#X obj 272 11 cnv 5 5 5 empty empty DEPTHs 0 0 0 8 -262144 -66577 0
;
#X obj 310 11 cnv 5 5 5 empty empty FEEDBACKs 0 0 0 8 -262144 -66577
0;
#X obj 359 11 cnv 5 5 5 empty empty DWs 0 0 0 8 -262144 -66577 0;
#X obj 52 142 cnv 15 249 15 empty empty |--------------------OUTPUTS--------------------|
0 10 0 8 -262144 -66577 0;
#X text 284 122 HEX_PHASER;
#X connect 0 0 7 0;
#X connect 0 1 8 0;
#X connect 0 2 9 0;
#X connect 0 3 10 0;
#X connect 0 4 11 0;
#X connect 0 5 12 0;
#X connect 1 0 0 0;
#X connect 2 0 0 1;
#X connect 3 0 0 2;
#X connect 4 0 0 3;
#X connect 5 0 0 4;
#X connect 6 0 0 5;
#X connect 13 0 0 6;
#X connect 13 0 17 0;
#X connect 14 0 0 7;
#X connect 14 0 18 0;
#X connect 15 0 0 8;
#X connect 15 0 19 0;
#X connect 16 0 0 9;
#X connect 16 0 20 0;
#X connect 21 0 22 0;
#X connect 22 0 23 0;
#X connect 28 0 27 0;
#X connect 29 0 24 0;
#X connect 30 0 25 0;
#X connect 31 0 26 0;
#X connect 32 0 27 0;
#X connect 33 0 24 0;
#X connect 34 0 25 0;
#X connect 35 0 26 0;
#X coords 0 -1 1 1 382 166 2 0 0;
