#N canvas 1280 0 1920 1057 10;
#X obj 622 161 hsl 128 15 0 10 0 0 empty empty empty -2 -8 0 10 -262144
-1 -1 0 1;
#X obj 460 268 *~ 2;
#X obj 460 288 +~ 2;
#X obj 499 310 *~ 2;
#X obj 498 333 +~ 2;
#X obj 499 266 wrap~;
#X obj 469 211 phasor~;
#X obj 498 245 +~ 0.5;
#X obj 460 245 cos~;
#X obj 499 286 cos~;
#X obj 625 258 hsl 128 15 0 3 0 0 empty empty empty -2 -8 0 10 -262144
-1 -1 0 1;
#X obj 498 382 *~ 0.8;
#X obj 460 443 *~ 0.8;
#X obj 569 470 s~ output;
#X obj 188 125 r~ output;
#X obj 654 377 hsl 128 15 -0.9 0.9 0 0 empty empty empty -2 -8 0 10
-262144 -1 -1 0 1;
#X text 387 183 <-- Write to delay lines;
#X text 583 359 <-- Read from delay line 2;
#X text 564 420 <-- Read from delay line 1;
#X text 532 211 <-- Low Frequency Oscillator (LFO);
#X floatatom 619 185 5 0 0 0 - - -, f 5;
#X floatatom 623 284 5 0 0 0 - - -, f 5;
#X floatatom 651 398 5 0 0 0 - - -, f 5;
#X text 762 157 <-- Speed (try 0.7);
#X text 767 256 <-- Depth (try 2.4);
#X text 794 377 <-- Feedback (try -0.3);
#X obj 643 89 ctlin 1;
#X obj 771 184 ctlin 8;
#X obj 643 110 / 127;
#X obj 644 132 * 10;
#X obj 771 207 / 127;
#X obj 771 229 * 3;
#X obj 822 421 / 127;
#X obj 887 415 loadbang;
#X obj 822 475 *;
#X floatatom 822 445 5 0 0 0 - - -, f 5;
#X obj 822 495 - 0.9;
#X msg 887 440 1.8;
#X obj 178 53 inlet~;
#X obj 178 75 utils-drywet;
#X obj 178 149 outlet~;
#X obj 631 24 inlet speed;
#X obj 730 24 inlet depth;
#X obj 824 24 inlet feedback;
#X obj 934 55 inlet dw;
#X obj 995 32 loadbang;
#X msg 995 53 0.5;
#X obj 995 75 hsl 27 15 0 1 0 0 empty empty empty -2 -8 0 10 -262144
-1 -1 1300 1;
#X obj 631 51 utils-line;
#X obj 730 50 utils-line;
#X obj 824 51 utils-line;
#X obj 266 154 delwrite~ \$0-phase1 100;
#X obj 246 242 delwrite~ \$0-phase2 100;
#X obj 461 420 vd~ \$0-phase1;
#X obj 498 359 vd~ \$0-phase2;
#X connect 0 0 6 0;
#X connect 0 0 20 0;
#X connect 1 0 2 0;
#X connect 2 0 53 0;
#X connect 3 0 4 0;
#X connect 4 0 54 0;
#X connect 5 0 9 0;
#X connect 6 0 7 0;
#X connect 6 0 8 0;
#X connect 7 0 5 0;
#X connect 8 0 1 0;
#X connect 9 0 3 0;
#X connect 10 0 1 1;
#X connect 10 0 3 1;
#X connect 10 0 2 1;
#X connect 10 0 4 1;
#X connect 10 0 21 0;
#X connect 11 0 52 0;
#X connect 12 0 51 0;
#X connect 14 0 40 0;
#X connect 15 0 12 1;
#X connect 15 0 11 1;
#X connect 15 0 22 0;
#X connect 26 0 28 0;
#X connect 27 0 30 0;
#X connect 28 0 29 0;
#X connect 30 0 31 0;
#X connect 32 0 35 0;
#X connect 33 0 37 0;
#X connect 34 0 36 0;
#X connect 35 0 34 0;
#X connect 37 0 34 1;
#X connect 38 0 39 0;
#X connect 39 0 40 0;
#X connect 39 1 52 0;
#X connect 39 1 51 0;
#X connect 41 0 48 0;
#X connect 42 0 49 0;
#X connect 43 0 50 0;
#X connect 44 0 47 0;
#X connect 45 0 46 0;
#X connect 46 0 47 0;
#X connect 47 0 39 1;
#X connect 48 0 0 0;
#X connect 49 0 10 0;
#X connect 50 0 15 0;
#X connect 53 0 12 0;
#X connect 53 0 13 0;
#X connect 54 0 11 0;
#X connect 54 0 13 0;
