#N canvas 552 170 728 533 10;
#X obj 136 340 outlet~;
#X obj 136 314 fx-tremolo~;
#X floatatom 184 96 5 0.5 25 0 rate - -, f 5;
#X floatatom 183 115 5 1 20 0 shape - -, f 5;
#X floatatom 183 134 5 0 0.5 0 depth - -, f 5;
#X obj 296 117 loadbang;
#X msg 296 137 0.5;
#X obj 183 156 hsl 27 15 0 1 0 0 empty empty dry/wet -50 7 0 10 -262144
-1 -1 1300 1;
#X obj 117 -53 r \$1-rate-in;
#X obj 126 -31 inlet rate;
#X obj 212 -43 r \$1-shape-in;
#X obj 216 -22 inlet shape;
#X obj 334 -43 r \$1-depth-in;
#X obj 335 -20 inlet depth;
#X obj 78 273 inlet~;
#N canvas 521 306 450 323 control 0;
#X floatatom 118 148 5 0 0 0 - - -, f 5;
#X obj 118 169 / 127;
#X floatatom 118 190 5 0 0 0 - - -, f 5;
#X obj 118 241 *;
#X floatatom 118 284 5 0 0 0 - - -, f 5;
#X msg 133 218 24.5;
#X obj 118 263 + 0.5;
#X obj 177 183 loadbang;
#X floatatom 291 154 5 0 0 0 - - -, f 5;
#X obj 291 175 / 127;
#X floatatom 291 196 5 0 0 0 - - -, f 5;
#X obj 291 247 *;
#X floatatom 291 290 5 0 0 0 - - -, f 5;
#X obj 350 189 loadbang;
#X msg 306 224 19;
#X obj 291 269 + 1;
#X floatatom 479 154 5 0 0 0 - - -, f 5;
#X obj 479 175 / 127;
#X floatatom 479 196 5 0 0 0 - - -, f 5;
#X obj 479 247 *;
#X floatatom 479 290 5 0 0 0 - - -, f 5;
#X obj 538 189 loadbang;
#X msg 494 224 0.5;
#X floatatom 630 158 5 0 0 0 - - -, f 5;
#X obj 630 179 / 127;
#X floatatom 630 200 5 0 0 0 - - -, f 5;
#X text 117 89 rate;
#X text 294 102 shape;
#X text 479 102 depth;
#X text 636 103 dry/wet;
#X obj 118 126 inlet rate;
#X obj 291 132 inlet shape;
#X obj 479 131 inlet depth;
#X obj 630 133 inlet dw;
#X obj 118 307 outlet rate;
#X obj 291 312 outlet shape;
#X obj 479 313 outlet depth;
#X obj 631 226 outlet dw;
#X connect 0 0 1 0;
#X connect 1 0 2 0;
#X connect 2 0 3 0;
#X connect 3 0 6 0;
#X connect 4 0 34 0;
#X connect 5 0 3 1;
#X connect 6 0 4 0;
#X connect 7 0 5 0;
#X connect 8 0 9 0;
#X connect 9 0 10 0;
#X connect 10 0 11 0;
#X connect 11 0 15 0;
#X connect 12 0 35 0;
#X connect 13 0 14 0;
#X connect 14 0 11 1;
#X connect 15 0 12 0;
#X connect 16 0 17 0;
#X connect 17 0 18 0;
#X connect 18 0 19 0;
#X connect 19 0 20 0;
#X connect 20 0 36 0;
#X connect 21 0 22 0;
#X connect 22 0 19 1;
#X connect 23 0 24 0;
#X connect 24 0 25 0;
#X connect 25 0 37 0;
#X connect 30 0 0 0;
#X connect 31 0 8 0;
#X connect 32 0 16 0;
#X connect 33 0 23 0;
#X restore 42 26 pd control;
#X obj 451 -40 r \$1-dw-in;
#X obj 452 -17 inlet dw;
#X text 152 178 MONO_TREMOLO;
#X obj 74 79 cnv 5 10 4 empty empty INPUT 0 0 0 8 -262144 -66577 0
;
#X obj 106 79 cnv 5 10 4 empty empty RATE 0 0 0 8 -262144 -66577 0
;
#X obj 143 79 cnv 5 10 4 empty empty SHAPE 0 0 0 8 -262144 -66577 0
;
#X obj 182 79 cnv 5 10 4 empty empty DEPTH 0 0 0 8 -262144 -66577 0
;
#X obj 226 79 cnv 5 10 4 empty empty DW 0 0 0 8 -262144 -66577 0;
#X connect 1 0 0 0;
#X connect 2 0 1 1;
#X connect 3 0 1 2;
#X connect 4 0 1 3;
#X connect 5 0 6 0;
#X connect 6 0 7 0;
#X connect 7 0 1 4;
#X connect 8 0 15 0;
#X connect 9 0 15 0;
#X connect 10 0 15 1;
#X connect 11 0 15 1;
#X connect 12 0 15 2;
#X connect 13 0 15 2;
#X connect 14 0 1 0;
#X connect 15 0 2 0;
#X connect 15 1 3 0;
#X connect 15 2 4 0;
#X connect 15 3 7 0;
#X connect 16 0 15 3;
#X connect 17 0 15 3;
#X coords 0 -1 1 1 170 130 2 70 70;
