#N canvas 573 44 535 681 10;
#X obj 157 223 clip~ -1 1;
#X text 155 136 Frequency of the oscillator;
#X text 256 197 Number X (between 1 and 20 \, log);
#X text 192 197 ("Shape");
#X obj 157 198 *~ 9;
#X obj 157 163 osc~ 6;
#X obj 157 250 *~ 0.297;
#X text 215 249 "Depth" 0-0.5;
#X text 357 282 expr 1-$f1;
#X text 324 136 ("Rate") 0.5-25;
#X obj 142 335 outlet~;
#X floatatom 115 106 5 0 0 0 - - -, f 5;
#X floatatom 200 102 5 0 0 0 - - -, f 5;
#X floatatom 294 103 5 0 0 0 - - -, f 5;
#X obj 266 296 expr 1-$f1;
#X floatatom 266 318 5 0 0 0 - - -, f 5;
#X obj 157 279 +~;
#X obj 24 107 inlet~;
#X obj 115 65 inlet rate;
#X obj 200 61 inlet shape;
#X obj 294 60 inlet depth;
#X obj 373 66 inlet dw;
#X obj 434 43 loadbang;
#X msg 434 64 0.5;
#X obj 434 86 hsl 27 15 0 1 0 0 empty empty empty -2 -8 0 10 -262144
-1 -1 1300 1;
#X obj 24 132 utils-drywet;
#X obj 142 303 *~;
#X obj 115 86 utils-line;
#X obj 200 82 utils-line;
#X obj 294 82 utils-line;
#X connect 0 0 6 0;
#X connect 4 0 0 0;
#X connect 5 0 4 0;
#X connect 6 0 16 0;
#X connect 11 0 5 0;
#X connect 12 0 4 1;
#X connect 13 0 6 1;
#X connect 13 0 14 0;
#X connect 14 0 15 0;
#X connect 14 0 16 1;
#X connect 16 0 26 1;
#X connect 17 0 25 0;
#X connect 18 0 27 0;
#X connect 19 0 28 0;
#X connect 20 0 29 0;
#X connect 21 0 24 0;
#X connect 22 0 23 0;
#X connect 23 0 24 0;
#X connect 24 0 25 1;
#X connect 25 0 10 0;
#X connect 25 1 26 0;
#X connect 26 0 10 0;
#X connect 27 0 11 0;
#X connect 28 0 12 0;
#X connect 29 0 13 0;
