#N canvas 2030 216 752 704 10;
#N canvas 0 22 1280 704 hex-processing 0;
#X obj 25 157 fx-tremolo~;
#X obj 100 157 fx-tremolo~;
#X obj 175 157 fx-tremolo~;
#X obj 250 157 fx-tremolo~;
#X obj 402 157 fx-tremolo~;
#X obj 326 157 fx-tremolo~;
#X obj 25 114 inlet~;
#X obj 100 114 inlet~;
#X obj 175 114 inlet~;
#X obj 250 117 inlet~;
#X obj 326 115 inlet~;
#X obj 402 110 inlet~;
#X obj 25 214 outlet~;
#X obj 100 214 outlet~;
#X obj 175 215 outlet~;
#X obj 250 216 outlet~;
#X obj 326 216 outlet~;
#X obj 402 217 outlet~;
#X obj 520 99 inlet rates;
#X obj 640 98 inlet shapes;
#X obj 766 97 inlet depth;
#X obj 892 98 inlet dws;
#X obj 520 122 unpack f f f f f f;
#X obj 640 121 unpack f f f f f f;
#X obj 766 121 unpack f f f f f f;
#X obj 892 121 unpack f f f f f f;
#X connect 0 0 12 0;
#X connect 1 0 13 0;
#X connect 2 0 14 0;
#X connect 3 0 15 0;
#X connect 4 0 17 0;
#X connect 5 0 16 0;
#X connect 6 0 0 0;
#X connect 7 0 1 0;
#X connect 8 0 2 0;
#X connect 9 0 3 0;
#X connect 10 0 5 0;
#X connect 11 0 4 0;
#X connect 18 0 22 0;
#X connect 19 0 23 0;
#X connect 20 0 24 0;
#X connect 21 0 25 0;
#X connect 22 0 0 1;
#X connect 22 1 1 1;
#X connect 22 2 2 1;
#X connect 22 3 3 1;
#X connect 22 4 5 1;
#X connect 22 5 4 1;
#X connect 23 0 0 2;
#X connect 23 1 1 2;
#X connect 23 2 2 2;
#X connect 23 3 3 2;
#X connect 23 4 5 2;
#X connect 23 5 4 2;
#X connect 24 0 0 3;
#X connect 24 1 1 3;
#X connect 24 2 2 3;
#X connect 24 3 3 3;
#X connect 24 4 5 3;
#X connect 24 5 4 3;
#X connect 25 0 0 4;
#X connect 25 1 1 4;
#X connect 25 2 2 4;
#X connect 25 3 3 4;
#X connect 25 4 5 4;
#X connect 25 5 4 4;
#X restore 49 281 pd hex-processing;
#N canvas 520 120 450 346 receives 0;
#X obj 110 132 pack f f f f f f;
#X obj 190 103 t b f;
#X obj 180 53 t b f;
#X obj 160 3 t b f;
#X obj 150 -47 t b f;
#X obj 120 -97 t b f;
#X obj 110 154 outlet;
#X obj 110 -149 r \$0-tremolo-rate-6;
#X obj 120 -119 r \$0-tremolo-rate-5;
#X obj 150 -69 r \$0-tremolo-rate-4;
#X obj 160 -18 r \$0-tremolo-rate-3;
#X obj 180 31 r \$0-tremolo-rate-2;
#X obj 190 81 r \$0-tremolo-rate-1;
#X connect 0 0 6 0;
#X connect 1 0 0 0;
#X connect 1 1 0 5;
#X connect 2 0 0 0;
#X connect 2 1 0 4;
#X connect 3 0 0 0;
#X connect 3 1 0 3;
#X connect 4 0 0 0;
#X connect 4 1 0 2;
#X connect 5 0 0 0;
#X connect 5 1 0 1;
#X connect 7 0 0 0;
#X connect 8 0 5 0;
#X connect 9 0 4 0;
#X connect 10 0 3 0;
#X connect 11 0 2 0;
#X connect 12 0 1 0;
#X restore 211 190 pd receives;
#N canvas 0 22 450 300 receives 0;
#X obj 141 126 pack f f f f f f;
#X obj 221 97 t b f;
#X obj 211 47 t b f;
#X obj 191 -3 t b f;
#X obj 181 -53 t b f;
#X obj 151 -103 t b f;
#X obj 141 148 outlet;
#X obj 141 -155 r \$0-tremolo-shape-6;
#X obj 151 -125 r \$0-tremolo-shape-5;
#X obj 181 -75 r \$0-tremolo-shape-4;
#X obj 191 -24 r \$0-tremolo-shape-3;
#X obj 211 25 r \$0-tremolo-shape-2;
#X obj 221 75 r \$0-tremolo-shape-1;
#X connect 0 0 6 0;
#X connect 1 0 0 0;
#X connect 1 1 0 5;
#X connect 2 0 0 0;
#X connect 2 1 0 4;
#X connect 3 0 0 0;
#X connect 3 1 0 3;
#X connect 4 0 0 0;
#X connect 4 1 0 2;
#X connect 5 0 0 0;
#X connect 5 1 0 1;
#X connect 7 0 0 0;
#X connect 8 0 5 0;
#X connect 9 0 4 0;
#X connect 10 0 3 0;
#X connect 11 0 2 0;
#X connect 12 0 1 0;
#X restore 211 211 pd receives;
#N canvas 0 22 450 300 receives 0;
#X obj 152 169 pack f f f f f f;
#X obj 232 140 t b f;
#X obj 222 90 t b f;
#X obj 202 40 t b f;
#X obj 192 -10 t b f;
#X obj 162 -60 t b f;
#X obj 152 191 outlet;
#X obj 152 -112 r \$0-tremolo-depth-6;
#X obj 162 -82 r \$0-tremolo-depth-5;
#X obj 192 -32 r \$0-tremolo-depth-4;
#X obj 202 19 r \$0-tremolo-depth-3;
#X obj 222 68 r \$0-tremolo-depth-2;
#X obj 232 118 r \$0-tremolo-depth-1;
#X connect 0 0 6 0;
#X connect 1 0 0 0;
#X connect 1 1 0 5;
#X connect 2 0 0 0;
#X connect 2 1 0 4;
#X connect 3 0 0 0;
#X connect 3 1 0 3;
#X connect 4 0 0 0;
#X connect 4 1 0 2;
#X connect 5 0 0 0;
#X connect 5 1 0 1;
#X connect 7 0 0 0;
#X connect 8 0 5 0;
#X connect 9 0 4 0;
#X connect 10 0 3 0;
#X connect 11 0 2 0;
#X connect 12 0 1 0;
#X restore 212 233 pd receives;
#N canvas 719 150 450 346 receives 0;
#X obj 134 159 pack f f f f f f;
#X obj 214 130 t b f;
#X obj 204 80 t b f;
#X obj 184 30 t b f;
#X obj 174 -20 t b f;
#X obj 144 -70 t b f;
#X obj 134 181 outlet;
#X obj 135 -122 r \$0-tremolo-dw-6;
#X obj 144 -92 r \$0-tremolo-dw-5;
#X obj 174 -42 r \$0-tremolo-dw-4;
#X obj 184 9 r \$0-tremolo-dw-3;
#X obj 204 58 r \$0-tremolo-dw-2;
#X obj 214 108 r \$0-tremolo-dw-1;
#X connect 0 0 6 0;
#X connect 1 0 0 0;
#X connect 1 1 0 5;
#X connect 2 0 0 0;
#X connect 2 1 0 4;
#X connect 3 0 0 0;
#X connect 3 1 0 3;
#X connect 4 0 0 0;
#X connect 4 1 0 2;
#X connect 5 0 0 0;
#X connect 5 1 0 1;
#X connect 7 0 0 0;
#X connect 8 0 5 0;
#X connect 9 0 4 0;
#X connect 10 0 3 0;
#X connect 11 0 2 0;
#X connect 12 0 1 0;
#X restore 211 255 pd receives;
#X obj 312 209 s \$1-tremolo-rate-out;
#X obj 313 231 s \$1-tremolo-shape-out;
#X obj 312 252 s \$1-tremolo-depth-out;
#X obj 311 272 s \$1-tremolo-drywet-out;
#X obj 49 311 outlet~;
#X obj 74 342 outlet~;
#X obj 99 367 outlet~;
#X obj 126 397 outlet~;
#X obj 151 425 outlet~;
#X obj 177 452 outlet~;
#X text 273 112 HEX_TREMOLO;
#X obj 3 7 cnv 5 5 5 empty empty |-----------------INPUTS----------------|
0 0 0 8 -262144 -66577 0;
#N canvas 0 22 1280 681 sends 0;
#X obj 72 117 inlet;
#X msg 138 121 \$1 \$1 \$1 \$1 \$1 \$1;
#X obj 138 99 r \$0-tremolo-rate-all;
#X obj 72 157 unpack f f f f f f f;
#X floatatom 325 204 5 0 0 0 - - -, f 5;
#X obj 325 225 / 127;
#X floatatom 325 246 5 0 0 0 - - -, f 5;
#X obj 325 297 *;
#X floatatom 325 340 5 0 0 0 - - -, f 5;
#X msg 340 274 24.5;
#X obj 325 319 + 0.5;
#X obj 392 246 loadbang;
#X floatatom 503 205 5 0 0 0 - - -, f 5;
#X obj 503 226 / 127;
#X floatatom 503 247 5 0 0 0 - - -, f 5;
#X obj 503 298 *;
#X floatatom 503 341 5 0 0 0 - - -, f 5;
#X msg 518 275 24.5;
#X obj 503 320 + 0.5;
#X obj 562 240 loadbang;
#X floatatom 675 212 5 0 0 0 - - -, f 5;
#X obj 675 233 / 127;
#X floatatom 675 254 5 0 0 0 - - -, f 5;
#X obj 675 305 *;
#X floatatom 675 348 5 0 0 0 - - -, f 5;
#X msg 690 282 24.5;
#X obj 675 327 + 0.5;
#X obj 734 247 loadbang;
#X floatatom 845 216 5 0 0 0 - - -, f 5;
#X obj 845 237 / 127;
#X floatatom 845 258 5 0 0 0 - - -, f 5;
#X obj 845 309 *;
#X floatatom 845 352 5 0 0 0 - - -, f 5;
#X msg 860 286 24.5;
#X obj 845 331 + 0.5;
#X obj 904 251 loadbang;
#X floatatom 998 217 5 0 0 0 - - -, f 5;
#X obj 998 238 / 127;
#X floatatom 998 259 5 0 0 0 - - -, f 5;
#X obj 998 310 *;
#X floatatom 998 353 5 0 0 0 - - -, f 5;
#X msg 1013 287 24.5;
#X obj 998 332 + 0.5;
#X obj 1057 252 loadbang;
#X floatatom 1158 220 5 0 0 0 - - -, f 5;
#X obj 1158 241 / 127;
#X floatatom 1158 262 5 0 0 0 - - -, f 5;
#X obj 1158 313 *;
#X floatatom 1158 356 5 0 0 0 - - -, f 5;
#X msg 1173 290 24.5;
#X obj 1158 335 + 0.5;
#X obj 1217 255 loadbang;
#X floatatom 1342 229 5 0 0 0 - - -, f 5;
#X obj 1342 250 / 127;
#X floatatom 1342 271 5 0 0 0 - - -, f 5;
#X obj 1342 322 *;
#X floatatom 1342 365 5 0 0 0 - - -, f 5;
#X msg 1357 299 24.5;
#X obj 1342 344 + 0.5;
#X obj 1401 264 loadbang;
#X obj 325 365 s \$0-tremolo-rate-6-in;
#X obj 503 362 s \$0-tremolo-rate-5-in;
#X obj 675 371 s \$0-tremolo-rate-4-in;
#X obj 845 376 s \$0-tremolo-rate-3-in;
#X obj 998 375 s \$0-tremolo-rate-2-in;
#X obj 1158 377 s \$0-tremolo-rate-1-in;
#X obj 1342 388 s \$0-tremolo-rate-all-in;
#X obj 80 289 s \$0-tremo-rate-6-in;
#X obj 100 314 s \$0-tremo-rate-5-in;
#X obj 120 338 s \$0-tremo-rate-4-in;
#X obj 140 364 s \$0-tremo-rate-3-in;
#X obj 156 389 s \$0-tremo-rate-2-in;
#X obj 177 427 s \$0-tremo-rate-1-in;
#X obj 196 464 s \$0-tremo-rate-all-in;
#X obj 326 175 r \$0-tremo-rate-6-in;
#X obj 503 179 r \$0-tremo-rate-5-in;
#X obj 675 186 r \$0-tremo-rate-4-in;
#X obj 844 189 r \$0-tremo-rate-3-in;
#X obj 999 193 r \$0-tremo-rate-2-in;
#X obj 1158 197 r \$0-tremo-rate-1-in;
#X obj 1342 203 r \$0-tremo-rate-all-in;
#X connect 0 0 3 0;
#X connect 1 0 3 0;
#X connect 2 0 1 0;
#X connect 3 0 67 0;
#X connect 3 1 68 0;
#X connect 3 2 69 0;
#X connect 3 3 70 0;
#X connect 3 4 71 0;
#X connect 3 5 72 0;
#X connect 3 6 73 0;
#X connect 4 0 5 0;
#X connect 5 0 6 0;
#X connect 6 0 7 0;
#X connect 7 0 10 0;
#X connect 8 0 60 0;
#X connect 9 0 7 1;
#X connect 10 0 8 0;
#X connect 11 0 9 0;
#X connect 12 0 13 0;
#X connect 13 0 14 0;
#X connect 14 0 15 0;
#X connect 15 0 18 0;
#X connect 16 0 61 0;
#X connect 17 0 15 1;
#X connect 18 0 16 0;
#X connect 19 0 17 0;
#X connect 20 0 21 0;
#X connect 21 0 22 0;
#X connect 22 0 23 0;
#X connect 23 0 26 0;
#X connect 24 0 62 0;
#X connect 25 0 23 1;
#X connect 26 0 24 0;
#X connect 27 0 25 0;
#X connect 28 0 29 0;
#X connect 29 0 30 0;
#X connect 30 0 31 0;
#X connect 31 0 34 0;
#X connect 32 0 63 0;
#X connect 33 0 31 1;
#X connect 34 0 32 0;
#X connect 35 0 33 0;
#X connect 36 0 37 0;
#X connect 37 0 38 0;
#X connect 38 0 39 0;
#X connect 39 0 42 0;
#X connect 40 0 64 0;
#X connect 41 0 39 1;
#X connect 42 0 40 0;
#X connect 43 0 41 0;
#X connect 44 0 45 0;
#X connect 45 0 46 0;
#X connect 46 0 47 0;
#X connect 47 0 50 0;
#X connect 48 0 65 0;
#X connect 49 0 47 1;
#X connect 50 0 48 0;
#X connect 51 0 49 0;
#X connect 52 0 53 0;
#X connect 53 0 54 0;
#X connect 54 0 55 0;
#X connect 55 0 58 0;
#X connect 56 0 66 0;
#X connect 57 0 55 1;
#X connect 58 0 56 0;
#X connect 59 0 57 0;
#X connect 74 0 4 0;
#X connect 75 0 12 0;
#X connect 76 0 20 0;
#X connect 77 0 28 0;
#X connect 78 0 36 0;
#X connect 79 0 44 0;
#X connect 80 0 52 0;
#X restore 397 66 pd sends;
#N canvas 0 22 1280 800 sends 0;
#X obj 75 33 inlet;
#X msg 223 44 \$1 \$1 \$1 \$1 \$1 \$1;
#X obj 223 22 r \$0-tremolo-shape-all;
#X obj 75 75 unpack f f f f f f f;
#X floatatom 567 151 5 0 0 0 - - -, f 5;
#X obj 567 172 / 127;
#X floatatom 567 193 5 0 0 0 - - -, f 5;
#X obj 567 244 *;
#X floatatom 567 287 5 0 0 0 - - -, f 5;
#X obj 626 186 loadbang;
#X msg 582 221 19;
#X obj 567 266 + 1;
#X floatatom 729 130 5 0 0 0 - - -, f 5;
#X obj 729 151 / 127;
#X floatatom 729 172 5 0 0 0 - - -, f 5;
#X obj 729 223 *;
#X floatatom 729 266 5 0 0 0 - - -, f 5;
#X obj 788 165 loadbang;
#X msg 744 200 19;
#X obj 729 245 + 1;
#X floatatom 887 123 5 0 0 0 - - -, f 5;
#X obj 887 144 / 127;
#X floatatom 887 165 5 0 0 0 - - -, f 5;
#X obj 887 216 *;
#X floatatom 887 259 5 0 0 0 - - -, f 5;
#X obj 946 158 loadbang;
#X msg 902 193 19;
#X obj 887 238 + 1;
#X floatatom 1059 152 5 0 0 0 - - -, f 5;
#X obj 1059 173 / 127;
#X floatatom 1059 194 5 0 0 0 - - -, f 5;
#X obj 1059 245 *;
#X floatatom 1059 288 5 0 0 0 - - -, f 5;
#X obj 1118 187 loadbang;
#X msg 1074 222 19;
#X obj 1059 267 + 1;
#X floatatom 500 396 5 0 0 0 - - -, f 5;
#X obj 500 417 / 127;
#X floatatom 500 438 5 0 0 0 - - -, f 5;
#X obj 500 489 *;
#X floatatom 500 532 5 0 0 0 - - -, f 5;
#X obj 559 431 loadbang;
#X msg 515 466 19;
#X obj 500 511 + 1;
#X floatatom 702 403 5 0 0 0 - - -, f 5;
#X obj 702 424 / 127;
#X floatatom 702 445 5 0 0 0 - - -, f 5;
#X obj 702 496 *;
#X floatatom 702 539 5 0 0 0 - - -, f 5;
#X obj 761 438 loadbang;
#X msg 717 473 19;
#X obj 702 518 + 1;
#X floatatom 847 411 5 0 0 0 - - -, f 5;
#X obj 847 432 / 127;
#X floatatom 847 453 5 0 0 0 - - -, f 5;
#X obj 847 504 *;
#X floatatom 847 547 5 0 0 0 - - -, f 5;
#X obj 906 446 loadbang;
#X msg 862 481 19;
#X obj 847 526 + 1;
#X obj 567 313 s \$0-tremolo-shape-6-in;
#X obj 730 310 s \$0-tremolo-shape-5-in;
#X obj 887 314 s \$0-tremolo-shape-4-in;
#X obj 1059 313 s \$0-tremolo-shape-3-in;
#X obj 500 566 s \$0-tremolo-shape-2-in;
#X obj 702 563 s \$0-tremolo-shape-1-in;
#X obj 847 574 s \$0-tremolo-shape-all-in;
#X obj 75 97 s \$0-tremo-shape-6-in;
#X obj 96 117 s \$0-tremo-shape-5-in;
#X obj 117 137 s \$0-tremo-shape-4-in;
#X obj 138 157 s \$0-tremo-shape-3-in;
#X obj 159 177 s \$0-tremo-shape-2-in;
#X obj 180 197 s \$0-tremo-shape-1-in;
#X obj 202 220 s \$0-tremo-shape-all-in;
#X obj 567 121 r \$0-tremo-shape-6-in;
#X obj 729 99 r \$0-tremo-shape-5-in;
#X obj 887 96 r \$0-tremo-shape-4-in;
#X obj 1060 119 r \$0-tremo-shape-3-in;
#X obj 696 338 r \$0-tremo-shape-2-in;
#X obj 717 358 r \$0-tremo-shape-1-in;
#X obj 739 381 r \$0-tremo-shape-all-in;
#X connect 0 0 3 0;
#X connect 1 0 3 0;
#X connect 2 0 1 0;
#X connect 3 0 67 0;
#X connect 3 1 68 0;
#X connect 3 2 69 0;
#X connect 3 3 70 0;
#X connect 3 4 71 0;
#X connect 3 5 72 0;
#X connect 3 6 73 0;
#X connect 4 0 5 0;
#X connect 5 0 6 0;
#X connect 6 0 7 0;
#X connect 7 0 11 0;
#X connect 8 0 60 0;
#X connect 9 0 10 0;
#X connect 10 0 7 1;
#X connect 11 0 8 0;
#X connect 12 0 13 0;
#X connect 13 0 14 0;
#X connect 14 0 15 0;
#X connect 15 0 19 0;
#X connect 16 0 61 0;
#X connect 17 0 18 0;
#X connect 18 0 15 1;
#X connect 19 0 16 0;
#X connect 20 0 21 0;
#X connect 21 0 22 0;
#X connect 22 0 23 0;
#X connect 23 0 27 0;
#X connect 24 0 62 0;
#X connect 25 0 26 0;
#X connect 26 0 23 1;
#X connect 27 0 24 0;
#X connect 28 0 29 0;
#X connect 29 0 30 0;
#X connect 30 0 31 0;
#X connect 31 0 35 0;
#X connect 32 0 63 0;
#X connect 33 0 34 0;
#X connect 34 0 31 1;
#X connect 35 0 32 0;
#X connect 36 0 37 0;
#X connect 37 0 38 0;
#X connect 38 0 39 0;
#X connect 39 0 43 0;
#X connect 40 0 64 0;
#X connect 41 0 42 0;
#X connect 42 0 39 1;
#X connect 43 0 40 0;
#X connect 44 0 45 0;
#X connect 45 0 46 0;
#X connect 46 0 47 0;
#X connect 47 0 51 0;
#X connect 48 0 65 0;
#X connect 49 0 50 0;
#X connect 50 0 47 1;
#X connect 51 0 48 0;
#X connect 52 0 53 0;
#X connect 53 0 54 0;
#X connect 54 0 55 0;
#X connect 55 0 59 0;
#X connect 56 0 66 0;
#X connect 57 0 58 0;
#X connect 58 0 55 1;
#X connect 59 0 56 0;
#X connect 74 0 4 0;
#X connect 75 0 12 0;
#X connect 76 0 20 0;
#X connect 77 0 28 0;
#X connect 78 0 36 0;
#X connect 79 0 44 0;
#X connect 80 0 52 0;
#X restore 567 73 pd sends;
#N canvas 0 22 1280 777 sends 0;
#X obj 80 52 inlet;
#X msg 228 63 \$1 \$1 \$1 \$1 \$1 \$1;
#X obj 228 41 r \$0-tremolo-depth-all;
#X obj 80 94 unpack f f f f f f f;
#X floatatom 550 103 5 0 0 0 - - -, f 5;
#X obj 550 124 / 127;
#X floatatom 550 145 5 0 0 0 - - -, f 5;
#X obj 550 196 *;
#X floatatom 550 239 5 0 0 0 - - -, f 5;
#X obj 609 138 loadbang;
#X msg 565 173 0.5;
#X floatatom 718 104 5 0 0 0 - - -, f 5;
#X obj 718 125 / 127;
#X floatatom 718 146 5 0 0 0 - - -, f 5;
#X obj 718 197 *;
#X floatatom 718 240 5 0 0 0 - - -, f 5;
#X obj 777 139 loadbang;
#X msg 733 174 0.5;
#X floatatom 905 104 5 0 0 0 - - -, f 5;
#X obj 905 125 / 127;
#X floatatom 905 146 5 0 0 0 - - -, f 5;
#X obj 905 197 *;
#X floatatom 905 240 5 0 0 0 - - -, f 5;
#X obj 964 139 loadbang;
#X msg 920 174 0.5;
#X floatatom 1102 104 5 0 0 0 - - -, f 5;
#X obj 1102 125 / 127;
#X floatatom 1102 146 5 0 0 0 - - -, f 5;
#X obj 1102 197 *;
#X floatatom 1102 240 5 0 0 0 - - -, f 5;
#X obj 1161 139 loadbang;
#X msg 1117 174 0.5;
#X floatatom 561 484 5 0 0 0 - - -, f 5;
#X obj 561 505 / 127;
#X floatatom 561 526 5 0 0 0 - - -, f 5;
#X obj 561 577 *;
#X floatatom 561 620 5 0 0 0 - - -, f 5;
#X obj 620 519 loadbang;
#X msg 576 554 0.5;
#X floatatom 839 492 5 0 0 0 - - -, f 5;
#X obj 839 513 / 127;
#X floatatom 839 534 5 0 0 0 - - -, f 5;
#X obj 839 585 *;
#X floatatom 839 628 5 0 0 0 - - -, f 5;
#X obj 898 527 loadbang;
#X msg 854 562 0.5;
#X floatatom 1106 496 5 0 0 0 - - -, f 5;
#X obj 1106 517 / 127;
#X floatatom 1106 538 5 0 0 0 - - -, f 5;
#X obj 1106 589 *;
#X floatatom 1106 632 5 0 0 0 - - -, f 5;
#X obj 1165 531 loadbang;
#X msg 1121 566 0.5;
#X obj 548 281 s \$0-tremolo-depth-6-in;
#X obj 716 279 s \$0-tremolo-depth-5-in;
#X obj 903 278 s \$0-tremolo-depth-4-in;
#X obj 1101 280 s \$0-tremolo-depth-3-in;
#X obj 561 647 s \$0-tremolo-depth-2-in;
#X obj 839 656 s \$0-tremolo-depth-1-in;
#X obj 1106 658 s \$0-tremolo-depth-all-in;
#X obj 80 116 s \$0-tremo-depth-6-in;
#X obj 101 136 s \$0-tremo-depth-5-in;
#X obj 122 156 s \$0-tremo-depth-4-in;
#X obj 143 176 s \$0-tremo-depth-3-in;
#X obj 164 196 s \$0-tremo-depth-2-in;
#X obj 185 216 s \$0-tremo-depth-1-in;
#X obj 196 239 s \$0-tremo-depth-all-in;
#X obj 550 80 r \$0-tremo-depth-6-in;
#X obj 718 78 r \$0-tremo-depth-5-in;
#X obj 905 82 r \$0-tremo-depth-4-in;
#X obj 1102 81 r \$0-tremo-depth-3-in;
#X obj 561 460 r \$0-tremo-depth-2-in;
#X obj 839 470 r \$0-tremo-depth-1-in;
#X obj 1106 472 r \$0-tremo-depth-all-in;
#X connect 0 0 3 0;
#X connect 1 0 3 0;
#X connect 2 0 1 0;
#X connect 3 0 60 0;
#X connect 3 1 61 0;
#X connect 3 2 62 0;
#X connect 3 3 63 0;
#X connect 3 4 64 0;
#X connect 3 5 65 0;
#X connect 3 6 66 0;
#X connect 4 0 5 0;
#X connect 5 0 6 0;
#X connect 6 0 7 0;
#X connect 7 0 8 0;
#X connect 8 0 53 0;
#X connect 9 0 10 0;
#X connect 10 0 7 1;
#X connect 11 0 12 0;
#X connect 12 0 13 0;
#X connect 13 0 14 0;
#X connect 14 0 15 0;
#X connect 15 0 54 0;
#X connect 16 0 17 0;
#X connect 17 0 14 1;
#X connect 18 0 19 0;
#X connect 19 0 20 0;
#X connect 20 0 21 0;
#X connect 21 0 22 0;
#X connect 22 0 55 0;
#X connect 23 0 24 0;
#X connect 24 0 21 1;
#X connect 25 0 26 0;
#X connect 26 0 27 0;
#X connect 27 0 28 0;
#X connect 28 0 29 0;
#X connect 29 0 56 0;
#X connect 30 0 31 0;
#X connect 31 0 28 1;
#X connect 32 0 33 0;
#X connect 33 0 34 0;
#X connect 34 0 35 0;
#X connect 35 0 36 0;
#X connect 36 0 57 0;
#X connect 37 0 38 0;
#X connect 38 0 35 1;
#X connect 39 0 40 0;
#X connect 40 0 41 0;
#X connect 41 0 42 0;
#X connect 42 0 43 0;
#X connect 43 0 58 0;
#X connect 44 0 45 0;
#X connect 45 0 42 1;
#X connect 46 0 47 0;
#X connect 47 0 48 0;
#X connect 48 0 49 0;
#X connect 49 0 50 0;
#X connect 50 0 59 0;
#X connect 51 0 52 0;
#X connect 52 0 49 1;
#X connect 67 0 4 0;
#X connect 68 0 11 0;
#X connect 69 0 18 0;
#X connect 70 0 25 0;
#X connect 71 0 32 0;
#X connect 72 0 39 0;
#X connect 73 0 46 0;
#X restore 746 83 pd sends;
#N canvas 0 22 1280 681 sends 1;
#X obj 80 52 inlet;
#X msg 161 52 \$1 \$1 \$1 \$1 \$1 \$1;
#X obj 161 29 r \$0-tremolo-drywet-all;
#X obj 353 296 s \$0-tremolo-drywet-6-in;
#X obj 310 322 s \$0-tremolo-drywet-5-in;
#X obj 266 351 s \$0-tremolo-drywet-4-in;
#X obj 220 377 s \$0-tremolo-drywet-3-in;
#X obj 175 404 s \$0-tremolo-drywet-2-in;
#X obj 82 458 s \$0-tremolo-drywet-1-in;
#X obj 80 94 unpack f f f f f f f;
#X obj 130 432 s \$0-tremolo-drywet-all-in;
#X floatatom 353 232 5 0 0 0 - - -, f 5;
#X obj 353 253 / 127;
#X floatatom 353 274 5 0 0 0 - - -, f 5;
#X floatatom 310 260 5 0 0 0 - - -, f 5;
#X obj 310 281 / 127;
#X floatatom 310 302 5 0 0 0 - - -, f 5;
#X floatatom 266 288 5 0 0 0 - - -, f 5;
#X obj 266 309 / 127;
#X floatatom 266 330 5 0 0 0 - - -, f 5;
#X floatatom 220 313 5 0 0 0 - - -, f 5;
#X obj 220 334 / 127;
#X floatatom 220 355 5 0 0 0 - - -, f 5;
#X floatatom 175 340 5 0 0 0 - - -, f 5;
#X obj 175 361 / 127;
#X floatatom 175 382 5 0 0 0 - - -, f 5;
#X floatatom 82 394 5 0 0 0 - - -, f 5;
#X obj 82 415 / 127;
#X floatatom 82 436 5 0 0 0 - - -, f 5;
#X floatatom 130 363 5 0 0 0 - - -, f 5;
#X obj 130 384 / 127;
#X floatatom 130 405 5 0 0 0 - - -, f 5;
#X connect 0 0 9 0;
#X connect 1 0 9 0;
#X connect 2 0 1 0;
#X connect 9 0 11 0;
#X connect 9 1 14 0;
#X connect 9 2 17 0;
#X connect 9 3 20 0;
#X connect 9 4 23 0;
#X connect 9 5 26 0;
#X connect 9 6 29 0;
#X connect 11 0 12 0;
#X connect 12 0 13 0;
#X connect 13 0 3 0;
#X connect 14 0 15 0;
#X connect 15 0 16 0;
#X connect 16 0 4 0;
#X connect 17 0 18 0;
#X connect 18 0 19 0;
#X connect 19 0 5 0;
#X connect 20 0 21 0;
#X connect 21 0 22 0;
#X connect 22 0 6 0;
#X connect 23 0 24 0;
#X connect 24 0 25 0;
#X connect 25 0 7 0;
#X connect 26 0 27 0;
#X connect 27 0 28 0;
#X connect 28 0 8 0;
#X connect 29 0 30 0;
#X connect 30 0 31 0;
#X connect 31 0 10 0;
#X restore 919 87 pd sends;
#X obj 397 8 r \$1-tremolo-rates-in;
#X obj 567 7 r \$1-tremolo-shapes-in;
#X obj 746 8 r \$1-tremolo-depths-in;
#X obj 919 5 r \$1-tremolo-drywets-in;
#X floatatom 303 54 5 1 20 2 - #0-tremolo-shape-all-in #0-tremolo-shape-all
, f 5;
#X floatatom 303 37 5 0.5 25 2 All #0-tremolo-rate-all-in #0-tremolo-rate-all
, f 5;
#X floatatom 85 37 5 0.5 25 0 rate #0-tremolo-rate-6-in #0-tremolo-rate-6
, f 5;
#X text 93 23 6;
#X text 128 23 5;
#X text 164 23 4;
#X text 197 23 3;
#X text 233 23 2;
#X text 269 22 1;
#X floatatom 85 54 5 1 20 0 shape #0-tremolo-shape-6-in #0-tremolo-shape-6
, f 5;
#X floatatom 120 54 5 1 20 2 - #0-tremolo-shape-5-in #0-tremolo-shape-5
, f 5;
#X floatatom 155 54 5 1 20 2 - #0-tremolo-shape-4-in #0-tremolo-shape-4
, f 5;
#X floatatom 190 54 5 1 20 2 - #0-tremolo-shape-3-in #0-tremolo-shape-3
, f 5;
#X floatatom 226 54 5 1 20 2 - #0-tremolo-shape-2-in #0-tremolo-shape-2
, f 5;
#X floatatom 261 54 5 1 20 2 - #0-tremolo-shape-1-in #0-tremolo-shape-1
, f 5;
#X floatatom 120 37 5 0.5 25 0 - #0-tremolo-rate-5-in #0-tremolo-rate-5
, f 5;
#X floatatom 155 37 5 0.5 25 0 - #0-tremolo-rate-4-in #0-tremolo-rate-4
, f 5;
#X floatatom 190 37 5 0.5 25 0 - #0-tremolo-rate-3-in #0-tremolo-rate-3
, f 5;
#X floatatom 226 37 5 0.5 25 0 - #0-tremolo-rate-2-in #0-tremolo-rate-2
, f 5;
#X floatatom 261 37 5 0.5 25 0 - #0-tremolo-rate-1-in #0-tremolo-rate-1
, f 5;
#X floatatom 303 71 5 0 0.5 2 - #0-tremolo-depth-all-in #0-tremolo-depth-all
, f 5;
#X floatatom 85 71 5 0 0.5 0 depth #0-tremolo-depth-6-in #0-tremolo-depth-6
, f 5;
#X floatatom 120 71 5 0 0.5 2 - #0-tremolo-depth-5-in #0-tremolo-depth-5
, f 5;
#X floatatom 155 71 5 0 0.5 2 - #0-tremolo-depth-4-in #0-tremolo-depth-4
, f 5;
#X floatatom 190 71 5 0 0.5 2 - #0-tremolo-depth-3-in #0-tremolo-depth-3
, f 5;
#X floatatom 226 71 5 0 0.5 2 - #0-tremolo-depth-2-in #0-tremolo-depth-2
, f 5;
#X floatatom 261 71 5 0 0.5 2 - #0-tremolo-depth-1-in #0-tremolo-depth-1
, f 5;
#X obj 86 90 hsl 27 15 0 1 0 0 \$0-tremolo-dw-6 \$0-tremolo-drywet-6-in
dry/wet -50 7 0 10 -262144 -1 -1 1300 1;
#X obj 121 90 hsl 27 15 0 1 0 0 \$0-tremolo-dw-5 \$0-tremolo-drywet-5-in
empty -2 -8 0 10 -262144 -1 -1 1300 1;
#X obj 156 90 hsl 27 15 0 1 0 0 \$0-tremolo-dw-4 \$0-tremolo-drywet-4-in
empty -2 -8 0 10 -262144 -1 -1 1300 1;
#X obj 191 90 hsl 27 15 0 1 0 0 \$0-tremolo-dw-3 \$0-tremolo-drywet-3-in
empty -2 -8 0 10 -262144 -1 -1 1300 1;
#X obj 227 90 hsl 27 15 0 1 0 0 \$0-tremolo-dw-2 \$0-tremolo-drywet-2-in
empty -2 -8 0 10 -262144 -1 -1 1300 1;
#X obj 262 90 hsl 27 15 0 1 0 0 \$0-tremolo-dw-1 \$0-tremolo-drywet-1-in
empty -2 -8 0 10 -262144 -1 -1 0 1;
#X obj 304 90 hsl 27 15 0 1 0 0 \$0-tremolo-drywet-all \$0-tremolo-drywet-all-in
empty -2 -8 0 10 -262144 -1 -1 1300 1;
#X obj -111 238 inlet~;
#X obj -62 238 inlet~;
#X obj -13 238 inlet~;
#X obj 34 237 inlet~;
#X obj 85 238 inlet~;
#X obj 134 238 inlet~;
#X obj 437 40 inlet rates;
#X obj 590 39 inlet shapes;
#X obj 775 48 inlet depths;
#X obj 935 49 inlet drywets;
#X obj 222 7 cnv 5 5 5 empty empty RATEs 0 0 0 8 -262144 -66577 0;
#X obj 258 7 cnv 5 5 5 empty empty SHAPEs 0 0 0 8 -262144 -66577 0
;
#X obj 298 7 cnv 5 5 5 empty empty DEPTHs 0 0 0 8 -262144 -66577 0
;
#X obj 333 8 cnv 5 5 5 empty empty DWs 0 0 0 8 -262144 -66577 0;
#X obj 62 127 cnv 15 249 15 empty empty |--------------------OUTPUTS--------------------|
0 10 0 8 -262144 -66577 0;
#X obj 399 107 loadbang;
#X msg 399 129 0.5;
#X obj 399 151 s \$0-tremolo-drywet-all-in;
#N canvas 0 22 1280 800 control 0;
#X floatatom 118 148 5 0 0 0 - - -, f 5;
#X obj 118 169 / 127;
#X floatatom 118 190 5 0 0 0 - - -, f 5;
#X obj 118 241 *;
#X floatatom 118 284 5 0 0 0 - - -, f 5;
#X msg 133 218 24.5;
#X obj 118 263 + 0.5;
#X obj 177 183 loadbang;
#X floatatom 291 154 5 0 0 0 - - -, f 5;
#X obj 291 175 / 127;
#X floatatom 291 196 5 0 0 0 - - -, f 5;
#X obj 291 247 *;
#X floatatom 291 290 5 0 0 0 - - -, f 5;
#X obj 350 189 loadbang;
#X msg 306 224 19;
#X obj 291 269 + 1;
#X floatatom 479 154 5 0 0 0 - - -, f 5;
#X obj 479 175 / 127;
#X floatatom 479 196 5 0 0 0 - - -, f 5;
#X obj 479 247 *;
#X floatatom 479 290 5 0 0 0 - - -, f 5;
#X obj 538 189 loadbang;
#X msg 494 224 0.5;
#X floatatom 630 158 5 0 0 0 - - -, f 5;
#X obj 630 179 / 127;
#X floatatom 630 200 5 0 0 0 - - -, f 5;
#X text 117 89 rate;
#X text 294 102 shape;
#X text 479 102 depth;
#X text 636 103 dry/wet;
#X obj 118 126 inlet rate;
#X obj 291 132 inlet shape;
#X obj 479 131 inlet depth;
#X obj 630 133 inlet dw;
#X obj 118 307 outlet rate;
#X obj 291 312 outlet shape;
#X obj 479 313 outlet depth;
#X obj 631 226 outlet dw;
#X connect 0 0 1 0;
#X connect 1 0 2 0;
#X connect 2 0 3 0;
#X connect 3 0 6 0;
#X connect 4 0 34 0;
#X connect 5 0 3 1;
#X connect 6 0 4 0;
#X connect 7 0 5 0;
#X connect 8 0 9 0;
#X connect 9 0 10 0;
#X connect 10 0 11 0;
#X connect 11 0 15 0;
#X connect 12 0 35 0;
#X connect 13 0 14 0;
#X connect 14 0 11 1;
#X connect 15 0 12 0;
#X connect 16 0 17 0;
#X connect 17 0 18 0;
#X connect 18 0 19 0;
#X connect 19 0 20 0;
#X connect 20 0 36 0;
#X connect 21 0 22 0;
#X connect 22 0 19 1;
#X connect 23 0 24 0;
#X connect 24 0 25 0;
#X connect 25 0 37 0;
#X connect 30 0 0 0;
#X connect 31 0 8 0;
#X connect 32 0 16 0;
#X connect 33 0 23 0;
#X restore 767 213 pd control;
#X connect 0 0 9 0;
#X connect 0 1 10 0;
#X connect 0 2 11 0;
#X connect 0 3 12 0;
#X connect 0 4 13 0;
#X connect 0 5 14 0;
#X connect 1 0 0 6;
#X connect 1 0 5 0;
#X connect 2 0 0 7;
#X connect 2 0 6 0;
#X connect 3 0 0 8;
#X connect 3 0 7 0;
#X connect 4 0 0 9;
#X connect 4 0 8 0;
#X connect 21 0 17 0;
#X connect 22 0 18 0;
#X connect 23 0 19 0;
#X connect 24 0 20 0;
#X connect 59 0 0 0;
#X connect 60 0 0 1;
#X connect 61 0 0 2;
#X connect 62 0 0 3;
#X connect 63 0 0 4;
#X connect 64 0 0 5;
#X connect 65 0 17 0;
#X connect 66 0 18 0;
#X connect 67 0 19 0;
#X connect 68 0 20 0;
#X connect 74 0 75 0;
#X connect 75 0 76 0;
#X coords 0 -1 1 1 350 150 2 0 0;
