#N canvas 565 39 815 453 10;
#X floatatom 14 34 3 0 0 0 - - -, f 3;
#X floatatom 39 34 3 0 0 0 - - -, f 3;
#X floatatom 64 34 3 0 0 0 - - -, f 3;
#X floatatom 89 34 3 0 0 0 - - -, f 3;
#X floatatom 114 34 3 0 0 0 - - -, f 3;
#X floatatom 139 34 3 0 0 0 - - -, f 3;
#X obj 339 85 pack f f f f f f;
#X obj 514 58 t b f;
#X obj 479 58 t b f;
#X obj 444 58 t b f;
#X obj 409 58 t b f;
#X obj 374 58 t b f;
#X obj 339 107 prepend set;
#X obj 42 329 *~;
#X obj 92 329 *~;
#X obj 142 329 *~;
#X obj 192 329 *~;
#X obj 242 329 *~;
#X obj 292 329 *~;
#X obj 12 55 vsl 22 45 0 100 0 0 empty empty empty 0 -9 0 10 -262144
-1 -1 0 1;
#X obj 39 55 vsl 22 45 0 100 0 0 empty empty empty 0 -9 0 10 -262144
-1 -1 0 1;
#X obj 64 55 vsl 22 45 0 100 0 0 empty empty empty 0 -9 0 10 -262144
-1 -1 0 1;
#X obj 89 55 vsl 22 45 0 100 0 0 empty empty empty 0 -9 0 10 -262144
-1 -1 0 1;
#X obj 114 55 vsl 22 45 0 100 0 0 empty empty empty 0 -9 0 10 -262144
-1 -1 0 1;
#X obj 139 55 vsl 22 45 0 100 0 0 empty empty empty 0 -9 0 10 -262144
-1 -1 0 1;
#X obj 139 168 / 100;
#X obj 114 188 / 100;
#X obj 89 168 / 100;
#X obj 64 188 / 100;
#X obj 39 168 / 100;
#X obj 12 188 / 100;
#X floatatom 82 13 3 0 0 0 Start-output - -, f 3;
#X obj 124 12 tgl 15 0 empty empty inv 18 7 0 10 -262144 -1 -1 0 1
;
#X obj 321 3 loadbang;
#X msg 321 25 1;
#X msg 350 25 0;
#X obj 112 390 dac~ 1 2 3 4 5 6;
#X obj 19 292 inlet~;
#X obj 69 292 inlet~;
#X obj 119 292 inlet~;
#X obj 169 292 inlet~;
#X obj 219 292 inlet~;
#X obj 269 292 inlet~;
#X obj 179 55 vsl 22 45 0 100 0 0 empty empty ALL 2 -9 0 10 -262144
-1 -1 0 1;
#N canvas 95 434 676 411 in 0;
#X obj 55 81 inlet;
#X obj 238 16 inlet;
#X obj 55 319 outlet;
#X obj 105 319 outlet;
#X obj 155 319 outlet;
#X obj 85 250 + 1;
#X obj 205 319 outlet;
#X obj 255 319 outlet;
#X obj 305 319 outlet;
#X obj 55 250 + 0;
#X obj 115 250 + 2;
#X obj 145 250 + 3;
#X obj 175 250 + 4;
#X obj 205 250 + 5;
#X obj 213 215 unpack f f f f f f;
#X obj 238 38 sel 0 1;
#X obj 355 319 outlet;
#X msg 389 119 \; pd dsp 0 \;;
#X obj 338 177 del 10;
#X msg 338 199 \; pd dsp 1 \;;
#X msg 372 155 5 4 3 2 1 0, f 12;
#X obj 303 20 tgl 15 0 empty empty empty 17 7 0 10 -262144 -1 -1 0
1;
#X obj 372 86 del 10;
#X obj 5 101 print init;
#X obj 338 120 t b b b;
#X obj 372 65 t b b;
#X msg 199 109 \; pd dsp 0 \;;
#X obj 148 167 del 10;
#X msg 148 189 \; pd dsp 1 \;;
#X obj 182 76 del 10;
#X obj 148 110 t b b b;
#X obj 182 55 t b b;
#X msg 182 145 0 1 2 3 4 5, f 12;
#X connect 0 0 9 0;
#X connect 0 0 5 0;
#X connect 0 0 10 0;
#X connect 0 0 11 0;
#X connect 0 0 12 0;
#X connect 0 0 13 0;
#X connect 0 0 23 0;
#X connect 1 0 15 0;
#X connect 5 0 3 0;
#X connect 9 0 2 0;
#X connect 10 0 4 0;
#X connect 11 0 6 0;
#X connect 12 0 7 0;
#X connect 13 0 8 0;
#X connect 14 0 9 1;
#X connect 14 1 5 1;
#X connect 14 2 10 1;
#X connect 14 3 11 1;
#X connect 14 4 12 1;
#X connect 14 5 13 1;
#X connect 15 0 31 0;
#X connect 15 1 25 0;
#X connect 18 0 19 0;
#X connect 20 0 14 0;
#X connect 21 0 15 0;
#X connect 22 0 20 0;
#X connect 22 0 24 0;
#X connect 24 0 18 0;
#X connect 24 1 16 0;
#X connect 24 2 20 0;
#X connect 25 0 22 0;
#X connect 25 1 17 0;
#X connect 27 0 28 0;
#X connect 29 0 32 0;
#X connect 29 0 30 0;
#X connect 30 0 27 0;
#X connect 30 1 16 0;
#X connect 30 2 32 0;
#X connect 31 0 29 0;
#X connect 31 1 26 0;
#X connect 32 0 14 0;
#X restore 196 17 pd in;
#X obj 12 265 line~;
#X msg 12 241 \$1 10;
#X obj 62 265 line~;
#X msg 62 241 \$1 10;
#X obj 112 265 line~;
#X msg 112 241 \$1 10;
#X obj 162 265 line~;
#X msg 162 241 \$1 10;
#X obj 212 265 line~;
#X msg 212 241 \$1 10;
#X obj 262 265 line~;
#X msg 262 241 \$1 10;
#X floatatom 12 106 3 0 0 0 - - -, f 3;
#X floatatom 39 106 3 0 0 0 - - -, f 3;
#X floatatom 64 106 3 0 0 0 - - -, f 3;
#X floatatom 89 106 3 0 0 0 - - -, f 3;
#X floatatom 114 106 3 0 0 0 - - -, f 3;
#X floatatom 139 106 3 0 0 0 - - -, f 3;
#X text 97 125 HEX_OUTPUT;
#X connect 0 0 6 0;
#X connect 1 0 11 0;
#X connect 2 0 10 0;
#X connect 3 0 9 0;
#X connect 4 0 8 0;
#X connect 5 0 7 0;
#X connect 6 0 12 0;
#X connect 7 0 0 0;
#X connect 7 1 6 5;
#X connect 8 0 0 0;
#X connect 8 1 6 4;
#X connect 9 0 0 0;
#X connect 9 1 6 3;
#X connect 10 0 0 0;
#X connect 10 1 6 2;
#X connect 11 0 0 0;
#X connect 11 1 6 1;
#X connect 12 0 36 0;
#X connect 13 0 36 0;
#X connect 14 0 36 1;
#X connect 15 0 36 2;
#X connect 16 0 36 3;
#X connect 17 0 36 4;
#X connect 18 0 36 5;
#X connect 19 0 57 0;
#X connect 20 0 58 0;
#X connect 21 0 59 0;
#X connect 22 0 60 0;
#X connect 23 0 61 0;
#X connect 24 0 62 0;
#X connect 25 0 56 0;
#X connect 26 0 54 0;
#X connect 27 0 52 0;
#X connect 28 0 50 0;
#X connect 29 0 48 0;
#X connect 30 0 46 0;
#X connect 31 0 44 0;
#X connect 32 0 44 1;
#X connect 33 0 34 0;
#X connect 33 0 35 0;
#X connect 34 0 31 0;
#X connect 35 0 32 0;
#X connect 37 0 13 0;
#X connect 38 0 14 0;
#X connect 39 0 15 0;
#X connect 40 0 16 0;
#X connect 41 0 17 0;
#X connect 42 0 18 0;
#X connect 43 0 24 0;
#X connect 43 0 23 0;
#X connect 43 0 22 0;
#X connect 43 0 21 0;
#X connect 43 0 20 0;
#X connect 43 0 19 0;
#X connect 44 0 0 0;
#X connect 44 1 1 0;
#X connect 44 2 2 0;
#X connect 44 3 3 0;
#X connect 44 4 4 0;
#X connect 44 5 5 0;
#X connect 44 6 31 0;
#X connect 45 0 13 1;
#X connect 46 0 45 0;
#X connect 47 0 14 1;
#X connect 48 0 47 0;
#X connect 49 0 15 1;
#X connect 50 0 49 0;
#X connect 51 0 16 1;
#X connect 52 0 51 0;
#X connect 53 0 17 1;
#X connect 54 0 53 0;
#X connect 55 0 18 1;
#X connect 56 0 55 0;
#X connect 57 0 30 0;
#X connect 58 0 29 0;
#X connect 59 0 28 0;
#X connect 60 0 27 0;
#X connect 61 0 26 0;
#X connect 62 0 25 0;
#X coords 0 -1 1 1 160 130 2 6 10;
