#N canvas 731 36 660 738 10;
#X floatatom 61 32 5 0 5000 0 freq - -, f 5;
#X floatatom 61 49 5 0 1 0 amp - -, f 5;
#X obj 24 225 outlet~;
#X obj 3 8 cnv 5 5 5 empty empty INPUT 0 0 0 8 -262144 -66577 0;
#X obj 60 9 cnv 5 5 5 empty empty DEL 0 0 0 8 -262144 -66577 0;
#X obj 104 9 cnv 5 5 5 empty empty FB 0 0 0 8 -262144 -66577 0;
#X obj 48 -74 inlet delay;
#X obj 188 -74 inlet feedback;
#X obj 30 -96 r \$1-delay-in;
#X obj 179 -99 r \$1-feedback-in;
#X obj 24 200 synth-osc~;
#X connect 0 0 10 0;
#X connect 1 0 10 1;
#X connect 6 0 0 0;
#X connect 7 0 1 0;
#X connect 8 0 0 0;
#X connect 9 0 1 0;
#X connect 10 0 2 0;
#X coords 0 -1 1 1 120 70 2 0 0;
