#N canvas 731 36 660 738 10;
#X floatatom 61 32 5 0 5000 0 freq - -, f 5;
#X floatatom 61 49 5 0 1 0 amp - -, f 5;
#X obj 24 225 outlet~;
#X obj 2 9 cnv 5 5 5 empty empty FREQ 0 0 0 8 -262144 -66577 0;
#X obj 104 9 cnv 5 5 5 empty empty AMP 0 0 0 8 -262144 -66577 0;
#X obj 48 -74 inlet delay;
#X obj 188 -74 inlet feedback;
#X obj 30 -96 r \$1-delay-in;
#X obj 179 -99 r \$1-feedback-in;
#X obj 24 200 synth-osc~;
#X obj 203 -15 loadbang;
#X msg 203 6 440;
#X msg 233 6 0.2;
#X connect 0 0 9 0;
#X connect 1 0 9 1;
#X connect 5 0 0 0;
#X connect 6 0 1 0;
#X connect 7 0 0 0;
#X connect 8 0 1 0;
#X connect 9 0 2 0;
#X connect 10 0 11 0;
#X connect 10 0 12 0;
#X connect 11 0 0 0;
#X connect 12 0 1 0;
#X coords 0 -1 1 1 120 70 2 0 0;
