#N canvas 1122 307 450 300 10;
#X obj 169 57 inlet;
#X obj 4 8 bng 20 250 50 0 empty empty Filename 25 10 0 16 -262144
-1 -1;
#X obj 4 33 tgl 20 0 empty empty Start/stop 25 10 0 18 -262144 -1 -1
0 1;
#X obj 169 175 writesf~ 6;
#X obj 209 57 inlet;
#X obj 249 57 inlet;
#X obj 289 57 inlet;
#X obj 329 57 inlet;
#X obj 369 57 inlet;
#X obj 4 103 sel 0 1;
#X msg 23 126 start;
#X msg 4 146 stop;
#N canvas 0 50 507 496 unique-filename 0;
#X obj 41 24 inlet;
#X obj 41 260 outlet;
#X obj 41 92 date, f 12;
#X obj 140 94 time, f 8;
#X floatatom 41 116 5 0 0 0 - - -;
#X floatatom 54 138 5 0 0 0 - - -;
#X floatatom 68 160 5 0 0 0 - - -;
#X floatatom 140 116 5 0 0 0 - - -;
#X floatatom 155 138 5 0 0 0 - - -;
#X floatatom 170 160 5 0 0 0 - - -;
#X obj 41 212 l2s _;
#X obj 41 53 bng 15 250 50 0 empty empty empty 17 7 0 10 -262144 -1
-1;
#X obj 41 190 pack f f f f f f;
#X obj 41 72 t b b;
#X obj 41 233 makefilename ../recordings/%s-hex-recording.wav, f 62
;
#X connect 0 0 11 0;
#X connect 2 0 4 0;
#X connect 2 1 5 0;
#X connect 2 2 6 0;
#X connect 3 0 7 0;
#X connect 3 1 8 0;
#X connect 3 2 9 0;
#X connect 4 0 12 0;
#X connect 5 0 12 1;
#X connect 6 0 12 2;
#X connect 7 0 12 3;
#X connect 8 0 12 4;
#X connect 9 0 12 5;
#X connect 10 0 14 0;
#X connect 11 0 13 0;
#X connect 12 0 10 0;
#X connect 13 0 2 0;
#X connect 13 1 3 0;
#X connect 14 0 1 0;
#X restore 81 101 pd unique-filename;
#X connect 0 0 3 0;
#X connect 1 0 12 0;
#X connect 2 0 9 0;
#X connect 4 0 3 1;
#X connect 5 0 3 2;
#X connect 6 0 3 3;
#X connect 7 0 3 4;
#X connect 8 0 3 5;
#X connect 9 0 11 0;
#X connect 9 1 10 0;
#X connect 10 0 3 0;
#X connect 11 0 3 0;
#X connect 12 0 3 0;
#X coords 0 -1 1 1 140 60 1 0 0;
