#N canvas 0 23 450 300 10;
#X obj 29 21 inlet~ input;
#X obj 172 22 inlet drywet_factor;
#X obj 44 75 - 1;
#X obj 44 97 * -1;
#X obj 29 165 *~;
#X obj 156 167 *~;
#X obj 29 192 outlet~ dry;
#X obj 156 192 outlet~ wet;
#X obj 172 144 line~;
#X msg 172 122 \$1 10;
#X obj 44 142 line~;
#X msg 44 120 \$1 10;
#X obj 172 41 utils-line;
#X connect 0 0 4 0;
#X connect 0 0 5 0;
#X connect 1 0 12 0;
#X connect 2 0 3 0;
#X connect 3 0 11 0;
#X connect 4 0 6 0;
#X connect 5 0 7 0;
#X connect 8 0 5 1;
#X connect 9 0 8 0;
#X connect 10 0 4 1;
#X connect 11 0 10 0;
#X connect 12 0 9 0;
#X connect 12 0 2 0;
