#N canvas 61 103 1166 682 10;
#X declare -path abs;
#N canvas 0 22 450 300 OSC 0;
#X obj 95 21 mrpeach/udpreceive 5000;
#X obj 95 41 spigot;
#X obj 144 42 tgl 15 0 empty empty empty 17 7 0 10 -262144 -1 -1 0
1;
#X obj 95 127 s noteMess;
#X obj 34 23 inlet;
#X obj 95 64 mrpeach/unpackOSC;
#X obj 95 84 mrpeach/routeOSC /GuitarTranscription;
#X obj 95 104 mrpeach/routeOSC /note;
#X connect 0 0 1 0;
#X connect 1 0 5 0;
#X connect 2 0 1 1;
#X connect 4 0 2 0;
#X connect 5 0 6 0;
#X connect 6 0 7 0;
#X connect 7 0 3 0;
#X restore 1071 27 pd OSC;
#X obj 1071 8 tgl 15 0 empty empty empty 17 7 0 10 -262144 -1 -1 0
1;
#X text 1089 9 Global OSC;
#N canvas 383 124 450 300 abs-creation 0;
#N canvas 1170 567 243 286 menu 0;
#X obj 27 74 r open-modules;
#N canvas 912 490 606 518 modules_selection 0;
#X obj 2 8 cnv 15 600 30 empty empty MODULES 270 12 0 14 -260386 -262144
0;
#X obj 2 64 cnv 15 180 15 empty empty FX: 10 8 0 12 -158136 -262144
0;
#X obj 131 88 bng 15 250 50 0 \$0-create-mono-delay empty delay 20
7 0 10 -262144 -1 -1;
#X obj 3 88 bng 15 250 50 0 \$0-create-hex-delay empty hex-delay 20
7 0 10 -262144 -1 -1;
#X obj 212 64 cnv 15 180 15 empty empty INPUT_OUTPUT: 10 8 0 12 -158136
-262144 0;
#X obj 213 88 bng 15 250 50 0 \$0-create-hex-input empty in-hex~ 20
7 0 10 -262144 -1 -1;
#X obj 312 88 bng 15 250 50 0 \$0-create-mono-input empty mono-input
20 7 0 10 -262144 -1 -1;
#X obj 213 108 bng 15 250 50 0 \$0-create-hex-output empty out-hex~ 
20 7 0 10 -262144 -1 -1;
#X obj 312 108 bng 15 250 50 0 \$0-create-mono-output empty mono-output
20 7 0 10 -262144 -1 -1;
#X obj 3 108 bng 15 250 50 0 \$0-create-hex-disto empty hex-disto 20
7 0 10 -262144 -1 -1;
#X obj 3 128 bng 15 250 50 0 \$0-create-hex-octafuzz empty hex-octafuzz
20 7 0 10 -262144 -1 -1;
#X obj 131 128 bng 15 250 50 0 \$0-create-mono-octafuzz empty octafuzz
20 7 0 10 -262144 -1 -1;
#X obj 3 148 bng 15 250 50 0 \$0-create-hex-tremolo empty hex-tremolo
20 7 0 10 -262144 -1 -1;
#X obj 131 148 bng 15 250 50 0 \$0-create-mono-tremolo empty tremolo
20 7 0 10 -262144 -1 -1;
#X obj 212 164 cnv 15 180 15 empty empty SYNTHESIS: 10 8 0 12 -158136
-262144 0;
#X obj 313 188 bng 15 250 50 0 \$0-create-synth-osc-mono empty osc-mono~
20 7 0 10 -262144 -1 -1;
#X obj 213 188 bng 15 250 50 0 \$0-create-synth-osc-hex empty osc-hex~
20 7 0 10 -262144 -1 -1;
#X restore 26 48 pd modules_selection;
#X msg 27 95 1;
#X msg 27 116 \; pd-modules_selection vis \$1;
#X obj 119 74 bng 15 250 50 0 empty empty empty 17 7 0 10 -262144 -1
-1;
#X connect 0 0 2 0;
#X connect 2 0 3 0;
#X connect 4 0 2 0;
#X restore 7 135 pd menu;
#N canvas 806 443 450 300 input-output 0;
#N canvas 114 232 671 620 in-hex~ 0;
#X msg 64 84 bang;
#X obj 64 151 t b b b;
#X obj 162 168 f;
#X obj 191 168 + 1;
#X obj 162 257 + 1;
#X obj 223 101 delay 250;
#X obj 223 123 t b b;
#X obj 83 316 pack s f;
#X msg 177 60 0;
#X obj 162 280 nbx 5 14 -1e+37 1e+37 0 1 empty empty empty 0 -8 0 10
-262144 -1 -1 1 256;
#X obj 64 387 t b b;
#X msg 64 509 loadbang;
#X obj 91 411 s SAVE-S;
#X obj 64 462 delay 100;
#X obj 308 316 f;
#X obj 308 278 loadbang;
#X obj 162 299 t f f;
#X msg 223 211 \; pd-modules_selection vis 0;
#X obj 177 38 r \$0-reset;
#X obj 64 17 r \$0-create-hex-input;
#X msg 250 171 \; pd-default_playground.pd editmode 1;
#X msg 82 340 \; pd-default_playground.pd obj 200 200 \$1 \$2;
#X msg 83 235 in-hex~;
#X obj 64 562 s pd-in-hex~.pd;
#X connect 0 0 1 0;
#X connect 0 0 5 0;
#X connect 1 0 10 0;
#X connect 1 1 22 0;
#X connect 1 2 2 0;
#X connect 2 0 3 0;
#X connect 2 0 4 0;
#X connect 3 0 2 1;
#X connect 4 0 9 0;
#X connect 5 0 6 0;
#X connect 6 1 20 0;
#X connect 7 0 21 0;
#X connect 8 0 2 1;
#X connect 8 0 9 0;
#X connect 9 0 16 0;
#X connect 10 0 13 0;
#X connect 10 1 12 0;
#X connect 11 0 23 0;
#X connect 13 0 11 0;
#X connect 14 0 2 1;
#X connect 15 0 14 0;
#X connect 16 0 7 1;
#X connect 16 1 14 1;
#X connect 18 0 8 0;
#X connect 19 0 0 0;
#X connect 22 0 7 0;
#X restore 13 19 pd in-hex~;
#N canvas 114 232 671 620 out-hex~ 0;
#X msg 64 84 bang;
#X obj 64 151 t b b b;
#X obj 162 168 f;
#X obj 191 168 + 1;
#X obj 162 257 + 1;
#X obj 223 101 delay 250;
#X obj 223 123 t b b;
#X obj 83 316 pack s f;
#X msg 177 60 0;
#X obj 162 280 nbx 5 14 -1e+37 1e+37 0 1 empty empty empty 0 -8 0 10
-262144 -1 -1 2 256;
#X obj 64 387 t b b;
#X msg 64 509 loadbang;
#X obj 91 411 s SAVE-S;
#X obj 64 462 delay 100;
#X obj 308 316 f;
#X obj 308 278 loadbang;
#X obj 162 299 t f f;
#X msg 223 211 \; pd-modules_selection vis 0;
#X obj 177 38 r \$0-reset;
#X obj 64 17 r \$0-create-hex-output;
#X msg 83 340 \; pd-default_playground.pd obj 200 200 \$1 \$2;
#X msg 250 171 \; pd-default_playground.pd editmode 1;
#X obj 64 562 s pd-out-hex~.pd;
#X msg 83 235 out-hex~;
#X connect 0 0 1 0;
#X connect 0 0 5 0;
#X connect 1 0 10 0;
#X connect 1 1 23 0;
#X connect 1 2 2 0;
#X connect 2 0 3 0;
#X connect 2 0 4 0;
#X connect 3 0 2 1;
#X connect 4 0 9 0;
#X connect 5 0 6 0;
#X connect 6 1 21 0;
#X connect 7 0 20 0;
#X connect 8 0 2 1;
#X connect 8 0 9 0;
#X connect 9 0 16 0;
#X connect 10 0 13 0;
#X connect 10 1 12 0;
#X connect 11 0 22 0;
#X connect 13 0 11 0;
#X connect 14 0 2 1;
#X connect 15 0 14 0;
#X connect 16 0 7 1;
#X connect 16 1 14 1;
#X connect 18 0 8 0;
#X connect 19 0 0 0;
#X connect 23 0 7 0;
#X restore 13 39 pd out-hex~;
#N canvas 114 232 671 620 in-mono~ 0;
#X msg 64 84 bang;
#X obj 64 151 t b b b;
#X obj 162 168 f;
#X obj 191 168 + 1;
#X obj 162 257 + 1;
#X obj 223 101 delay 250;
#X obj 223 123 t b b;
#X obj 83 316 pack s f;
#X msg 177 60 0;
#X obj 162 280 nbx 5 14 -1e+37 1e+37 0 1 empty empty empty 0 -8 0 10
-262144 -1 -1 1 256;
#X obj 64 387 t b b;
#X msg 64 509 loadbang;
#X obj 91 411 s SAVE-S;
#X obj 64 462 delay 100;
#X obj 308 316 f;
#X obj 308 278 loadbang;
#X obj 162 299 t f f;
#X msg 223 211 \; pd-modules_selection vis 0;
#X obj 177 38 r \$0-reset;
#X obj 64 17 r \$0-create-mono-input;
#X msg 250 171 \; pd-default_playground.pd editmode 1;
#X msg 83 340 \; pd-default_playground.pd obj 200 200 \$1 \$2;
#X msg 83 235 in-mono~;
#X obj 64 562 s pd-in-mono~.pd;
#X connect 0 0 1 0;
#X connect 0 0 5 0;
#X connect 1 0 10 0;
#X connect 1 1 22 0;
#X connect 1 2 2 0;
#X connect 2 0 3 0;
#X connect 2 0 4 0;
#X connect 3 0 2 1;
#X connect 4 0 9 0;
#X connect 5 0 6 0;
#X connect 6 1 20 0;
#X connect 7 0 21 0;
#X connect 8 0 2 1;
#X connect 8 0 9 0;
#X connect 9 0 16 0;
#X connect 10 0 13 0;
#X connect 10 1 12 0;
#X connect 11 0 23 0;
#X connect 13 0 11 0;
#X connect 14 0 2 1;
#X connect 15 0 14 0;
#X connect 16 0 7 1;
#X connect 16 1 14 1;
#X connect 18 0 8 0;
#X connect 19 0 0 0;
#X connect 22 0 7 0;
#X restore 163 19 pd in-mono~;
#N canvas 114 232 671 620 out-mono~ 0;
#X msg 64 84 bang;
#X obj 64 151 t b b b;
#X obj 162 168 f;
#X obj 191 168 + 1;
#X obj 162 257 + 1;
#X obj 223 101 delay 250;
#X obj 223 123 t b b;
#X obj 83 316 pack s f;
#X msg 177 60 0;
#X obj 162 280 nbx 5 14 -1e+37 1e+37 0 1 empty empty empty 0 -8 0 10
-262144 -1 -1 0 256;
#X obj 64 387 t b b;
#X msg 64 509 loadbang;
#X obj 91 411 s SAVE-S;
#X obj 64 462 delay 100;
#X obj 308 316 f;
#X obj 308 278 loadbang;
#X obj 162 299 t f f;
#X msg 223 211 \; pd-modules_selection vis 0;
#X obj 177 38 r \$0-reset;
#X msg 83 340 \; pd-hexaphonicmultieffect-main.pd obj 200 200 \$1 \$2
;
#X msg 250 171 \; pd-hexaphonicmultieffect-main.pd editmode 1;
#X obj 64 17 r \$0-create-mono-output;
#X msg 83 235 out-mono~;
#X obj 64 562 s pd-out-mono~.pd;
#X connect 0 0 1 0;
#X connect 0 0 5 0;
#X connect 1 0 10 0;
#X connect 1 1 22 0;
#X connect 1 2 2 0;
#X connect 2 0 3 0;
#X connect 2 0 4 0;
#X connect 3 0 2 1;
#X connect 4 0 9 0;
#X connect 5 0 6 0;
#X connect 6 1 20 0;
#X connect 7 0 19 0;
#X connect 8 0 2 1;
#X connect 8 0 9 0;
#X connect 9 0 16 0;
#X connect 10 0 13 0;
#X connect 10 1 12 0;
#X connect 11 0 23 0;
#X connect 13 0 11 0;
#X connect 14 0 2 1;
#X connect 15 0 14 0;
#X connect 16 0 7 1;
#X connect 16 1 14 1;
#X connect 18 0 8 0;
#X connect 21 0 0 0;
#X connect 22 0 7 0;
#X restore 163 39 pd out-mono~;
#X restore 7 78 pd input-output;
#N canvas 806 443 450 300 synthesis 0;
#N canvas 114 232 671 620 synth-osc-hex~ 0;
#X msg 64 84 bang;
#X obj 64 151 t b b b;
#X obj 162 168 f;
#X obj 191 168 + 1;
#X obj 162 257 + 1;
#X obj 223 101 delay 250;
#X obj 223 123 t b b;
#X obj 83 316 pack s f;
#X msg 177 60 0;
#X obj 162 280 nbx 5 14 -1e+37 1e+37 0 1 empty empty empty 0 -8 0 10
-262144 -1 -1 1 256;
#X obj 64 387 t b b;
#X msg 64 509 loadbang;
#X obj 91 411 s SAVE-S;
#X obj 64 462 delay 100;
#X obj 308 316 f;
#X obj 308 278 loadbang;
#X obj 162 299 t f f;
#X msg 223 211 \; pd-modules_selection vis 0;
#X obj 177 38 r \$0-reset;
#X msg 250 171 \; pd-default_playground.pd editmode 1;
#X msg 82 340 \; pd-default_playground.pd obj 200 200 \$1 \$2;
#X obj 64 17 r \$0-create-synth-osc-hex;
#X msg 83 235 synth-osc-hex~;
#X obj 64 562 s pd-synth-osc-hex~.pd;
#X connect 0 0 1 0;
#X connect 0 0 5 0;
#X connect 1 0 10 0;
#X connect 1 1 22 0;
#X connect 1 2 2 0;
#X connect 2 0 3 0;
#X connect 2 0 4 0;
#X connect 3 0 2 1;
#X connect 4 0 9 0;
#X connect 5 0 6 0;
#X connect 6 1 19 0;
#X connect 7 0 20 0;
#X connect 8 0 2 1;
#X connect 8 0 9 0;
#X connect 9 0 16 0;
#X connect 10 0 13 0;
#X connect 10 1 12 0;
#X connect 11 0 23 0;
#X connect 13 0 11 0;
#X connect 14 0 2 1;
#X connect 15 0 14 0;
#X connect 16 0 7 1;
#X connect 16 1 14 1;
#X connect 18 0 8 0;
#X connect 21 0 0 0;
#X connect 22 0 7 0;
#X restore 13 19 pd synth-osc-hex~;
#N canvas 114 232 671 620 synth-osc-mono~ 0;
#X msg 64 84 bang;
#X obj 64 151 t b b b;
#X obj 162 168 f;
#X obj 191 168 + 1;
#X obj 162 257 + 1;
#X obj 223 101 delay 250;
#X obj 223 123 t b b;
#X obj 83 316 pack s f;
#X msg 177 60 0;
#X obj 162 280 nbx 5 14 -1e+37 1e+37 0 1 empty empty empty 0 -8 0 10
-262144 -1 -1 2 256;
#X obj 64 387 t b b;
#X msg 64 509 loadbang;
#X obj 91 411 s SAVE-S;
#X obj 64 462 delay 100;
#X obj 308 316 f;
#X obj 308 278 loadbang;
#X obj 162 299 t f f;
#X msg 223 211 \; pd-modules_selection vis 0;
#X obj 177 38 r \$0-reset;
#X msg 250 171 \; pd-default_playground.pd editmode 1;
#X msg 83 340 \; pd-default_playground.pd obj 200 200 \$1 \$2;
#X obj 64 17 r \$0-create-synth-osc-mono;
#X msg 83 235 synth-osc-mono~;
#X obj 64 562 s pd-synth-osc-mono~.pd;
#X connect 0 0 1 0;
#X connect 0 0 5 0;
#X connect 1 0 10 0;
#X connect 1 1 22 0;
#X connect 1 2 2 0;
#X connect 2 0 3 0;
#X connect 2 0 4 0;
#X connect 3 0 2 1;
#X connect 4 0 9 0;
#X connect 5 0 6 0;
#X connect 6 1 19 0;
#X connect 7 0 20 0;
#X connect 8 0 2 1;
#X connect 8 0 9 0;
#X connect 9 0 16 0;
#X connect 10 0 13 0;
#X connect 10 1 12 0;
#X connect 11 0 23 0;
#X connect 13 0 11 0;
#X connect 14 0 2 1;
#X connect 15 0 14 0;
#X connect 16 0 7 1;
#X connect 16 1 14 1;
#X connect 18 0 8 0;
#X connect 21 0 0 0;
#X connect 22 0 7 0;
#X restore 163 19 pd synth-osc-mono~;
#X restore 7 58 pd synthesis;
#N canvas 242 97 450 300 fx 0;
#N canvas 114 232 671 620 fx-del-mono~ 0;
#X msg 64 84 bang;
#X obj 64 151 t b b b;
#X obj 162 168 f;
#X obj 191 168 + 1;
#X obj 162 257 + 1;
#X obj 223 101 delay 250;
#X obj 223 123 t b b;
#X obj 83 316 pack s f;
#X msg 177 60 0;
#X obj 162 280 nbx 5 14 -1e+37 1e+37 0 1 empty empty empty 0 -8 0 10
-262144 -1 -1 3 256;
#X obj 64 387 t b b;
#X msg 64 509 loadbang;
#X obj 91 411 s SAVE-S;
#X obj 64 462 delay 100;
#X obj 308 316 f;
#X obj 308 278 loadbang;
#X obj 162 299 t f f;
#X msg 223 211 \; pd-modules_selection vis 0;
#X obj 177 38 r \$0-reset;
#X obj 64 17 r \$0-create-mono-delay;
#X msg 83 340 \; pd-default_playground.pd obj 200 200 \$1 \$2;
#X msg 250 171 \; pd-default_playground.pd editmode 1;
#X msg 83 235 fx-del-mono~;
#X obj 64 562 s pd-fx-del-mono~.pd;
#X connect 0 0 1 0;
#X connect 0 0 5 0;
#X connect 1 0 10 0;
#X connect 1 1 22 0;
#X connect 1 2 2 0;
#X connect 2 0 3 0;
#X connect 2 0 4 0;
#X connect 3 0 2 1;
#X connect 4 0 9 0;
#X connect 5 0 6 0;
#X connect 6 1 21 0;
#X connect 7 0 20 0;
#X connect 8 0 2 1;
#X connect 8 0 9 0;
#X connect 9 0 16 0;
#X connect 10 0 13 0;
#X connect 10 1 12 0;
#X connect 11 0 23 0;
#X connect 13 0 11 0;
#X connect 14 0 2 1;
#X connect 15 0 14 0;
#X connect 16 0 7 1;
#X connect 16 1 14 1;
#X connect 18 0 8 0;
#X connect 19 0 0 0;
#X connect 22 0 7 0;
#X restore 172 27 pd fx-del-mono~;
#N canvas 114 232 671 620 fx-octafuzz-mono~ 0;
#X msg 64 84 bang;
#X obj 64 151 t b b b;
#X obj 162 168 f;
#X obj 191 168 + 1;
#X obj 162 257 + 1;
#X obj 223 101 delay 250;
#X obj 223 123 t b b;
#X obj 83 316 pack s f;
#X msg 177 60 0;
#X obj 162 280 nbx 5 14 -1e+37 1e+37 0 1 empty empty empty 0 -8 0 10
-262144 -1 -1 3 256;
#X obj 64 387 t b b;
#X msg 64 509 loadbang;
#X obj 91 411 s SAVE-S;
#X obj 64 462 delay 100;
#X obj 308 316 f;
#X obj 308 278 loadbang;
#X obj 162 299 t f f;
#X msg 223 211 \; pd-modules_selection vis 0;
#X obj 177 38 r \$0-reset;
#X msg 83 340 \; pd-default_playground.pd obj 200 200 \$1 \$2;
#X obj 64 17 r \$0-create-mono-octafuzz;
#X msg 250 171 \; pd-default_playground.pd editmode 1;
#X msg 83 235 fx-octafuzz-mono~;
#X obj 64 562 s pd-fx-octafuzz-mono~.pd;
#X connect 0 0 1 0;
#X connect 0 0 5 0;
#X connect 1 0 10 0;
#X connect 1 1 22 0;
#X connect 1 2 2 0;
#X connect 2 0 3 0;
#X connect 2 0 4 0;
#X connect 3 0 2 1;
#X connect 4 0 9 0;
#X connect 5 0 6 0;
#X connect 6 1 21 0;
#X connect 7 0 19 0;
#X connect 8 0 2 1;
#X connect 8 0 9 0;
#X connect 9 0 16 0;
#X connect 10 0 13 0;
#X connect 10 1 12 0;
#X connect 11 0 23 0;
#X connect 13 0 11 0;
#X connect 14 0 2 1;
#X connect 15 0 14 0;
#X connect 16 0 7 1;
#X connect 16 1 14 1;
#X connect 18 0 8 0;
#X connect 20 0 0 0;
#X connect 22 0 7 0;
#X restore 172 67 pd fx-octafuzz-mono~;
#N canvas 114 232 671 620 fx-del-hex~ 0;
#X msg 64 84 bang;
#X obj 64 151 t b b b;
#X obj 162 168 f;
#X obj 191 168 + 1;
#X obj 162 257 + 1;
#X obj 223 101 delay 250;
#X obj 223 123 t b b;
#X obj 83 316 pack s f;
#X msg 177 60 0;
#X obj 162 280 nbx 5 14 -1e+37 1e+37 0 1 empty empty empty 0 -8 0 10
-262144 -1 -1 6 256;
#X obj 64 387 t b b;
#X msg 64 509 loadbang;
#X obj 91 411 s SAVE-S;
#X obj 64 462 delay 100;
#X obj 308 316 f;
#X obj 308 278 loadbang;
#X obj 162 299 t f f;
#X msg 223 211 \; pd-modules_selection vis 0;
#X obj 177 38 r \$0-reset;
#X obj 64 17 r \$0-create-hex-delay;
#X msg 83 340 \; pd-default_playground.pd obj 200 200 \$1 \$2;
#X msg 250 171 \; pd-default_playground.pd editmode 1;
#X msg 83 235 fx-del-hex~;
#X obj 64 562 s pd-fx-del-hex~.pd;
#X connect 0 0 1 0;
#X connect 0 0 5 0;
#X connect 1 0 10 0;
#X connect 1 1 22 0;
#X connect 1 2 2 0;
#X connect 2 0 3 0;
#X connect 2 0 4 0;
#X connect 3 0 2 1;
#X connect 4 0 9 0;
#X connect 5 0 6 0;
#X connect 6 1 21 0;
#X connect 7 0 20 0;
#X connect 8 0 2 1;
#X connect 8 0 9 0;
#X connect 9 0 16 0;
#X connect 10 0 13 0;
#X connect 10 1 12 0;
#X connect 11 0 23 0;
#X connect 13 0 11 0;
#X connect 14 0 2 1;
#X connect 15 0 14 0;
#X connect 16 0 7 1;
#X connect 16 1 14 1;
#X connect 18 0 8 0;
#X connect 19 0 0 0;
#X connect 22 0 7 0;
#X restore 33 27 pd fx-del-hex~;
#N canvas 114 232 671 620 fx-disto-hex~ 0;
#X msg 64 84 bang;
#X obj 64 151 t b b b;
#X obj 162 168 f;
#X obj 191 168 + 1;
#X obj 162 257 + 1;
#X obj 223 101 delay 250;
#X obj 223 123 t b b;
#X obj 83 316 pack s f;
#X msg 177 60 0;
#X obj 162 280 nbx 5 14 -1e+37 1e+37 0 1 empty empty empty 0 -8 0 10
-262144 -1 -1 1 256;
#X obj 64 387 t b b;
#X msg 64 509 loadbang;
#X obj 91 411 s SAVE-S;
#X obj 64 462 delay 100;
#X obj 308 316 f;
#X obj 308 278 loadbang;
#X obj 162 299 t f f;
#X msg 223 211 \; pd-modules_selection vis 0;
#X obj 177 38 r \$0-reset;
#X msg 83 340 \; pd-default_playground.pd obj 200 200 \$1 \$2;
#X msg 250 171 \; pd-default_playground.pd editmode 1;
#X obj 64 17 r \$0-create-hex-disto;
#X msg 83 235 fx-disto-hex~;
#X obj 64 562 s pd-fx-disto-hex~.pd;
#X connect 0 0 1 0;
#X connect 0 0 5 0;
#X connect 1 0 10 0;
#X connect 1 1 22 0;
#X connect 1 2 2 0;
#X connect 2 0 3 0;
#X connect 2 0 4 0;
#X connect 3 0 2 1;
#X connect 4 0 9 0;
#X connect 5 0 6 0;
#X connect 6 1 20 0;
#X connect 7 0 19 0;
#X connect 8 0 2 1;
#X connect 8 0 9 0;
#X connect 9 0 16 0;
#X connect 10 0 13 0;
#X connect 10 1 12 0;
#X connect 11 0 23 0;
#X connect 13 0 11 0;
#X connect 14 0 2 1;
#X connect 15 0 14 0;
#X connect 16 0 7 1;
#X connect 16 1 14 1;
#X connect 18 0 8 0;
#X connect 21 0 0 0;
#X connect 22 0 7 0;
#X restore 33 47 pd fx-disto-hex~;
#N canvas 114 232 671 620 fx-octafuzz-hex~ 0;
#X msg 64 84 bang;
#X obj 64 151 t b b b;
#X obj 162 168 f;
#X obj 191 168 + 1;
#X obj 162 257 + 1;
#X obj 223 101 delay 250;
#X obj 223 123 t b b;
#X obj 83 316 pack s f;
#X msg 177 60 0;
#X obj 162 280 nbx 5 14 -1e+37 1e+37 0 1 empty empty empty 0 -8 0 10
-262144 -1 -1 4 256;
#X obj 64 387 t b b;
#X msg 64 509 loadbang;
#X obj 91 411 s SAVE-S;
#X obj 64 462 delay 100;
#X obj 308 316 f;
#X obj 308 278 loadbang;
#X obj 162 299 t f f;
#X msg 223 211 \; pd-modules_selection vis 0;
#X obj 177 38 r \$0-reset;
#X msg 83 340 \; pd-default_playground.pd obj 200 200 \$1 \$2;
#X msg 250 171 \; pd-default_playground.pd editmode 1;
#X obj 64 17 r \$0-create-hex-octafuzz;
#X msg 83 235 fx-octafuzz-hex~;
#X obj 64 562 s pd-fx-disto-hex~.pd;
#X connect 0 0 1 0;
#X connect 0 0 5 0;
#X connect 1 0 10 0;
#X connect 1 1 22 0;
#X connect 1 2 2 0;
#X connect 2 0 3 0;
#X connect 2 0 4 0;
#X connect 3 0 2 1;
#X connect 4 0 9 0;
#X connect 5 0 6 0;
#X connect 6 1 20 0;
#X connect 7 0 19 0;
#X connect 8 0 2 1;
#X connect 8 0 9 0;
#X connect 9 0 16 0;
#X connect 10 0 13 0;
#X connect 10 1 12 0;
#X connect 11 0 23 0;
#X connect 13 0 11 0;
#X connect 14 0 2 1;
#X connect 15 0 14 0;
#X connect 16 0 7 1;
#X connect 16 1 14 1;
#X connect 18 0 8 0;
#X connect 21 0 0 0;
#X connect 22 0 7 0;
#X restore 33 67 pd fx-octafuzz-hex~;
#N canvas 114 232 671 620 fx-trem-hex~ 0;
#X msg 64 84 bang;
#X obj 64 151 t b b b;
#X obj 162 168 f;
#X obj 191 168 + 1;
#X obj 162 257 + 1;
#X obj 223 101 delay 250;
#X obj 223 123 t b b;
#X obj 83 316 pack s f;
#X msg 177 60 0;
#X obj 162 280 nbx 5 14 -1e+37 1e+37 0 1 empty empty empty 0 -8 0 10
-262144 -1 -1 1 256;
#X obj 64 387 t b b;
#X msg 64 509 loadbang;
#X obj 91 411 s SAVE-S;
#X obj 64 462 delay 100;
#X obj 308 316 f;
#X obj 308 278 loadbang;
#X obj 162 299 t f f;
#X msg 223 211 \; pd-modules_selection vis 0;
#X obj 177 38 r \$0-reset;
#X msg 83 340 \; pd-default_playground.pd obj 200 200 \$1 \$2;
#X msg 250 171 \; pd-default_playground.pd editmode 1;
#X obj 64 17 r \$0-create-hex-tremolo;
#X msg 83 235 fx-trem-hex~;
#X obj 64 562 s pd-fx-trem-hex~.pd;
#X connect 0 0 1 0;
#X connect 0 0 5 0;
#X connect 1 0 10 0;
#X connect 1 1 22 0;
#X connect 1 2 2 0;
#X connect 2 0 3 0;
#X connect 2 0 4 0;
#X connect 3 0 2 1;
#X connect 4 0 9 0;
#X connect 5 0 6 0;
#X connect 6 1 20 0;
#X connect 7 0 19 0;
#X connect 8 0 2 1;
#X connect 8 0 9 0;
#X connect 9 0 16 0;
#X connect 10 0 13 0;
#X connect 10 1 12 0;
#X connect 11 0 23 0;
#X connect 13 0 11 0;
#X connect 14 0 2 1;
#X connect 15 0 14 0;
#X connect 16 0 7 1;
#X connect 16 1 14 1;
#X connect 18 0 8 0;
#X connect 21 0 0 0;
#X connect 22 0 7 0;
#X restore 33 87 pd fx-trem-hex~;
#N canvas 114 232 671 620 fx-trem-mono~ 0;
#X msg 64 84 bang;
#X obj 64 151 t b b b;
#X obj 162 168 f;
#X obj 191 168 + 1;
#X obj 162 257 + 1;
#X obj 223 101 delay 250;
#X obj 223 123 t b b;
#X obj 83 316 pack s f;
#X msg 177 60 0;
#X obj 162 280 nbx 5 14 -1e+37 1e+37 0 1 empty empty empty 0 -8 0 10
-262144 -1 -1 1 256;
#X obj 64 387 t b b;
#X msg 64 509 loadbang;
#X obj 91 411 s SAVE-S;
#X obj 64 462 delay 100;
#X obj 308 316 f;
#X obj 308 278 loadbang;
#X obj 162 299 t f f;
#X msg 223 211 \; pd-modules_selection vis 0;
#X obj 177 38 r \$0-reset;
#X msg 83 340 \; pd-default_playground.pd obj 200 200 \$1 \$2;
#X obj 64 17 r \$0-create-mono-tremolo;
#X msg 250 171 \; pd-default_playground.pd editmode 1;
#X msg 83 235 fx-trem-mono~;
#X obj 64 562 s pd-fx-trem-mono~.pd;
#X connect 0 0 1 0;
#X connect 0 0 5 0;
#X connect 1 0 10 0;
#X connect 1 1 22 0;
#X connect 1 2 2 0;
#X connect 2 0 3 0;
#X connect 2 0 4 0;
#X connect 3 0 2 1;
#X connect 4 0 9 0;
#X connect 5 0 6 0;
#X connect 6 1 21 0;
#X connect 7 0 19 0;
#X connect 8 0 2 1;
#X connect 8 0 9 0;
#X connect 9 0 16 0;
#X connect 10 0 13 0;
#X connect 10 1 12 0;
#X connect 11 0 23 0;
#X connect 13 0 11 0;
#X connect 14 0 2 1;
#X connect 15 0 14 0;
#X connect 16 0 7 1;
#X connect 16 1 14 1;
#X connect 18 0 8 0;
#X connect 20 0 0 0;
#X connect 22 0 7 0;
#X restore 172 87 pd fx-trem-mono~;
#X restore 7 38 pd fx;
#X restore 873 41 pd abs-creation;
#X obj 3 6 bng 15 250 50 0 open-modules empty MODULES 20 8 0 10 -262144
-1 -1;
#X obj 3 26 bng 15 250 50 0 \$0-reset empty RESET 20 8 0 10 -262144
-1 -1;
#X obj 3 46 bng 15 250 50 0 \$0-save empty SAVE 20 8 0 10 -262144 -1
-1;
#X text 776 213 Pour valider;
#X text 786 233 Global audio input et output;
#X text 786 253 Preset;
#X text 786 273 Mono delay;
#X text 905 249 | numbox sous slider;
#X text 905 263 | Nom du module;
#X text 905 278 | Nom input/output;
#X obj 873 9 declare -path abs;
#X obj 200 39 in-hex~ 1;
#X obj 200 533 out-hex~ 2;
#X obj 200 380 fx-del-hex~ 6;
#X obj 200 195 fx-octafuzz-hex~ 4;
#X obj 568 39 synth-osc-mono~ 2;
#X connect 1 0 0 0;
#X connect 15 2 18 2;
#X connect 15 3 18 3;
#X connect 15 4 18 4;
#X connect 15 5 18 5;
#X connect 17 0 16 0;
#X connect 17 1 16 1;
#X connect 17 2 16 2;
#X connect 17 3 16 3;
#X connect 17 4 16 4;
#X connect 17 5 16 5;
#X connect 18 0 17 0;
#X connect 18 1 17 1;
#X connect 18 2 17 2;
#X connect 18 3 17 3;
#X connect 18 4 17 4;
#X connect 18 5 17 5;
#X connect 19 0 18 0;
#X connect 19 0 18 1;
#X connect 19 0 18 2;
#X connect 19 0 18 3;
#X connect 19 0 18 4;
#X connect 19 0 18 5;
