#N canvas 187 178 1166 634 10;
#X declare -path FX;
#X declare -path input-output;
#N canvas 0 22 450 300 OSC 0;
#X obj 95 21 mrpeach/udpreceive 5000;
#X obj 95 41 spigot;
#X obj 144 42 tgl 15 0 empty empty empty 17 7 0 10 -262144 -1 -1 0
1;
#X obj 95 127 s noteMess;
#X obj 34 23 inlet;
#X obj 95 64 mrpeach/unpackOSC;
#X obj 95 84 mrpeach/routeOSC /GuitarTranscription;
#X obj 95 104 mrpeach/routeOSC /note;
#X connect 0 0 1 0;
#X connect 1 0 5 0;
#X connect 2 0 1 1;
#X connect 4 0 2 0;
#X connect 5 0 6 0;
#X connect 6 0 7 0;
#X connect 7 0 3 0;
#X restore 1071 27 pd OSC;
#X obj 1071 8 tgl 15 0 empty empty empty 17 7 0 10 -262144 -1 -1 0
1;
#X text 1089 9 Global OSC;
#N canvas 355 544 450 300 abs-creation 0;
#N canvas 1170 567 243 286 menu 0;
#X obj 27 74 r open-modules;
#N canvas 350 22 606 518 modules_selection 1;
#X obj 2 8 cnv 15 600 30 empty empty MODULES 270 12 0 14 -260386 -262144
0;
#X obj 2 64 cnv 15 180 15 empty empty FX: 10 8 0 12 -158136 -262144
0;
#X obj 131 88 bng 15 250 50 0 \$0-create-mono-delay empty delay 20
7 0 10 -262144 -1 -1;
#X obj 3 88 bng 15 250 50 0 \$0-create-hex-delay empty hex-delay 20
7 0 10 -262144 -1 -1;
#X obj 202 64 cnv 15 180 15 empty empty INPUT_OUTPUT: 10 8 0 12 -158136
-262144 0;
#X obj 203 88 bng 15 250 50 0 \$0-create-hex-input empty hex-input
20 7 0 10 -262144 -1 -1;
#X obj 302 88 bng 15 250 50 0 \$0-create-mono-input empty mono-input
20 7 0 10 -262144 -1 -1;
#X obj 203 108 bng 15 250 50 0 \$0-create-hex-output empty hex-output
20 7 0 10 -262144 -1 -1;
#X obj 302 108 bng 15 250 50 0 \$0-create-mono-output empty mono-output
20 7 0 10 -262144 -1 -1;
#X restore 26 48 pd modules_selection;
#X msg 27 95 1;
#X msg 27 116 \; pd-modules_selection vis \$1;
#X obj 119 74 bng 15 250 50 0 empty empty empty 17 7 0 10 -262144 -1
-1;
#X connect 0 0 2 0;
#X connect 2 0 3 0;
#X connect 4 0 2 0;
#X restore 7 115 pd menu;
#N canvas 242 97 450 300 mono-fx 0;
#N canvas 114 232 671 620 mono-delay 0;
#X msg 64 84 bang;
#X obj 64 151 t b b b;
#X obj 162 168 f;
#X obj 191 168 + 1;
#X obj 162 257 + 1;
#X obj 223 101 delay 250;
#X obj 223 123 t b b;
#X obj 83 316 pack s f;
#X msg 177 60 0;
#X obj 162 280 nbx 5 14 -1e+37 1e+37 0 1 empty empty empty 0 -8 0 10
-262144 -1 -1 1 256;
#X obj 64 387 t b b;
#X msg 64 509 loadbang;
#X obj 91 411 s SAVE-S;
#X obj 64 462 delay 100;
#X obj 308 316 f;
#X obj 308 278 loadbang;
#X obj 162 299 t f f;
#X msg 223 211 \; pd-modules_selection vis 0;
#X obj 177 38 r \$0-reset;
#X obj 64 562 s pd-mono-delay.pd;
#X msg 83 235 mono-delay;
#X obj 64 17 r \$0-create-mono-delay;
#X msg 250 171 \; pd-hdefault_playground.pd editmode 1;
#X msg 83 340 \; pd-default_playground.pd obj 200 200 \$1 \$2;
#X connect 0 0 1 0;
#X connect 0 0 5 0;
#X connect 1 0 10 0;
#X connect 1 1 20 0;
#X connect 1 2 2 0;
#X connect 2 0 3 0;
#X connect 2 0 4 0;
#X connect 3 0 2 1;
#X connect 4 0 9 0;
#X connect 5 0 6 0;
#X connect 6 1 22 0;
#X connect 7 0 23 0;
#X connect 8 0 2 1;
#X connect 8 0 9 0;
#X connect 9 0 16 0;
#X connect 10 0 13 0;
#X connect 10 1 12 0;
#X connect 11 0 19 0;
#X connect 13 0 11 0;
#X connect 14 0 2 1;
#X connect 15 0 14 0;
#X connect 16 0 7 1;
#X connect 16 1 14 1;
#X connect 18 0 8 0;
#X connect 20 0 7 0;
#X connect 21 0 0 0;
#X restore 12 27 pd mono-delay;
#X restore 7 38 pd mono-fx;
#N canvas 806 443 450 300 hex-fx 0;
#N canvas 114 232 671 620 hex-delay 0;
#X msg 64 84 bang;
#X obj 64 151 t b b b;
#X obj 162 168 f;
#X obj 191 168 + 1;
#X obj 162 257 + 1;
#X obj 223 101 delay 250;
#X obj 223 123 t b b;
#X obj 83 316 pack s f;
#X msg 177 60 0;
#X obj 162 280 nbx 5 14 -1e+37 1e+37 0 1 empty empty empty 0 -8 0 10
-262144 -1 -1 3 256;
#X obj 64 387 t b b;
#X msg 64 509 loadbang;
#X obj 91 411 s SAVE-S;
#X obj 64 462 delay 100;
#X obj 308 316 f;
#X obj 308 278 loadbang;
#X obj 162 299 t f f;
#X msg 223 211 \; pd-modules_selection vis 0;
#X obj 177 38 r \$0-reset;
#X msg 83 235 hex-delay;
#X obj 64 562 s pd-hex-delay.pd;
#X obj 64 17 r \$0-create-hex-delay;
#X msg 83 340 \; pd-default_playground.pd obj 200 200 \$1 \$2;
#X msg 250 171 \; pd-default_playground.pd editmode 1;
#X connect 0 0 1 0;
#X connect 0 0 5 0;
#X connect 1 0 10 0;
#X connect 1 1 19 0;
#X connect 1 2 2 0;
#X connect 2 0 3 0;
#X connect 2 0 4 0;
#X connect 3 0 2 1;
#X connect 4 0 9 0;
#X connect 5 0 6 0;
#X connect 6 1 23 0;
#X connect 7 0 22 0;
#X connect 8 0 2 1;
#X connect 8 0 9 0;
#X connect 9 0 16 0;
#X connect 10 0 13 0;
#X connect 10 1 12 0;
#X connect 11 0 20 0;
#X connect 13 0 11 0;
#X connect 14 0 2 1;
#X connect 15 0 14 0;
#X connect 16 0 7 1;
#X connect 16 1 14 1;
#X connect 18 0 8 0;
#X connect 19 0 7 0;
#X connect 21 0 0 0;
#X restore 13 19 pd hex-delay;
#X restore 7 58 pd hex-fx;
#N canvas 806 443 450 300 input-output 0;
#N canvas 114 232 671 620 hex-input 0;
#X msg 64 84 bang;
#X obj 64 151 t b b b;
#X obj 162 168 f;
#X obj 191 168 + 1;
#X obj 162 257 + 1;
#X obj 223 101 delay 250;
#X obj 223 123 t b b;
#X obj 83 316 pack s f;
#X msg 177 60 0;
#X obj 162 280 nbx 5 14 -1e+37 1e+37 0 1 empty empty empty 0 -8 0 10
-262144 -1 -1 3 256;
#X obj 64 387 t b b;
#X msg 64 509 loadbang;
#X obj 91 411 s SAVE-S;
#X obj 64 462 delay 100;
#X obj 308 316 f;
#X obj 308 278 loadbang;
#X obj 162 299 t f f;
#X msg 223 211 \; pd-modules_selection vis 0;
#X obj 177 38 r \$0-reset;
#X obj 64 17 r \$0-create-hex-input;
#X msg 83 235 hex-input;
#X obj 64 562 s pd-hex-input.pd;
#X msg 250 171 \; pd-default_playground.pd editmode 1;
#X msg 82 340 \; pd-default_playground.pd obj 200 200 \$1 \$2;
#X connect 0 0 1 0;
#X connect 0 0 5 0;
#X connect 1 0 10 0;
#X connect 1 1 20 0;
#X connect 1 2 2 0;
#X connect 2 0 3 0;
#X connect 2 0 4 0;
#X connect 3 0 2 1;
#X connect 4 0 9 0;
#X connect 5 0 6 0;
#X connect 6 1 22 0;
#X connect 7 0 23 0;
#X connect 8 0 2 1;
#X connect 8 0 9 0;
#X connect 9 0 16 0;
#X connect 10 0 13 0;
#X connect 10 1 12 0;
#X connect 11 0 21 0;
#X connect 13 0 11 0;
#X connect 14 0 2 1;
#X connect 15 0 14 0;
#X connect 16 0 7 1;
#X connect 16 1 14 1;
#X connect 18 0 8 0;
#X connect 19 0 0 0;
#X connect 20 0 7 0;
#X restore 13 19 pd hex-input;
#N canvas 114 232 671 620 mono-input 0;
#X msg 64 84 bang;
#X obj 64 151 t b b b;
#X obj 162 168 f;
#X obj 191 168 + 1;
#X obj 162 257 + 1;
#X obj 223 101 delay 250;
#X obj 223 123 t b b;
#X obj 83 316 pack s f;
#X msg 177 60 0;
#X obj 162 280 nbx 5 14 -1e+37 1e+37 0 1 empty empty empty 0 -8 0 10
-262144 -1 -1 1 256;
#X obj 64 387 t b b;
#X msg 64 509 loadbang;
#X obj 91 411 s SAVE-S;
#X obj 64 462 delay 100;
#X obj 308 316 f;
#X obj 308 278 loadbang;
#X obj 162 299 t f f;
#X msg 223 211 \; pd-modules_selection vis 0;
#X obj 177 38 r \$0-reset;
#X obj 64 17 r \$0-create-mono-input;
#X msg 83 235 mono-input;
#X obj 64 562 s pd-mono-input.pd;
#X msg 250 171 \; pd-default_playground.pd editmode 1;
#X msg 83 340 \; pd-default_playground.pd obj 200 200 \$1 \$2;
#X connect 0 0 1 0;
#X connect 0 0 5 0;
#X connect 1 0 10 0;
#X connect 1 1 20 0;
#X connect 1 2 2 0;
#X connect 2 0 3 0;
#X connect 2 0 4 0;
#X connect 3 0 2 1;
#X connect 4 0 9 0;
#X connect 5 0 6 0;
#X connect 6 1 22 0;
#X connect 7 0 23 0;
#X connect 8 0 2 1;
#X connect 8 0 9 0;
#X connect 9 0 16 0;
#X connect 10 0 13 0;
#X connect 10 1 12 0;
#X connect 11 0 21 0;
#X connect 13 0 11 0;
#X connect 14 0 2 1;
#X connect 15 0 14 0;
#X connect 16 0 7 1;
#X connect 16 1 14 1;
#X connect 18 0 8 0;
#X connect 19 0 0 0;
#X connect 20 0 7 0;
#X restore 163 19 pd mono-input;
#N canvas 114 232 671 620 mono-ouput 0;
#X msg 64 84 bang;
#X obj 64 151 t b b b;
#X obj 162 168 f;
#X obj 191 168 + 1;
#X obj 162 257 + 1;
#X obj 223 101 delay 250;
#X obj 223 123 t b b;
#X obj 83 316 pack s f;
#X msg 177 60 0;
#X obj 162 280 nbx 5 14 -1e+37 1e+37 0 1 empty empty empty 0 -8 0 10
-262144 -1 -1 1 256;
#X obj 64 387 t b b;
#X msg 64 509 loadbang;
#X obj 91 411 s SAVE-S;
#X obj 64 462 delay 100;
#X obj 308 316 f;
#X obj 308 278 loadbang;
#X obj 162 299 t f f;
#X msg 223 211 \; pd-modules_selection vis 0;
#X obj 177 38 r \$0-reset;
#X msg 83 340 \; pd-hexaphonicmultieffect-main.pd obj 200 200 \$1 \$2
;
#X msg 250 171 \; pd-hexaphonicmultieffect-main.pd editmode 1;
#X obj 64 17 r \$0-create-mono-output;
#X msg 83 235 mono-output;
#X obj 64 562 s pd-mono-output.pd;
#X connect 0 0 1 0;
#X connect 0 0 5 0;
#X connect 1 0 10 0;
#X connect 1 1 22 0;
#X connect 1 2 2 0;
#X connect 2 0 3 0;
#X connect 2 0 4 0;
#X connect 3 0 2 1;
#X connect 4 0 9 0;
#X connect 5 0 6 0;
#X connect 6 1 20 0;
#X connect 7 0 19 0;
#X connect 8 0 2 1;
#X connect 8 0 9 0;
#X connect 9 0 16 0;
#X connect 10 0 13 0;
#X connect 10 1 12 0;
#X connect 11 0 23 0;
#X connect 13 0 11 0;
#X connect 14 0 2 1;
#X connect 15 0 14 0;
#X connect 16 0 7 1;
#X connect 16 1 14 1;
#X connect 18 0 8 0;
#X connect 21 0 0 0;
#X connect 22 0 7 0;
#X restore 163 39 pd mono-ouput;
#N canvas 114 232 671 620 hex-output 0;
#X msg 64 84 bang;
#X obj 64 151 t b b b;
#X obj 162 168 f;
#X obj 191 168 + 1;
#X obj 162 257 + 1;
#X obj 223 101 delay 250;
#X obj 223 123 t b b;
#X obj 83 316 pack s f;
#X msg 177 60 0;
#X obj 162 280 nbx 5 14 -1e+37 1e+37 0 1 empty empty empty 0 -8 0 10
-262144 -1 -1 2 256;
#X obj 64 387 t b b;
#X msg 64 509 loadbang;
#X obj 91 411 s SAVE-S;
#X obj 64 462 delay 100;
#X obj 308 316 f;
#X obj 308 278 loadbang;
#X obj 162 299 t f f;
#X msg 223 211 \; pd-modules_selection vis 0;
#X obj 177 38 r \$0-reset;
#X obj 64 17 r \$0-create-hex-output;
#X obj 64 562 s pd-hex-output.pd;
#X msg 83 235 hex-output;
#X msg 83 340 \; pd-default_playground.pd obj 200 200 \$1 \$2;
#X msg 250 171 \; pd-default_playground.pd editmode 1;
#X connect 0 0 1 0;
#X connect 0 0 5 0;
#X connect 1 0 10 0;
#X connect 1 1 21 0;
#X connect 1 2 2 0;
#X connect 2 0 3 0;
#X connect 2 0 4 0;
#X connect 3 0 2 1;
#X connect 4 0 9 0;
#X connect 5 0 6 0;
#X connect 6 1 23 0;
#X connect 7 0 22 0;
#X connect 8 0 2 1;
#X connect 8 0 9 0;
#X connect 9 0 16 0;
#X connect 10 0 13 0;
#X connect 10 1 12 0;
#X connect 11 0 20 0;
#X connect 13 0 11 0;
#X connect 14 0 2 1;
#X connect 15 0 14 0;
#X connect 16 0 7 1;
#X connect 16 1 14 1;
#X connect 18 0 8 0;
#X connect 19 0 0 0;
#X connect 21 0 7 0;
#X restore 13 39 pd hex-output;
#X restore 7 88 pd input-output;
#X restore 873 51 pd abs-creation;
#X obj 3 6 bng 15 250 50 0 open-modules empty MODULES 20 8 0 10 -262144
-1 -1;
#X obj 3 26 bng 15 250 50 0 \$0-reset empty RESET 20 8 0 10 -262144
-1 -1;
#X obj 3 46 bng 15 250 50 0 \$0-save empty SAVE 20 8 0 10 -262144 -1
-1;
#X obj 873 9 declare -path FX;
#X text 776 213 Pour valider;
#X text 786 233 Global audio input et output;
#X text 786 253 Preset;
#X text 786 273 Mono delay;
#X text 905 249 | numbox sous slider;
#X text 905 263 | Nom du module;
#X text 905 278 | Nom input/output;
#X obj 873 30 declare -path input-output;
#X connect 1 0 0 0;
