#N canvas 67 89 1202 890 10;
#X declare -path abs;
#N canvas 0 50 450 300 OSC 0;
#X obj 95 21 mrpeach/udpreceive 5000;
#X obj 95 41 spigot;
#X obj 144 42 tgl 15 0 empty empty empty 17 7 0 10 -262144 -1 -1 0
1;
#X obj 95 127 s noteMess;
#X obj 34 23 inlet;
#X obj 95 64 mrpeach/unpackOSC;
#X obj 95 84 mrpeach/routeOSC /GuitarTranscription;
#X obj 95 104 mrpeach/routeOSC /note;
#X connect 0 0 1 0;
#X connect 1 0 5 0;
#X connect 2 0 1 1;
#X connect 4 0 2 0;
#X connect 5 0 6 0;
#X connect 6 0 7 0;
#X connect 7 0 3 0;
#X restore 1071 27 pd OSC;
#X obj 1071 8 tgl 15 0 empty empty empty 17 7 0 10 -262144 -1 -1 0
1;
#X text 1089 9 Global OSC;
#N canvas 628 219 450 392 abs-creation 1;
#N canvas 2312 257 243 309 menu 0;
#X obj 27 74 r open-modules;
#N canvas 1137 89 606 702 modules_selection 1;
#X obj 2 8 cnv 15 600 30 empty empty MODULES 270 12 0 14 -260386 -262144
0;
#X obj 2 64 cnv 15 180 15 empty empty FX: 10 8 0 12 -158136 -262144
0;
#X obj 114 87 bng 15 250 50 0 \$0-create-mono-delay empty mono-delay
20 7 0 10 -262144 -1 -1;
#X obj 3 88 bng 15 250 50 0 \$0-create-hex-delay empty hex-delay 20
7 0 10 -262144 -1 -1;
#X obj 242 64 cnv 15 180 15 empty empty INPUT_OUTPUT: 10 8 0 12 -158136
-262144 0;
#X obj 243 88 bng 15 250 50 0 \$0-create-hex-input empty in-hex~ 20
7 0 10 -262144 -1 -1;
#X obj 342 88 bng 15 250 50 0 \$0-create-mono-input empty mono-input
20 7 0 10 -262144 -1 -1;
#X obj 243 108 bng 15 250 50 0 \$0-create-hex-output empty out-hex~ 
20 7 0 10 -262144 -1 -1;
#X obj 342 108 bng 15 250 50 0 \$0-create-mono-output empty mono-output
20 7 0 10 -262144 -1 -1;
#X obj 3 108 bng 15 250 50 0 \$0-create-hex-disto empty hex-disto 20
7 0 10 -262144 -1 -1;
#X obj 3 128 bng 15 250 50 0 \$0-create-hex-octafuzz empty hex-octafuzz
20 7 0 10 -262144 -1 -1;
#X obj 114 128 bng 15 250 50 0 \$0-create-mono-octafuzz empty mono-octafuzz
20 7 0 10 -262144 -1 -1;
#X obj 3 148 bng 15 250 50 0 \$0-create-hex-tremolo empty hex-tremolo
20 7 0 10 -262144 -1 -1;
#X obj 114 148 bng 15 250 50 0 \$0-create-mono-tremolo empty mono-tremolo
20 7 0 10 -262144 -1 -1;
#X obj 243 164 cnv 15 180 15 empty empty SYNTHESIS: 10 8 0 12 -158136
-262144 0;
#X obj 344 188 bng 15 250 50 0 \$0-create-synth-osc-mono empty osc-mono~
20 7 0 10 -262144 -1 -1;
#X obj 244 188 bng 15 250 50 0 \$0-create-synth-osc-hex empty osc-hex~
20 7 0 10 -262144 -1 -1;
#X obj 3 169 bng 15 250 50 0 \$0-create-hex-ringmod empty hex-ringmod
17 7 0 10 -262144 -1 -1;
#X obj 114 168 bng 15 250 50 0 \$0-create-mono-ringmod empty mono-ringmod
17 7 0 10 -262144 -1 -1;
#X obj 114 107 bng 15 250 50 0 \$0-create-mono-disto empty mono-disto
17 7 0 10 -262144 -1 -1;
#X obj 3 191 bng 15 250 50 0 \$0-create-hex-phaser empty hex-phaser
17 7 0 10 -262144 -1 -1;
#X obj 114 190 bng 15 250 50 0 \$0-create-mono-phaser empty mono-phaser
17 7 0 10 -262144 -1 -1;
#X obj 3 215 bng 15 250 50 0 \$0-create-hex-reverb empty hex-reverb
17 7 0 10 -262144 -1 -1;
#X obj 114 213 bng 15 250 50 0 \$0-create-mono-reverb empty mono-reverb
17 7 0 10 -262144 -1 -1;
#X obj 114 261 bng 15 250 50 0 \$0-create-adaptative-delay empty adaptative-delay
20 7 0 10 -262144 -1 -1;
#X obj 114 315 send nb_of_instances;
#X floatatom 114 286 5 0 0 0 - - -, f 5;
#X connect 26 0 25 0;
#X restore 26 48 pd modules_selection;
#X msg 27 95 1;
#X msg 27 116 \; pd-modules_selection vis \$1;
#X obj 119 74 bng 15 250 50 0 empty empty empty 17 7 0 10 -262144 -1
-1;
#X connect 0 0 2 0;
#X connect 2 0 3 0;
#X connect 4 0 2 0;
#X restore 7 135 pd menu;
#N canvas 806 443 450 300 input-output 0;
#N canvas 114 232 671 620 in-hex~ 0;
#X msg 64 84 bang;
#X obj 64 151 t b b b;
#X obj 162 168 f;
#X obj 191 168 + 1;
#X obj 162 257 + 1;
#X obj 223 101 delay 250;
#X obj 223 123 t b b;
#X obj 83 316 pack s f;
#X msg 177 60 0;
#X obj 162 280 nbx 5 14 -1e+37 1e+37 0 1 empty empty empty 0 -8 0 10
-262144 -1 -1 2 256;
#X obj 64 387 t b b;
#X msg 64 509 loadbang;
#X obj 91 411 s SAVE-S;
#X obj 64 462 delay 100;
#X obj 308 316 f;
#X obj 308 278 loadbang;
#X obj 162 299 t f f;
#X msg 223 211 \; pd-modules_selection vis 0;
#X obj 177 38 r \$0-reset;
#X obj 64 17 r \$0-create-hex-input;
#X msg 250 171 \; pd-default_playground.pd editmode 1;
#X msg 82 340 \; pd-default_playground.pd obj 200 200 \$1 \$2;
#X msg 83 235 in-hex~;
#X obj 64 562 s pd-in-hex~.pd;
#X connect 0 0 1 0;
#X connect 0 0 5 0;
#X connect 1 0 10 0;
#X connect 1 1 22 0;
#X connect 1 2 2 0;
#X connect 2 0 3 0;
#X connect 2 0 4 0;
#X connect 3 0 2 1;
#X connect 4 0 9 0;
#X connect 5 0 6 0;
#X connect 6 1 20 0;
#X connect 7 0 21 0;
#X connect 8 0 2 1;
#X connect 8 0 9 0;
#X connect 9 0 16 0;
#X connect 10 0 13 0;
#X connect 10 1 12 0;
#X connect 11 0 23 0;
#X connect 13 0 11 0;
#X connect 14 0 2 1;
#X connect 15 0 14 0;
#X connect 16 0 7 1;
#X connect 16 1 14 1;
#X connect 18 0 8 0;
#X connect 19 0 0 0;
#X connect 22 0 7 0;
#X restore 13 19 pd in-hex~;
#N canvas 114 232 671 620 out-hex~ 0;
#X msg 64 84 bang;
#X obj 64 151 t b b b;
#X obj 162 168 f;
#X obj 191 168 + 1;
#X obj 162 257 + 1;
#X obj 223 101 delay 250;
#X obj 223 123 t b b;
#X obj 83 316 pack s f;
#X msg 177 60 0;
#X obj 162 280 nbx 5 14 -1e+37 1e+37 0 1 empty empty empty 0 -8 0 10
-262144 -1 -1 2 256;
#X obj 64 387 t b b;
#X msg 64 509 loadbang;
#X obj 91 411 s SAVE-S;
#X obj 64 462 delay 100;
#X obj 308 316 f;
#X obj 308 278 loadbang;
#X obj 162 299 t f f;
#X msg 223 211 \; pd-modules_selection vis 0;
#X obj 177 38 r \$0-reset;
#X obj 64 17 r \$0-create-hex-output;
#X msg 83 340 \; pd-default_playground.pd obj 200 200 \$1 \$2;
#X msg 250 171 \; pd-default_playground.pd editmode 1;
#X obj 64 562 s pd-out-hex~.pd;
#X msg 83 235 out-hex~;
#X connect 0 0 1 0;
#X connect 0 0 5 0;
#X connect 1 0 10 0;
#X connect 1 1 23 0;
#X connect 1 2 2 0;
#X connect 2 0 3 0;
#X connect 2 0 4 0;
#X connect 3 0 2 1;
#X connect 4 0 9 0;
#X connect 5 0 6 0;
#X connect 6 1 21 0;
#X connect 7 0 20 0;
#X connect 8 0 2 1;
#X connect 8 0 9 0;
#X connect 9 0 16 0;
#X connect 10 0 13 0;
#X connect 10 1 12 0;
#X connect 11 0 22 0;
#X connect 13 0 11 0;
#X connect 14 0 2 1;
#X connect 15 0 14 0;
#X connect 16 0 7 1;
#X connect 16 1 14 1;
#X connect 18 0 8 0;
#X connect 19 0 0 0;
#X connect 23 0 7 0;
#X restore 13 39 pd out-hex~;
#N canvas 114 232 671 620 in-mono~ 0;
#X msg 64 84 bang;
#X obj 64 151 t b b b;
#X obj 162 168 f;
#X obj 191 168 + 1;
#X obj 162 257 + 1;
#X obj 223 101 delay 250;
#X obj 223 123 t b b;
#X obj 83 316 pack s f;
#X msg 177 60 0;
#X obj 162 280 nbx 5 14 -1e+37 1e+37 0 1 empty empty empty 0 -8 0 10
-262144 -1 -1 1 256;
#X obj 64 387 t b b;
#X msg 64 509 loadbang;
#X obj 91 411 s SAVE-S;
#X obj 64 462 delay 100;
#X obj 308 316 f;
#X obj 308 278 loadbang;
#X obj 162 299 t f f;
#X msg 223 211 \; pd-modules_selection vis 0;
#X obj 177 38 r \$0-reset;
#X obj 64 17 r \$0-create-mono-input;
#X msg 250 171 \; pd-default_playground.pd editmode 1;
#X msg 83 340 \; pd-default_playground.pd obj 200 200 \$1 \$2;
#X msg 83 235 in-mono~;
#X obj 64 562 s pd-in-mono~.pd;
#X connect 0 0 1 0;
#X connect 0 0 5 0;
#X connect 1 0 10 0;
#X connect 1 1 22 0;
#X connect 1 2 2 0;
#X connect 2 0 3 0;
#X connect 2 0 4 0;
#X connect 3 0 2 1;
#X connect 4 0 9 0;
#X connect 5 0 6 0;
#X connect 6 1 20 0;
#X connect 7 0 21 0;
#X connect 8 0 2 1;
#X connect 8 0 9 0;
#X connect 9 0 16 0;
#X connect 10 0 13 0;
#X connect 10 1 12 0;
#X connect 11 0 23 0;
#X connect 13 0 11 0;
#X connect 14 0 2 1;
#X connect 15 0 14 0;
#X connect 16 0 7 1;
#X connect 16 1 14 1;
#X connect 18 0 8 0;
#X connect 19 0 0 0;
#X connect 22 0 7 0;
#X restore 163 19 pd in-mono~;
#N canvas 114 232 671 620 out-mono~ 0;
#X msg 64 84 bang;
#X obj 64 151 t b b b;
#X obj 162 168 f;
#X obj 191 168 + 1;
#X obj 162 257 + 1;
#X obj 223 101 delay 250;
#X obj 223 123 t b b;
#X obj 83 316 pack s f;
#X msg 177 60 0;
#X obj 162 280 nbx 5 14 -1e+37 1e+37 0 1 empty empty empty 0 -8 0 10
-262144 -1 -1 0 256;
#X obj 64 387 t b b;
#X msg 64 509 loadbang;
#X obj 91 411 s SAVE-S;
#X obj 64 462 delay 100;
#X obj 308 316 f;
#X obj 308 278 loadbang;
#X obj 162 299 t f f;
#X msg 223 211 \; pd-modules_selection vis 0;
#X obj 177 38 r \$0-reset;
#X msg 83 340 \; pd-hexaphonicmultieffect-main.pd obj 200 200 \$1 \$2
;
#X msg 250 171 \; pd-hexaphonicmultieffect-main.pd editmode 1;
#X obj 64 17 r \$0-create-mono-output;
#X msg 83 235 out-mono~;
#X obj 64 562 s pd-out-mono~.pd;
#X connect 0 0 1 0;
#X connect 0 0 5 0;
#X connect 1 0 10 0;
#X connect 1 1 22 0;
#X connect 1 2 2 0;
#X connect 2 0 3 0;
#X connect 2 0 4 0;
#X connect 3 0 2 1;
#X connect 4 0 9 0;
#X connect 5 0 6 0;
#X connect 6 1 20 0;
#X connect 7 0 19 0;
#X connect 8 0 2 1;
#X connect 8 0 9 0;
#X connect 9 0 16 0;
#X connect 10 0 13 0;
#X connect 10 1 12 0;
#X connect 11 0 23 0;
#X connect 13 0 11 0;
#X connect 14 0 2 1;
#X connect 15 0 14 0;
#X connect 16 0 7 1;
#X connect 16 1 14 1;
#X connect 18 0 8 0;
#X connect 21 0 0 0;
#X connect 22 0 7 0;
#X restore 163 39 pd out-mono~;
#X restore 7 78 pd input-output;
#N canvas 806 443 450 300 synthesis 0;
#N canvas 114 232 671 620 synth-osc-hex~ 0;
#X msg 64 84 bang;
#X obj 64 151 t b b b;
#X obj 162 168 f;
#X obj 191 168 + 1;
#X obj 162 257 + 1;
#X obj 223 101 delay 250;
#X obj 223 123 t b b;
#X obj 83 316 pack s f;
#X msg 177 60 0;
#X obj 162 280 nbx 5 14 -1e+37 1e+37 0 1 empty empty empty 0 -8 0 10
-262144 -1 -1 0 256;
#X obj 64 387 t b b;
#X msg 64 509 loadbang;
#X obj 91 411 s SAVE-S;
#X obj 64 462 delay 100;
#X obj 308 316 f;
#X obj 308 278 loadbang;
#X obj 162 299 t f f;
#X msg 223 211 \; pd-modules_selection vis 0;
#X obj 177 38 r \$0-reset;
#X msg 250 171 \; pd-default_playground.pd editmode 1;
#X msg 82 340 \; pd-default_playground.pd obj 200 200 \$1 \$2;
#X obj 64 17 r \$0-create-synth-osc-hex;
#X msg 83 235 synth-osc-hex~;
#X obj 64 562 s pd-synth-osc-hex~.pd;
#X connect 0 0 1 0;
#X connect 0 0 5 0;
#X connect 1 0 10 0;
#X connect 1 1 22 0;
#X connect 1 2 2 0;
#X connect 2 0 3 0;
#X connect 2 0 4 0;
#X connect 3 0 2 1;
#X connect 4 0 9 0;
#X connect 5 0 6 0;
#X connect 6 1 19 0;
#X connect 7 0 20 0;
#X connect 8 0 2 1;
#X connect 8 0 9 0;
#X connect 9 0 16 0;
#X connect 10 0 13 0;
#X connect 10 1 12 0;
#X connect 11 0 23 0;
#X connect 13 0 11 0;
#X connect 14 0 2 1;
#X connect 15 0 14 0;
#X connect 16 0 7 1;
#X connect 16 1 14 1;
#X connect 18 0 8 0;
#X connect 21 0 0 0;
#X connect 22 0 7 0;
#X restore 13 19 pd synth-osc-hex~;
#N canvas 114 232 671 620 synth-osc-mono~ 0;
#X msg 64 84 bang;
#X obj 64 151 t b b b;
#X obj 162 168 f;
#X obj 191 168 + 1;
#X obj 162 257 + 1;
#X obj 223 101 delay 250;
#X obj 223 123 t b b;
#X obj 83 316 pack s f;
#X msg 177 60 0;
#X obj 162 280 nbx 5 14 -1e+37 1e+37 0 1 empty empty empty 0 -8 0 10
-262144 -1 -1 0 256;
#X obj 64 387 t b b;
#X msg 64 509 loadbang;
#X obj 91 411 s SAVE-S;
#X obj 64 462 delay 100;
#X obj 308 316 f;
#X obj 308 278 loadbang;
#X obj 162 299 t f f;
#X msg 223 211 \; pd-modules_selection vis 0;
#X obj 177 38 r \$0-reset;
#X msg 250 171 \; pd-default_playground.pd editmode 1;
#X msg 83 340 \; pd-default_playground.pd obj 200 200 \$1 \$2;
#X obj 64 17 r \$0-create-synth-osc-mono;
#X msg 83 235 synth-osc-mono~;
#X obj 64 562 s pd-synth-osc-mono~.pd;
#X connect 0 0 1 0;
#X connect 0 0 5 0;
#X connect 1 0 10 0;
#X connect 1 1 22 0;
#X connect 1 2 2 0;
#X connect 2 0 3 0;
#X connect 2 0 4 0;
#X connect 3 0 2 1;
#X connect 4 0 9 0;
#X connect 5 0 6 0;
#X connect 6 1 19 0;
#X connect 7 0 20 0;
#X connect 8 0 2 1;
#X connect 8 0 9 0;
#X connect 9 0 16 0;
#X connect 10 0 13 0;
#X connect 10 1 12 0;
#X connect 11 0 23 0;
#X connect 13 0 11 0;
#X connect 14 0 2 1;
#X connect 15 0 14 0;
#X connect 16 0 7 1;
#X connect 16 1 14 1;
#X connect 18 0 8 0;
#X connect 21 0 0 0;
#X connect 22 0 7 0;
#X restore 163 19 pd synth-osc-mono~;
#X restore 7 58 pd synthesis;
#N canvas 163 497 450 392 fx 1;
#N canvas 695 417 671 643 fx-del-mono~ 0;
#X msg 64 84 bang;
#X obj 64 151 t b b b;
#X obj 162 168 f;
#X obj 191 168 + 1;
#X obj 162 257 + 1;
#X obj 223 101 delay 250;
#X obj 223 123 t b b;
#X obj 83 316 pack s f;
#X msg 177 60 0;
#X obj 162 280 nbx 5 14 -1e+37 1e+37 0 1 empty empty empty 0 -8 0 10
-262144 -1 -1 6 256;
#X obj 64 387 t b b;
#X msg 64 509 loadbang;
#X obj 91 411 s SAVE-S;
#X obj 64 462 delay 100;
#X obj 308 316 f;
#X obj 308 278 loadbang;
#X obj 162 299 t f f;
#X msg 223 211 \; pd-modules_selection vis 0;
#X obj 177 38 r \$0-reset;
#X obj 64 17 r \$0-create-mono-delay;
#X msg 83 340 \; pd-default_playground.pd obj 200 200 \$1 \$2;
#X msg 250 171 \; pd-default_playground.pd editmode 1;
#X msg 83 235 fx-del-mono~;
#X obj 64 562 s pd-fx-del-mono~.pd;
#X connect 0 0 1 0;
#X connect 0 0 5 0;
#X connect 1 0 10 0;
#X connect 1 1 22 0;
#X connect 1 2 2 0;
#X connect 2 0 3 0;
#X connect 2 0 4 0;
#X connect 3 0 2 1;
#X connect 4 0 9 0;
#X connect 5 0 6 0;
#X connect 6 1 21 0;
#X connect 7 0 20 0;
#X connect 8 0 2 1;
#X connect 8 0 9 0;
#X connect 9 0 16 0;
#X connect 10 0 13 0;
#X connect 10 1 12 0;
#X connect 11 0 23 0;
#X connect 13 0 11 0;
#X connect 14 0 2 1;
#X connect 15 0 14 0;
#X connect 16 0 7 1;
#X connect 16 1 14 1;
#X connect 18 0 8 0;
#X connect 19 0 0 0;
#X connect 22 0 7 0;
#X restore 172 27 pd fx-del-mono~;
#N canvas 114 232 671 620 fx-octafuzz-mono~ 0;
#X msg 64 84 bang;
#X obj 64 151 t b b b;
#X obj 162 168 f;
#X obj 191 168 + 1;
#X obj 162 257 + 1;
#X obj 223 101 delay 250;
#X obj 223 123 t b b;
#X obj 83 316 pack s f;
#X msg 177 60 0;
#X obj 162 280 nbx 5 14 -1e+37 1e+37 0 1 empty empty empty 0 -8 0 10
-262144 -1 -1 4 256;
#X obj 64 387 t b b;
#X msg 64 509 loadbang;
#X obj 91 411 s SAVE-S;
#X obj 64 462 delay 100;
#X obj 308 316 f;
#X obj 308 278 loadbang;
#X obj 162 299 t f f;
#X msg 223 211 \; pd-modules_selection vis 0;
#X obj 177 38 r \$0-reset;
#X msg 83 340 \; pd-default_playground.pd obj 200 200 \$1 \$2;
#X obj 64 17 r \$0-create-mono-octafuzz;
#X msg 250 171 \; pd-default_playground.pd editmode 1;
#X msg 83 235 fx-octafuzz-mono~;
#X obj 64 562 s pd-fx-octafuzz-mono~.pd;
#X connect 0 0 1 0;
#X connect 0 0 5 0;
#X connect 1 0 10 0;
#X connect 1 1 22 0;
#X connect 1 2 2 0;
#X connect 2 0 3 0;
#X connect 2 0 4 0;
#X connect 3 0 2 1;
#X connect 4 0 9 0;
#X connect 5 0 6 0;
#X connect 6 1 21 0;
#X connect 7 0 19 0;
#X connect 8 0 2 1;
#X connect 8 0 9 0;
#X connect 9 0 16 0;
#X connect 10 0 13 0;
#X connect 10 1 12 0;
#X connect 11 0 23 0;
#X connect 13 0 11 0;
#X connect 14 0 2 1;
#X connect 15 0 14 0;
#X connect 16 0 7 1;
#X connect 16 1 14 1;
#X connect 18 0 8 0;
#X connect 20 0 0 0;
#X connect 22 0 7 0;
#X restore 172 67 pd fx-octafuzz-mono~;
#N canvas 103 22 671 666 fx-del-hex~ 0;
#X msg 64 84 bang;
#X obj 64 151 t b b b;
#X obj 162 168 f;
#X obj 191 168 + 1;
#X obj 162 257 + 1;
#X obj 223 101 delay 250;
#X obj 223 123 t b b;
#X obj 83 316 pack s f;
#X msg 177 60 0;
#X obj 162 280 nbx 5 14 -1e+37 1e+37 0 1 empty empty empty 0 -8 0 10
-262144 -1 -1 3 256;
#X obj 64 387 t b b;
#X msg 64 509 loadbang;
#X obj 91 411 s SAVE-S;
#X obj 64 462 delay 100;
#X obj 308 316 f;
#X obj 308 278 loadbang;
#X obj 162 299 t f f;
#X msg 223 211 \; pd-modules_selection vis 0;
#X obj 177 38 r \$0-reset;
#X obj 64 17 r \$0-create-hex-delay;
#X msg 83 340 \; pd-default_playground.pd obj 200 200 \$1 \$2;
#X msg 250 171 \; pd-default_playground.pd editmode 1;
#X msg 83 235 fx-del-hex~;
#X obj 64 562 s pd-fx-del-hex~.pd;
#X connect 0 0 1 0;
#X connect 0 0 5 0;
#X connect 1 0 10 0;
#X connect 1 1 22 0;
#X connect 1 2 2 0;
#X connect 2 0 3 0;
#X connect 2 0 4 0;
#X connect 3 0 2 1;
#X connect 4 0 9 0;
#X connect 5 0 6 0;
#X connect 6 1 21 0;
#X connect 7 0 20 0;
#X connect 8 0 2 1;
#X connect 8 0 9 0;
#X connect 9 0 16 0;
#X connect 10 0 13 0;
#X connect 10 1 12 0;
#X connect 11 0 23 0;
#X connect 13 0 11 0;
#X connect 14 0 2 1;
#X connect 15 0 14 0;
#X connect 16 0 7 1;
#X connect 16 1 14 1;
#X connect 18 0 8 0;
#X connect 19 0 0 0;
#X connect 22 0 7 0;
#X restore 33 27 pd fx-del-hex~;
#N canvas 0 22 671 643 fx-disto-hex~ 0;
#X msg 64 84 bang;
#X obj 64 151 t b b b;
#X obj 162 168 f;
#X obj 191 168 + 1;
#X obj 162 257 + 1;
#X obj 223 101 delay 250;
#X obj 223 123 t b b;
#X obj 83 316 pack s f;
#X msg 177 60 0;
#X obj 162 280 nbx 5 14 -1e+37 1e+37 0 1 empty empty empty 0 -8 0 10
-262144 -1 -1 4 256;
#X obj 64 387 t b b;
#X msg 64 509 loadbang;
#X obj 91 411 s SAVE-S;
#X obj 64 462 delay 100;
#X obj 308 316 f;
#X obj 308 278 loadbang;
#X obj 162 299 t f f;
#X msg 223 211 \; pd-modules_selection vis 0;
#X obj 177 38 r \$0-reset;
#X msg 83 340 \; pd-default_playground.pd obj 200 200 \$1 \$2;
#X msg 250 171 \; pd-default_playground.pd editmode 1;
#X obj 64 17 r \$0-create-hex-disto;
#X msg 83 235 fx-disto-hex~;
#X obj 64 562 s pd-fx-disto-hex~.pd;
#X connect 0 0 1 0;
#X connect 0 0 5 0;
#X connect 1 0 10 0;
#X connect 1 1 22 0;
#X connect 1 2 2 0;
#X connect 2 0 3 0;
#X connect 2 0 4 0;
#X connect 3 0 2 1;
#X connect 4 0 9 0;
#X connect 5 0 6 0;
#X connect 6 1 20 0;
#X connect 7 0 19 0;
#X connect 8 0 2 1;
#X connect 8 0 9 0;
#X connect 9 0 16 0;
#X connect 10 0 13 0;
#X connect 10 1 12 0;
#X connect 11 0 23 0;
#X connect 13 0 11 0;
#X connect 14 0 2 1;
#X connect 15 0 14 0;
#X connect 16 0 7 1;
#X connect 16 1 14 1;
#X connect 18 0 8 0;
#X connect 21 0 0 0;
#X connect 22 0 7 0;
#X restore 33 47 pd fx-disto-hex~;
#N canvas 114 232 671 620 fx-octafuzz-hex~ 0;
#X msg 64 84 bang;
#X obj 64 151 t b b b;
#X obj 162 168 f;
#X obj 191 168 + 1;
#X obj 162 257 + 1;
#X obj 223 101 delay 250;
#X obj 223 123 t b b;
#X obj 83 316 pack s f;
#X msg 177 60 0;
#X obj 162 280 nbx 5 14 -1e+37 1e+37 0 1 empty empty empty 0 -8 0 10
-262144 -1 -1 6 256;
#X obj 64 387 t b b;
#X msg 64 509 loadbang;
#X obj 91 411 s SAVE-S;
#X obj 64 462 delay 100;
#X obj 308 316 f;
#X obj 308 278 loadbang;
#X obj 162 299 t f f;
#X msg 223 211 \; pd-modules_selection vis 0;
#X obj 177 38 r \$0-reset;
#X msg 83 340 \; pd-default_playground.pd obj 200 200 \$1 \$2;
#X msg 250 171 \; pd-default_playground.pd editmode 1;
#X obj 64 17 r \$0-create-hex-octafuzz;
#X msg 83 235 fx-octafuzz-hex~;
#X obj 64 562 s pd-fx-disto-hex~.pd;
#X connect 0 0 1 0;
#X connect 0 0 5 0;
#X connect 1 0 10 0;
#X connect 1 1 22 0;
#X connect 1 2 2 0;
#X connect 2 0 3 0;
#X connect 2 0 4 0;
#X connect 3 0 2 1;
#X connect 4 0 9 0;
#X connect 5 0 6 0;
#X connect 6 1 20 0;
#X connect 7 0 19 0;
#X connect 8 0 2 1;
#X connect 8 0 9 0;
#X connect 9 0 16 0;
#X connect 10 0 13 0;
#X connect 10 1 12 0;
#X connect 11 0 23 0;
#X connect 13 0 11 0;
#X connect 14 0 2 1;
#X connect 15 0 14 0;
#X connect 16 0 7 1;
#X connect 16 1 14 1;
#X connect 18 0 8 0;
#X connect 21 0 0 0;
#X connect 22 0 7 0;
#X restore 33 67 pd fx-octafuzz-hex~;
#N canvas 1280 22 1920 1036 fx-trem-hex~ 0;
#X msg 64 84 bang;
#X obj 64 151 t b b b;
#X obj 162 168 f;
#X obj 191 168 + 1;
#X obj 162 257 + 1;
#X obj 223 101 delay 250;
#X obj 223 123 t b b;
#X obj 83 316 pack s f;
#X msg 177 60 0;
#X obj 162 280 nbx 5 14 -1e+37 1e+37 0 1 empty empty empty 0 -8 0 10
-262144 -1 -1 11 256;
#X obj 64 387 t b b;
#X msg 64 509 loadbang;
#X obj 91 411 s SAVE-S;
#X obj 64 462 delay 100;
#X obj 308 316 f;
#X obj 308 278 loadbang;
#X obj 162 299 t f f;
#X msg 223 211 \; pd-modules_selection vis 0;
#X obj 177 38 r \$0-reset;
#X msg 83 340 \; pd-default_playground.pd obj 200 200 \$1 \$2;
#X msg 250 171 \; pd-default_playground.pd editmode 1;
#X obj 64 17 r \$0-create-hex-tremolo;
#X msg 83 235 fx-tremolo-hex~;
#X obj 64 561 s pd-fx-tremolo-hex~.pd;
#X connect 0 0 1 0;
#X connect 0 0 5 0;
#X connect 1 0 10 0;
#X connect 1 1 22 0;
#X connect 1 2 2 0;
#X connect 2 0 3 0;
#X connect 2 0 4 0;
#X connect 3 0 2 1;
#X connect 4 0 9 0;
#X connect 5 0 6 0;
#X connect 6 1 20 0;
#X connect 7 0 19 0;
#X connect 8 0 2 1;
#X connect 8 0 9 0;
#X connect 9 0 16 0;
#X connect 10 0 13 0;
#X connect 10 1 12 0;
#X connect 11 0 23 0;
#X connect 13 0 11 0;
#X connect 14 0 2 1;
#X connect 15 0 14 0;
#X connect 16 0 7 1;
#X connect 16 1 14 1;
#X connect 18 0 8 0;
#X connect 21 0 0 0;
#X connect 22 0 7 0;
#X restore 33 87 pd fx-trem-hex~;
#N canvas 88 30 671 620 fx-trem-mono~ 0;
#X msg 64 84 bang;
#X obj 64 151 t b b b;
#X obj 162 168 f;
#X obj 191 168 + 1;
#X obj 162 257 + 1;
#X obj 223 101 delay 250;
#X obj 223 123 t b b;
#X obj 83 316 pack s f;
#X msg 177 60 0;
#X obj 162 280 nbx 5 14 -1e+37 1e+37 0 1 empty empty empty 0 -8 0 10
-262144 -1 -1 7 256;
#X obj 64 387 t b b;
#X msg 64 509 loadbang;
#X obj 91 411 s SAVE-S;
#X obj 64 462 delay 100;
#X obj 308 316 f;
#X obj 308 278 loadbang;
#X obj 162 299 t f f;
#X msg 223 211 \; pd-modules_selection vis 0;
#X obj 177 38 r \$0-reset;
#X msg 83 340 \; pd-default_playground.pd obj 200 200 \$1 \$2;
#X obj 64 17 r \$0-create-mono-tremolo;
#X msg 250 171 \; pd-default_playground.pd editmode 1;
#X msg 83 235 fx-tremolo-mono~;
#X obj 64 562 s pd-fx-tremolo-mono~.pd;
#X connect 0 0 1 0;
#X connect 0 0 5 0;
#X connect 1 0 10 0;
#X connect 1 1 22 0;
#X connect 1 2 2 0;
#X connect 2 0 3 0;
#X connect 2 0 4 0;
#X connect 3 0 2 1;
#X connect 4 0 9 0;
#X connect 5 0 6 0;
#X connect 6 1 21 0;
#X connect 7 0 19 0;
#X connect 8 0 2 1;
#X connect 8 0 9 0;
#X connect 9 0 16 0;
#X connect 10 0 13 0;
#X connect 10 1 12 0;
#X connect 11 0 23 0;
#X connect 13 0 11 0;
#X connect 14 0 2 1;
#X connect 15 0 14 0;
#X connect 16 0 7 1;
#X connect 16 1 14 1;
#X connect 18 0 8 0;
#X connect 20 0 0 0;
#X connect 22 0 7 0;
#X restore 172 87 pd fx-trem-mono~;
#N canvas 584 27 450 618 fx-disto-mono~ 0;
#X msg 100 -627 bang;
#X obj 100 -560 t b b b;
#X obj 198 -543 f;
#X obj 227 -543 + 1;
#X obj 198 -454 + 1;
#X obj 259 -610 delay 250;
#X obj 259 -588 t b b;
#X obj 119 -395 pack s f;
#X msg 213 -651 0;
#X obj 198 -431 nbx 5 14 -1e+37 1e+37 0 1 empty empty empty 0 -8 0
10 -262144 -1 -1 8 256;
#X obj 100 -324 t b b;
#X msg 100 -202 loadbang;
#X obj 127 -300 s SAVE-S;
#X obj 100 -249 delay 100;
#X obj 344 -395 f;
#X obj 344 -433 loadbang;
#X obj 198 -412 t f f;
#X msg 259 -500 \; pd-modules_selection vis 0;
#X obj 213 -673 r \$0-reset;
#X msg 119 -371 \; pd-default_playground.pd obj 200 200 \$1 \$2;
#X msg 286 -540 \; pd-default_playground.pd editmode 1;
#X obj 100 -694 r \$0-create-mono-disto;
#X obj 100 -149 s pd-fx-disto-mono~.pd;
#X msg 119 -476 fx-disto-mono~;
#X connect 0 0 1 0;
#X connect 0 0 5 0;
#X connect 1 0 10 0;
#X connect 1 1 23 0;
#X connect 1 2 2 0;
#X connect 2 0 3 0;
#X connect 2 0 4 0;
#X connect 3 0 2 1;
#X connect 4 0 9 0;
#X connect 5 0 6 0;
#X connect 6 1 20 0;
#X connect 7 0 19 0;
#X connect 8 0 2 1;
#X connect 8 0 9 0;
#X connect 9 0 16 0;
#X connect 10 0 13 0;
#X connect 10 1 12 0;
#X connect 11 0 22 0;
#X connect 13 0 11 0;
#X connect 14 0 2 1;
#X connect 15 0 14 0;
#X connect 16 0 7 1;
#X connect 16 1 14 1;
#X connect 18 0 8 0;
#X connect 21 0 0 0;
#X connect 23 0 7 0;
#X restore 171 47 pd fx-disto-mono~;
#N canvas 0 22 1280 681 fx-ringmod-hex~ 0;
#X msg 64 84 bang;
#X obj 64 151 t b b b;
#X obj 162 168 f;
#X obj 191 168 + 1;
#X obj 162 257 + 1;
#X obj 223 101 delay 250;
#X obj 223 123 t b b;
#X obj 83 316 pack s f;
#X msg 177 60 0;
#X obj 162 280 nbx 5 14 -1e+37 1e+37 0 1 empty empty empty 0 -8 0 10
-262144 -1 -1 11 256;
#X obj 64 387 t b b;
#X msg 64 509 loadbang;
#X obj 91 411 s SAVE-S;
#X obj 64 462 delay 100;
#X obj 308 316 f;
#X obj 308 278 loadbang;
#X obj 162 299 t f f;
#X msg 223 211 \; pd-modules_selection vis 0;
#X obj 177 38 r \$0-reset;
#X msg 83 340 \; pd-default_playground.pd obj 200 200 \$1 \$2;
#X msg 250 171 \; pd-default_playground.pd editmode 1;
#X obj 64 17 r \$0-create-hex-ringmod;
#X msg 83 235 fx-ringmod-hex~;
#X obj 65 561 s pd-fx-ringmod-hex~.pd;
#X connect 0 0 1 0;
#X connect 0 0 5 0;
#X connect 1 0 10 0;
#X connect 1 1 22 0;
#X connect 1 2 2 0;
#X connect 2 0 3 0;
#X connect 2 0 4 0;
#X connect 3 0 2 1;
#X connect 4 0 9 0;
#X connect 5 0 6 0;
#X connect 6 1 20 0;
#X connect 7 0 19 0;
#X connect 8 0 2 1;
#X connect 8 0 9 0;
#X connect 9 0 16 0;
#X connect 10 0 13 0;
#X connect 10 1 12 0;
#X connect 11 0 23 0;
#X connect 13 0 11 0;
#X connect 14 0 2 1;
#X connect 15 0 14 0;
#X connect 16 0 7 1;
#X connect 16 1 14 1;
#X connect 18 0 8 0;
#X connect 21 0 0 0;
#X connect 22 0 7 0;
#X restore 32 110 pd fx-ringmod-hex~;
#N canvas 88 30 671 620 fx-ringmod-mono~ 0;
#X msg 64 84 bang;
#X obj 64 151 t b b b;
#X obj 162 168 f;
#X obj 191 168 + 1;
#X obj 162 257 + 1;
#X obj 223 101 delay 250;
#X obj 223 123 t b b;
#X obj 83 316 pack s f;
#X msg 177 60 0;
#X obj 162 280 nbx 5 14 -1e+37 1e+37 0 1 empty empty empty 0 -8 0 10
-262144 -1 -1 10 256;
#X obj 64 387 t b b;
#X msg 64 509 loadbang;
#X obj 91 411 s SAVE-S;
#X obj 64 462 delay 100;
#X obj 308 316 f;
#X obj 308 278 loadbang;
#X obj 162 299 t f f;
#X msg 223 211 \; pd-modules_selection vis 0;
#X obj 177 38 r \$0-reset;
#X msg 83 340 \; pd-default_playground.pd obj 200 200 \$1 \$2;
#X msg 250 171 \; pd-default_playground.pd editmode 1;
#X obj 64 17 r \$0-create-mono-ringmod;
#X msg 83 235 fx-ringmod-mono~;
#X obj 64 562 s pd-fx-ringmod-mono~.pd;
#X connect 0 0 1 0;
#X connect 0 0 5 0;
#X connect 1 0 10 0;
#X connect 1 1 22 0;
#X connect 1 2 2 0;
#X connect 2 0 3 0;
#X connect 2 0 4 0;
#X connect 3 0 2 1;
#X connect 4 0 9 0;
#X connect 5 0 6 0;
#X connect 6 1 20 0;
#X connect 7 0 19 0;
#X connect 8 0 2 1;
#X connect 8 0 9 0;
#X connect 9 0 16 0;
#X connect 10 0 13 0;
#X connect 10 1 12 0;
#X connect 11 0 23 0;
#X connect 13 0 11 0;
#X connect 14 0 2 1;
#X connect 15 0 14 0;
#X connect 16 0 7 1;
#X connect 16 1 14 1;
#X connect 18 0 8 0;
#X connect 21 0 0 0;
#X connect 22 0 7 0;
#X restore 171 110 pd fx-ringmod-mono~;
#N canvas 0 22 1280 681 fx-phaser-hex~ 0;
#X msg 107 -393 bang;
#X obj 107 -326 t b b b;
#X obj 205 -309 f;
#X obj 234 -309 + 1;
#X obj 205 -220 + 1;
#X obj 266 -376 delay 250;
#X obj 266 -354 t b b;
#X obj 126 -161 pack s f;
#X msg 220 -417 0;
#X obj 205 -197 nbx 5 14 -1e+37 1e+37 0 1 empty empty empty 0 -8 0
10 -262144 -1 -1 8 256;
#X obj 107 -90 t b b;
#X msg 107 32 loadbang;
#X obj 134 -66 s SAVE-S;
#X obj 107 -15 delay 100;
#X obj 351 -161 f;
#X obj 351 -199 loadbang;
#X obj 205 -178 t f f;
#X msg 266 -266 \; pd-modules_selection vis 0;
#X obj 220 -439 r \$0-reset;
#X msg 126 -137 \; pd-default_playground.pd obj 200 200 \$1 \$2;
#X msg 293 -306 \; pd-default_playground.pd editmode 1;
#X obj 107 -460 r \$0-create-hex-phaser;
#X msg 126 -242 fx-phaser-hex~;
#X obj 108 84 s pd-fx-phaser-hex~.pd;
#X connect 0 0 1 0;
#X connect 0 0 5 0;
#X connect 1 0 10 0;
#X connect 1 1 22 0;
#X connect 1 2 2 0;
#X connect 2 0 3 0;
#X connect 2 0 4 0;
#X connect 3 0 2 1;
#X connect 4 0 9 0;
#X connect 5 0 6 0;
#X connect 6 1 20 0;
#X connect 7 0 19 0;
#X connect 8 0 2 1;
#X connect 8 0 9 0;
#X connect 9 0 16 0;
#X connect 10 0 13 0;
#X connect 10 1 12 0;
#X connect 11 0 23 0;
#X connect 13 0 11 0;
#X connect 14 0 2 1;
#X connect 15 0 14 0;
#X connect 16 0 7 1;
#X connect 16 1 14 1;
#X connect 18 0 8 0;
#X connect 21 0 0 0;
#X connect 22 0 7 0;
#X restore 31 134 pd fx-phaser-hex~;
#N canvas 506 22 671 643 fx-phaser-mono~ 0;
#X msg 64 84 bang;
#X obj 64 151 t b b b;
#X obj 162 168 f;
#X obj 191 168 + 1;
#X obj 162 257 + 1;
#X obj 223 101 delay 250;
#X obj 223 123 t b b;
#X obj 83 316 pack s f;
#X msg 177 60 0;
#X obj 162 280 nbx 5 14 -1e+37 1e+37 0 1 empty empty empty 0 -8 0 10
-262144 -1 -1 11 256;
#X obj 64 387 t b b;
#X msg 64 509 loadbang;
#X obj 91 411 s SAVE-S;
#X obj 64 462 delay 100;
#X obj 308 316 f;
#X obj 308 278 loadbang;
#X obj 162 299 t f f;
#X msg 223 211 \; pd-modules_selection vis 0;
#X obj 177 38 r \$0-reset;
#X msg 83 340 \; pd-default_playground.pd obj 200 200 \$1 \$2;
#X msg 250 171 \; pd-default_playground.pd editmode 1;
#X obj 64 17 r \$0-create-mono-phaser;
#X msg 83 235 fx-phaser-mono~;
#X obj 64 562 s pd-fx-phaser-mono~.pd;
#X connect 0 0 1 0;
#X connect 0 0 5 0;
#X connect 1 0 10 0;
#X connect 1 1 22 0;
#X connect 1 2 2 0;
#X connect 2 0 3 0;
#X connect 2 0 4 0;
#X connect 3 0 2 1;
#X connect 4 0 9 0;
#X connect 5 0 6 0;
#X connect 6 1 20 0;
#X connect 7 0 19 0;
#X connect 8 0 2 1;
#X connect 8 0 9 0;
#X connect 9 0 16 0;
#X connect 10 0 13 0;
#X connect 10 1 12 0;
#X connect 11 0 23 0;
#X connect 13 0 11 0;
#X connect 14 0 2 1;
#X connect 15 0 14 0;
#X connect 16 0 7 1;
#X connect 16 1 14 1;
#X connect 18 0 8 0;
#X connect 21 0 0 0;
#X connect 22 0 7 0;
#X restore 170 134 pd fx-phaser-mono~;
#N canvas 0 22 1280 681 fx-reverb-hex~ 0;
#X msg 107 -393 bang;
#X obj 107 -326 t b b b;
#X obj 205 -309 f;
#X obj 234 -309 + 1;
#X obj 205 -220 + 1;
#X obj 266 -376 delay 250;
#X obj 266 -354 t b b;
#X obj 126 -161 pack s f;
#X msg 220 -417 0;
#X obj 205 -197 nbx 5 14 -1e+37 1e+37 0 1 empty empty empty 0 -8 0
10 -262144 -1 -1 11 256;
#X obj 107 -90 t b b;
#X msg 107 32 loadbang;
#X obj 134 -66 s SAVE-S;
#X obj 107 -15 delay 100;
#X obj 351 -161 f;
#X obj 351 -199 loadbang;
#X obj 205 -178 t f f;
#X msg 266 -266 \; pd-modules_selection vis 0;
#X obj 220 -439 r \$0-reset;
#X msg 126 -137 \; pd-default_playground.pd obj 200 200 \$1 \$2;
#X msg 293 -306 \; pd-default_playground.pd editmode 1;
#X obj 107 -460 r \$0-create-hex-reverb;
#X msg 126 -242 fx-reverb-hex~;
#X obj 108 84 s pd-fx-reverb-hex~.pd;
#X connect 0 0 1 0;
#X connect 0 0 5 0;
#X connect 1 0 10 0;
#X connect 1 1 22 0;
#X connect 1 2 2 0;
#X connect 2 0 3 0;
#X connect 2 0 4 0;
#X connect 3 0 2 1;
#X connect 4 0 9 0;
#X connect 5 0 6 0;
#X connect 6 1 20 0;
#X connect 7 0 19 0;
#X connect 8 0 2 1;
#X connect 8 0 9 0;
#X connect 9 0 16 0;
#X connect 10 0 13 0;
#X connect 10 1 12 0;
#X connect 11 0 23 0;
#X connect 13 0 11 0;
#X connect 14 0 2 1;
#X connect 15 0 14 0;
#X connect 16 0 7 1;
#X connect 16 1 14 1;
#X connect 18 0 8 0;
#X connect 21 0 0 0;
#X connect 22 0 7 0;
#X restore 31 157 pd fx-reverb-hex~;
#N canvas 506 22 671 643 fx-reverb-mono~ 0;
#X msg 64 84 bang;
#X obj 64 151 t b b b;
#X obj 162 168 f;
#X obj 191 168 + 1;
#X obj 162 257 + 1;
#X obj 223 101 delay 250;
#X obj 223 123 t b b;
#X obj 83 316 pack s f;
#X msg 177 60 0;
#X obj 162 280 nbx 5 14 -1e+37 1e+37 0 1 empty empty empty 0 -8 0 10
-262144 -1 -1 16 256;
#X obj 64 387 t b b;
#X msg 64 509 loadbang;
#X obj 91 411 s SAVE-S;
#X obj 64 462 delay 100;
#X obj 308 316 f;
#X obj 308 278 loadbang;
#X obj 162 299 t f f;
#X msg 223 211 \; pd-modules_selection vis 0;
#X obj 177 38 r \$0-reset;
#X msg 83 340 \; pd-default_playground.pd obj 200 200 \$1 \$2;
#X msg 250 171 \; pd-default_playground.pd editmode 1;
#X obj 64 17 r \$0-create-mono-reverb;
#X msg 83 235 fx-reverb-mono~;
#X obj 64 562 s pd-fx-reverb-mono~.pd;
#X connect 0 0 1 0;
#X connect 0 0 5 0;
#X connect 1 0 10 0;
#X connect 1 1 22 0;
#X connect 1 2 2 0;
#X connect 2 0 3 0;
#X connect 2 0 4 0;
#X connect 3 0 2 1;
#X connect 4 0 9 0;
#X connect 5 0 6 0;
#X connect 6 1 20 0;
#X connect 7 0 19 0;
#X connect 8 0 2 1;
#X connect 8 0 9 0;
#X connect 9 0 16 0;
#X connect 10 0 13 0;
#X connect 10 1 12 0;
#X connect 11 0 23 0;
#X connect 13 0 11 0;
#X connect 14 0 2 1;
#X connect 15 0 14 0;
#X connect 16 0 7 1;
#X connect 16 1 14 1;
#X connect 18 0 8 0;
#X connect 21 0 0 0;
#X connect 22 0 7 0;
#X restore 170 157 pd fx-reverb-mono~;
#N canvas 1000 421 671 643 fx-del-adaptative~ 0;
#X msg 64 84 bang;
#X obj 64 151 t b b b;
#X obj 162 168 f;
#X obj 191 168 + 1;
#X obj 162 257 + 1;
#X obj 223 101 delay 250;
#X obj 223 123 t b b;
#X msg 175 81 0;
#X obj 162 280 nbx 5 14 -1e+37 1e+37 0 1 empty empty empty 0 -8 0 10
-262144 -1 -1 10 256;
#X obj 64 387 t b b;
#X msg 64 509 loadbang;
#X obj 91 411 s SAVE-S;
#X obj 64 462 delay 100;
#X obj 308 290 f;
#X obj 308 262 loadbang;
#X obj 162 299 t f f;
#X msg 223 211 \; pd-modules_selection vis 0;
#X obj 175 59 r \$0-reset;
#X msg 250 171 \; pd-default_playground.pd editmode 1;
#X obj 64 562 s pd-fx-del-adaptative~.pd;
#X obj 64 17 r \$0-create-adaptative-delay;
#X msg 83 235 fx-del-adaptative~;
#X obj 424 268 r nb_of_instances;
#X floatatom 424 292 5 0 0 0 - - -, f 5;
#X msg 83 340 \; pd-default_playground.pd obj 200 200 \$1 \$2 \$3;
#X obj 83 316 pack s f f;
#X text 151 318 name of patch \, fx-id \, nb_of_channels;
#X connect 0 0 1 0;
#X connect 0 0 5 0;
#X connect 1 0 9 0;
#X connect 1 1 21 0;
#X connect 1 2 2 0;
#X connect 2 0 3 0;
#X connect 2 0 4 0;
#X connect 3 0 2 1;
#X connect 4 0 8 0;
#X connect 5 0 6 0;
#X connect 6 1 18 0;
#X connect 7 0 2 1;
#X connect 7 0 8 0;
#X connect 8 0 15 0;
#X connect 9 0 12 0;
#X connect 9 1 11 0;
#X connect 10 0 19 0;
#X connect 12 0 10 0;
#X connect 13 0 2 1;
#X connect 14 0 13 0;
#X connect 15 0 25 1;
#X connect 15 1 13 1;
#X connect 17 0 7 0;
#X connect 20 0 0 0;
#X connect 21 0 25 0;
#X connect 22 0 23 0;
#X connect 23 0 25 2;
#X connect 25 0 24 0;
#X restore 173 221 pd fx-del-adaptative~;
#X restore 7 38 pd fx;
#X restore 873 41 pd abs-creation;
#X obj 3 6 bng 15 250 50 0 open-modules empty MODULES 20 8 0 10 -262144
-1 -1;
#X obj 3 26 bng 15 250 50 0 \$0-reset empty RESET 20 8 0 10 -262144
-1 -1;
#X obj 3 46 bng 15 250 50 0 \$0-save empty SAVE 20 8 0 10 -262144 -1
-1;
#X text 754 82 Pour valider;
#X text 764 102 Global audio input et output;
#X text 764 122 Preset;
#X text 764 142 Mono delay;
#X text 883 118 | numbox sous slider;
#X text 883 132 | Nom du module;
#X text 883 147 | Nom input/output;
#X obj 873 9 declare -path abs;
#X msg 949 455 4 5 6 7 1 8;
#X text 1029 456 octo matrix output;
#X text 1050 232 octo matrix output;
#X msg 970 231 8 7 6 5 4 3;
#X obj 765 178 control_structure;
#X text 79 206 5 : E low;
#X text 79 231 6 : A;
#X text 34 108 Inputs;
#X text 80 108 1 : B;
#X text 80 133 2 : E high;
#X text 79 158 3 : D;
#X text 77 182 4 : G;
#X floatatom 660 243 5 0 0 0 - - -, f 5;
#X floatatom 748 234 5 0 0 0 - - -, f 5;
#X floatatom 861 360 5 0 0 0 - - -, f 5;
#X obj 660 273 / 127;
#X obj 756 262 / 127;
#X obj 861 383 / 127;
#X obj 660 341 *;
#X obj 675 294 loadbang;
#X floatatom 660 393 5 0 0 0 - - -, f 5;
#X msg 710 318 0.5;
#X obj 660 369 +;
#X msg 675 316 49.5;
#X obj 761 341 *;
#X obj 776 294 loadbang;
#X floatatom 761 393 5 0 0 0 - - -, f 5;
#X msg 776 316 100;
#X msg 809 317 50;
#X obj 761 369 -;
#X floatatom 861 406 5 0 0 0 - - -, f 5;
#X obj 304 218 fx-del-hex~ 3;
#X obj 305 391 fx-disto-hex~ 4;
#X obj 304 53 in-hex~ 2;
#X obj 305 535 out-hex~ 2;
#X obj 729 531 fx-del-adaptative~ 10 6;
#X text 728 715 Create GUI abs for FX \, created patches should generate
gui and snd \, which in return should be automatically created;
#X connect 1 0 0 0;
#X connect 19 0 27 0;
#X connect 19 1 28 0;
#X connect 19 2 29 0;
#X connect 27 0 30 0;
#X connect 28 0 31 0;
#X connect 29 0 32 0;
#X connect 30 0 33 0;
#X connect 31 0 39 0;
#X connect 32 0 45 0;
#X connect 33 0 37 0;
#X connect 34 0 38 0;
#X connect 34 0 36 0;
#X connect 35 0 46 6;
#X connect 36 0 37 1;
#X connect 37 0 35 0;
#X connect 38 0 33 1;
#X connect 39 0 44 0;
#X connect 40 0 42 0;
#X connect 40 0 43 0;
#X connect 41 0 46 7;
#X connect 42 0 39 1;
#X connect 43 0 44 1;
#X connect 44 0 41 0;
#X connect 45 0 46 9;
#X connect 46 0 47 0;
#X connect 46 1 47 1;
#X connect 46 2 47 2;
#X connect 46 3 47 3;
#X connect 46 4 47 4;
#X connect 46 5 47 5;
#X connect 47 0 49 0;
#X connect 47 1 49 1;
#X connect 47 2 49 2;
#X connect 47 3 49 3;
#X connect 47 4 49 4;
#X connect 47 5 49 5;
#X connect 48 0 46 0;
#X connect 48 1 46 1;
#X connect 48 2 46 2;
#X connect 48 3 46 3;
#X connect 48 4 46 4;
#X connect 48 5 46 5;
