#N canvas 653 137 525 488 10;
#X obj 196 215 grandelay;
#X floatatom 247 188 5 0 99.9 0 - - -, f 5;
#X text 280 145 taille grain;
#X text 322 167 delay;
#X text 304 190 feedback;
#X obj 188 278 dac~;
#X floatatom 234 165 5 0 0 0 - - -, f 5;
#X floatatom 221 143 5 -100 100 0 - - -, f 5;
#X floatatom 208 121 5 0 100 0 - - -, f 5;
#X text 244 121 vitesse de lecture;
#X obj 57 88 readsf~ 2 44100;
#X obj 159 130 bng 15 250 50 0 empty empty empty 17 7 0 10 -262144
-1 -1;
#X obj 219 49 tgl 15 0 empty empty empty 17 7 0 10 -262144 -1 -1 1
1;
#X msg 69 36 open noeffect.wav;
#X connect 0 0 5 0;
#X connect 0 0 5 1;
#X connect 1 0 0 4;
#X connect 6 0 0 3;
#X connect 7 0 0 2;
#X connect 8 0 0 1;
#X connect 10 0 0 0;
#X connect 10 0 5 0;
#X connect 10 1 0 0;
#X connect 10 2 11 0;
#X connect 12 0 10 0;
#X connect 13 0 10 0;
