#N canvas 572 41 444 564 10;
#X obj 80 338 fexpr~ fmod($y+$x \, 1);
#X obj 79 316 *~;
#X obj 78 288 expr~ if($v1<0 \, $v1+1 \, $v1);
#X obj 78 177 hilbert~;
#X obj 42 516 dac~;
#X obj 79 370 -~ 0.25;
#X obj 78 391 cos~;
#X obj 24 442 *~ 0;
#X obj 49 416 tgl 15 0 empty empty empty 17 7 0 10 -262144 -1 -1 1
1;
#X obj 78 443 *~ 0;
#X obj 103 419 tgl 15 0 empty empty empty 17 7 0 10 -262144 -1 -1 1
1;
#X obj 18 132 readsf~ 2 44100;
#X obj 90 77 tgl 15 0 empty empty empty 17 7 0 10 -262144 -1 -1 1 1
;
#X obj 149 162 bng 15 250 50 0 empty empty empty 17 7 0 10 -262144
-1 -1;
#X obj 87 480 lop~ 5;
#X floatatom 156 453 5 0 0 0 - - -, f 5;
#X obj 78 215 expr~ atan2($v2 \, $v1)/2.0/3.1415926;
#X obj 79 260 rzero~ 1;
#X floatatom 322 260 5 0 0 0 - - -, f 5;
#X obj 312 324 sig~ 1;
#X msg 12 20 open accord.wav;
#X connect 0 0 5 0;
#X connect 1 0 0 0;
#X connect 2 0 1 0;
#X connect 3 0 16 0;
#X connect 3 1 16 1;
#X connect 5 0 6 0;
#X connect 6 0 9 0;
#X connect 7 0 4 0;
#X connect 7 0 4 1;
#X connect 8 0 7 1;
#X connect 9 0 14 0;
#X connect 10 0 9 1;
#X connect 11 0 3 0;
#X connect 11 0 7 0;
#X connect 11 1 3 0;
#X connect 11 1 7 0;
#X connect 11 2 13 0;
#X connect 12 0 11 0;
#X connect 14 0 4 1;
#X connect 14 0 4 0;
#X connect 15 0 14 1;
#X connect 16 0 17 0;
#X connect 17 0 2 0;
#X connect 18 0 19 0;
#X connect 19 0 1 1;
#X connect 20 0 11 0;
