#N canvas -5 0 1220 628 8;
#X obj 838 187 adc~;
#X obj 935 156 delwrite~ dilsa2 1000;
#X obj 838 237 delwrite~ dilsa1 1000;
#X floatatom 952 238 5 0 99.9 0 - - -, f 5;
#X obj 952 288 / 100;
#X obj 925 334 *~ 0.9;
#X obj 1045 251 *~ 0.9;
#X floatatom 778 316 5 0 0 0 - - -, f 5;
#X obj 778 374 delread~ dilsa1;
#X obj 990 354 * 2;
#X floatatom 990 374 5 0 0 0 - - -, f 5;
#X obj 778 407 throw~ dilsata;
#X obj 990 418 delread~ dilsa2;
#X obj 990 460 throw~ dilsata;
#X obj 129 57 t b f;
#X floatatom 238 59 5 0 0 0 - - -, f 5;
#X obj 279 86 t b f;
#X floatatom 151 94 5 0 0 0 - - -, f 5;
#X floatatom 151 166 5 0 0 0 - - -, f 5;
#X obj 151 129 expr (pow(2 \, ($f2/12)) - 1) * (44100/$f1);
#X floatatom 429 142 5 0 0 0 - - -, f 5;
#X obj 429 118 / 44.1;
#X obj 169 221 phasor~;
#X obj 49 299 *~ -1;
#X obj 50 340 +~ 1.2;
#X obj 93 402 *~;
#X obj 105 379 samphold~;
#X obj 105 340 sig~;
#X obj 110 457 *~;
#X obj 150 352 sig~ 1;
#X obj 197 339 cos~;
#X obj 160 389 -~;
#X obj 161 420 *~ 0.5;
#X obj 110 523 *~ 0.48;
#X obj 229 358 *~ -1;
#X obj 253 421 *~;
#X obj 273 398 samphold~;
#X obj 273 376 sig~;
#X obj 253 446 vd~ b1;
#X obj 254 482 *~;
#X obj 335 379 sig~ 1;
#X obj 377 380 cos~;
#X obj 334 416 -~;
#X obj 335 451 *~ 0.5;
#X obj 314 327 wrap~;
#X obj 315 297 +~ 0.5;
#X obj 229 394 +~ 0.8;
#X obj 49 553 adc~;
#X obj 398 324 *~ -1;
#X obj 424 389 *~;
#X obj 439 368 samphold~;
#X obj 438 307 sig~;
#X obj 423 409 vd~ b1;
#X obj 444 432 *~;
#X obj 484 340 sig~ 1;
#X obj 531 327 cos~;
#X obj 494 377 -~;
#X obj 493 404 *~ 0.5;
#X obj 399 357 +~ 1;
#X obj 443 498 *~ 0.65;
#X obj 426 580 dac~;
#X obj 330 553 *~ 0.65;
#X obj 597 313 *~ -1;
#X obj 594 382 *~;
#X obj 614 359 samphold~;
#X obj 614 336 sig~;
#X obj 594 405 vd~ b1;
#X obj 654 442 *~;
#X obj 665 335 sig~ 1;
#X obj 711 345 cos~;
#X obj 665 377 -~;
#X obj 665 405 *~ 0.5;
#X obj 648 289 wrap~;
#X obj 648 259 +~ 0.5;
#X obj 570 355 +~ 0.8;
#X obj 655 493 *~ 0.48;
#X obj 606 534 adc~;
#X obj 579 14 catch~ dilsata;
#X obj 109 586 delwrite~ \$0-b1 5000;
#X obj 656 578 delwrite~ \$0-b1 5000;
#X obj 579 54 delwrite~ b1 500;
#X obj 92 425 vd~ \$0-b1;
#X text 272 10 taille du grain;
#X text 31 11 vitesse de lecture;
#X text 904 214 feedback;
#X text 743 287 delay;
#X floatatom 129 35 5 0 100 0 - - -, f 5;
#X floatatom 238 38 5 -100 100 0 - - -, f 5;
#X obj 129 10 inlet;
#X obj 238 10 inlet;
#X obj 778 286 inlet;
#X obj 952 215 inlet;
#X obj 430 602 inlet~;
#X obj 471 567 outlet~;
#X connect 0 0 1 0;
#X connect 0 0 2 0;
#X connect 3 0 4 0;
#X connect 4 0 6 0;
#X connect 4 0 5 1;
#X connect 5 0 2 0;
#X connect 6 0 1 0;
#X connect 7 0 8 0;
#X connect 7 0 9 0;
#X connect 8 0 5 0;
#X connect 8 0 11 0;
#X connect 9 0 10 0;
#X connect 10 0 12 0;
#X connect 12 0 13 0;
#X connect 12 0 6 0;
#X connect 14 0 15 0;
#X connect 14 1 17 0;
#X connect 15 0 16 0;
#X connect 16 0 17 0;
#X connect 16 1 19 1;
#X connect 17 0 19 0;
#X connect 17 0 21 0;
#X connect 18 0 22 0;
#X connect 19 0 18 0;
#X connect 20 0 27 0;
#X connect 20 0 37 0;
#X connect 20 0 51 0;
#X connect 20 0 65 0;
#X connect 21 0 20 0;
#X connect 22 0 23 0;
#X connect 22 0 30 0;
#X connect 22 0 26 1;
#X connect 22 0 45 0;
#X connect 22 0 48 0;
#X connect 22 0 50 1;
#X connect 22 0 55 0;
#X connect 22 0 73 0;
#X connect 23 0 24 0;
#X connect 24 0 25 0;
#X connect 25 0 81 0;
#X connect 26 0 25 1;
#X connect 27 0 26 0;
#X connect 28 0 33 0;
#X connect 28 0 61 0;
#X connect 29 0 31 0;
#X connect 30 0 31 1;
#X connect 31 0 32 0;
#X connect 32 0 28 1;
#X connect 33 0 78 0;
#X connect 34 0 46 0;
#X connect 35 0 38 0;
#X connect 36 0 35 1;
#X connect 37 0 36 0;
#X connect 38 0 39 0;
#X connect 39 0 33 0;
#X connect 39 0 61 0;
#X connect 40 0 42 0;
#X connect 41 0 42 1;
#X connect 42 0 43 0;
#X connect 43 0 39 1;
#X connect 44 0 34 0;
#X connect 44 0 36 1;
#X connect 44 0 41 0;
#X connect 45 0 44 0;
#X connect 46 0 35 0;
#X connect 47 0 78 0;
#X connect 47 1 78 0;
#X connect 48 0 58 0;
#X connect 49 0 52 0;
#X connect 50 0 49 1;
#X connect 51 0 50 0;
#X connect 52 0 53 0;
#X connect 53 0 59 0;
#X connect 53 0 75 0;
#X connect 54 0 56 0;
#X connect 55 0 56 1;
#X connect 56 0 57 0;
#X connect 57 0 53 1;
#X connect 58 0 49 0;
#X connect 59 0 60 1;
#X connect 59 0 93 0;
#X connect 61 0 60 0;
#X connect 61 0 93 0;
#X connect 62 0 74 0;
#X connect 63 0 66 0;
#X connect 64 0 63 1;
#X connect 65 0 64 0;
#X connect 66 0 67 0;
#X connect 67 0 75 0;
#X connect 67 0 59 0;
#X connect 68 0 70 0;
#X connect 69 0 70 1;
#X connect 70 0 71 0;
#X connect 71 0 67 1;
#X connect 72 0 62 0;
#X connect 72 0 64 1;
#X connect 72 0 69 0;
#X connect 73 0 72 0;
#X connect 74 0 63 0;
#X connect 75 0 79 0;
#X connect 76 0 79 0;
#X connect 76 1 79 0;
#X connect 77 0 80 0;
#X connect 81 0 28 0;
#X connect 86 0 14 0;
#X connect 87 0 15 0;
#X connect 88 0 86 0;
#X connect 89 0 87 0;
#X connect 90 0 7 0;
#X connect 91 0 3 0;
#X connect 92 0 79 0;
#X connect 92 0 78 0;
