#N canvas 591 368 815 453 10;
#X floatatom 14 34 3 0 0 0 - - -, f 3;
#X floatatom 39 34 3 0 0 0 - - -, f 3;
#X floatatom 64 34 3 0 0 0 - - -, f 3;
#X floatatom 89 34 3 0 0 0 - - -, f 3;
#X floatatom 114 34 3 0 0 0 - - -, f 3;
#X floatatom 139 34 3 0 0 0 - - -, f 3;
#X obj 294 104 pack f f f f f f;
#X obj 469 77 t b f;
#X obj 434 77 t b f;
#X obj 399 77 t b f;
#X obj 364 77 t b f;
#X obj 329 77 t b f;
#X obj 294 126 prepend set;
#X obj 42 248 adc~ 1 2 3 4 5 6, f 42;
#X obj 42 303 outlet~;
#X obj 92 303 outlet~;
#X obj 142 303 outlet~;
#X obj 192 303 outlet~;
#X obj 242 303 outlet~;
#X obj 292 303 outlet~;
#X obj 42 279 *~;
#X obj 92 279 *~;
#X obj 142 279 *~;
#X obj 192 279 *~;
#X obj 242 279 *~;
#X obj 292 279 *~;
#X obj 12 55 vsl 22 45 0 100 0 0 empty empty empty 0 -9 0 10 -262144
-1 -1 3520 1;
#X obj 39 55 vsl 22 45 0 100 0 0 empty empty empty 0 -9 0 10 -262144
-1 -1 3520 1;
#X obj 64 55 vsl 22 45 0 100 0 0 empty empty empty 0 -9 0 10 -262144
-1 -1 3520 1;
#X obj 89 55 vsl 22 45 0 100 0 0 empty empty empty 0 -9 0 10 -262144
-1 -1 3520 1;
#X obj 114 55 vsl 22 45 0 100 0 0 empty empty empty 0 -9 0 10 -262144
-1 -1 3520 1;
#X obj 139 55 vsl 22 45 0 100 0 0 empty empty empty 0 -9 0 10 -262144
-1 -1 3520 1;
#X obj 139 158 / 100;
#X obj 114 178 / 100;
#X obj 89 158 / 100;
#X obj 64 178 / 100;
#X obj 39 158 / 100;
#X obj 12 178 / 100;
#X floatatom 82 13 3 0 0 0 Start-input - -, f 3;
#X obj 124 12 tgl 15 0 empty empty inv 18 7 0 10 -262144 -1 -1 0 1
;
#N canvas 95 434 676 411 in 0;
#X obj 55 81 inlet;
#X obj 238 16 inlet;
#X obj 55 319 outlet;
#X obj 105 319 outlet;
#X obj 155 319 outlet;
#X obj 85 250 + 1;
#X obj 205 319 outlet;
#X obj 255 319 outlet;
#X obj 305 319 outlet;
#X obj 55 250 + 0;
#X obj 115 250 + 2;
#X obj 145 250 + 3;
#X obj 175 250 + 4;
#X obj 205 250 + 5;
#X obj 213 215 unpack f f f f f f;
#X obj 238 38 sel 0 1;
#X obj 355 319 outlet;
#X msg 389 119 \; pd dsp 0 \;;
#X obj 338 177 del 10;
#X msg 338 199 \; pd dsp 1 \;;
#X msg 372 155 5 4 3 2 1 0, f 12;
#X obj 303 20 tgl 15 0 empty empty empty 17 7 0 10 -262144 -1 -1 0
1;
#X obj 372 86 del 10;
#X obj 338 120 t b b b;
#X obj 372 65 t b b;
#X msg 199 109 \; pd dsp 0 \;;
#X obj 148 167 del 10;
#X msg 148 189 \; pd dsp 1 \;;
#X obj 182 76 del 10;
#X obj 148 110 t b b b;
#X obj 182 55 t b b;
#X msg 182 145 0 1 2 3 4 5, f 6;
#X connect 0 0 9 0;
#X connect 0 0 5 0;
#X connect 0 0 10 0;
#X connect 0 0 11 0;
#X connect 0 0 12 0;
#X connect 0 0 13 0;
#X connect 1 0 15 0;
#X connect 5 0 3 0;
#X connect 9 0 2 0;
#X connect 10 0 4 0;
#X connect 11 0 6 0;
#X connect 12 0 7 0;
#X connect 13 0 8 0;
#X connect 14 0 9 1;
#X connect 14 1 5 1;
#X connect 14 2 10 1;
#X connect 14 3 11 1;
#X connect 14 4 12 1;
#X connect 14 5 13 1;
#X connect 15 0 30 0;
#X connect 15 1 24 0;
#X connect 18 0 19 0;
#X connect 20 0 14 0;
#X connect 21 0 15 0;
#X connect 22 0 20 0;
#X connect 22 0 23 0;
#X connect 23 0 18 0;
#X connect 23 1 16 0;
#X connect 23 2 20 0;
#X connect 24 0 22 0;
#X connect 24 1 17 0;
#X connect 26 0 27 0;
#X connect 28 0 31 0;
#X connect 28 0 29 0;
#X connect 29 0 26 0;
#X connect 29 1 16 0;
#X connect 29 2 31 0;
#X connect 30 0 28 0;
#X connect 30 1 25 0;
#X connect 31 0 14 0;
#X restore 179 17 pd in;
#X obj 296 0 loadbang;
#X msg 301 25 1;
#X msg 330 25 0;
#X obj 179 55 vsl 22 45 0 100 0 0 empty empty ALL 3 -9 0 10 -262144
-1 -1 3520 1;
#X obj 22 225 line~;
#X msg 22 201 \$1 10;
#X obj 72 225 line~;
#X msg 72 201 \$1 10;
#X obj 122 225 line~;
#X msg 122 201 \$1 10;
#X obj 172 225 line~;
#X msg 172 201 \$1 10;
#X obj 222 225 line~;
#X msg 222 201 \$1 10;
#X obj 272 225 line~;
#X msg 272 201 \$1 10;
#X floatatom 12 106 3 0 0 0 - - -, f 3;
#X floatatom 39 106 3 0 0 0 - - -, f 3;
#X floatatom 64 106 3 0 0 0 - - -, f 3;
#X floatatom 89 106 3 0 0 0 - - -, f 3;
#X floatatom 114 106 3 0 0 0 - - -, f 3;
#X floatatom 139 106 3 0 0 0 - - -, f 3;
#X msg 360 25 80;
#X text 103 123 HEX_INPUT;
#X connect 0 0 6 0;
#X connect 1 0 11 0;
#X connect 2 0 10 0;
#X connect 3 0 9 0;
#X connect 4 0 8 0;
#X connect 5 0 7 0;
#X connect 6 0 12 0;
#X connect 7 0 0 0;
#X connect 7 1 6 5;
#X connect 8 0 0 0;
#X connect 8 1 6 4;
#X connect 9 0 0 0;
#X connect 9 1 6 3;
#X connect 10 0 0 0;
#X connect 10 1 6 2;
#X connect 11 0 0 0;
#X connect 11 1 6 1;
#X connect 12 0 13 0;
#X connect 13 0 20 0;
#X connect 13 1 21 0;
#X connect 13 2 22 0;
#X connect 13 3 23 0;
#X connect 13 4 24 0;
#X connect 13 5 25 0;
#X connect 20 0 14 0;
#X connect 21 0 15 0;
#X connect 22 0 16 0;
#X connect 23 0 17 0;
#X connect 24 0 18 0;
#X connect 25 0 19 0;
#X connect 26 0 57 0;
#X connect 27 0 58 0;
#X connect 28 0 35 0;
#X connect 29 0 60 0;
#X connect 30 0 61 0;
#X connect 31 0 62 0;
#X connect 32 0 56 0;
#X connect 33 0 54 0;
#X connect 34 0 52 0;
#X connect 35 0 50 0;
#X connect 36 0 48 0;
#X connect 37 0 46 0;
#X connect 38 0 40 0;
#X connect 39 0 40 1;
#X connect 40 0 0 0;
#X connect 40 1 1 0;
#X connect 40 2 2 0;
#X connect 40 3 3 0;
#X connect 40 4 4 0;
#X connect 40 5 5 0;
#X connect 40 6 38 0;
#X connect 41 0 42 0;
#X connect 41 0 43 0;
#X connect 41 0 63 0;
#X connect 42 0 38 0;
#X connect 43 0 39 0;
#X connect 44 0 31 0;
#X connect 44 0 29 0;
#X connect 44 0 30 0;
#X connect 44 0 28 0;
#X connect 44 0 27 0;
#X connect 44 0 26 0;
#X connect 45 0 20 1;
#X connect 46 0 45 0;
#X connect 47 0 21 1;
#X connect 48 0 47 0;
#X connect 49 0 22 1;
#X connect 50 0 49 0;
#X connect 51 0 23 1;
#X connect 52 0 51 0;
#X connect 53 0 24 1;
#X connect 54 0 53 0;
#X connect 55 0 25 1;
#X connect 56 0 55 0;
#X connect 57 0 37 0;
#X connect 58 0 36 0;
#X connect 60 0 34 0;
#X connect 61 0 33 0;
#X connect 62 0 32 0;
#X connect 63 0 44 0;
#X coords 0 -1 1 1 160 130 2 6 10;
