#N canvas 521 23 774 675 10;
#X floatatom 279 49 5 0 1 2 - #0-fb-all-in #0-fb-all, f 5;
#X floatatom 279 32 5 0 5000 2 All #0-del-all-in #0-del-all, f 5;
#X obj 228 -74 inlet delays;
#X obj 210 -96 r \$1-delays-in;
#X floatatom 61 32 5 0 5000 0 level #0-del-6-in #0-del-6, f 5;
#X text 69 18 6;
#X text 104 18 5;
#X text 140 18 4;
#X text 173 18 3;
#X text 209 18 2;
#X text 245 17 1;
#N canvas 327 366 1360 423 hex-processing 0;
#X floatatom 60 169 4 0 5000 1 delay - -, f 4;
#X obj 6 89 inlet~;
#X obj 27 278 *~;
#X floatatom 60 233 4 0 999 1 feedback - -, f 4;
#X floatatom 219 169 4 0 5000 1 delay - -, f 4;
#X obj 175 89 inlet~;
#X obj 194 284 *~;
#X floatatom 213 233 4 0 999 1 feedback - -, f 4;
#X obj 27 315 outlet~;
#X obj 194 315 outlet~;
#X floatatom 379 169 4 0 5000 1 delay - -, f 4;
#X obj 337 89 inlet~;
#X obj 354 284 *~;
#X floatatom 379 233 4 0 999 1 feedback - -, f 4;
#X obj 354 315 outlet~;
#X floatatom 539 169 4 0 5000 1 delay - -, f 4;
#X obj 497 89 inlet~;
#X obj 514 284 *~;
#X floatatom 539 233 4 0 999 1 feedback - -, f 4;
#X obj 514 315 outlet~;
#X floatatom 701 169 4 0 5000 1 delay - -, f 4;
#X obj 659 89 inlet~;
#X obj 676 284 *~;
#X floatatom 701 233 4 0 999 1 feedback - -, f 4;
#X obj 676 315 outlet~;
#X floatatom 861 169 4 0 5000 1 delay - -, f 4;
#X obj 836 284 *~;
#X floatatom 861 233 4 0 999 1 feedback - -, f 4;
#X obj 836 315 outlet~;
#X obj 1016 130 inlet delays;
#X obj 1016 152 unpack f f f f f f;
#X obj 1057 216 unpack f f f f f f;
#X obj 1057 194 inlet feedbacks;
#X obj 1084 72 unpack f f f f f f;
#X obj 1084 50 inlet drywet;
#X obj 69 89 hsl 27 15 0 1 0 0 empty empty empty -2 -8 0 10 -262144
-1 -1 1300 1;
#X obj 229 89 hsl 27 15 0 1 0 0 empty empty empty -2 -8 0 10 -262144
-1 -1 1300 1;
#X obj 401 89 hsl 27 15 0 1 0 0 empty empty empty -2 -8 0 10 -262144
-1 -1 1300 1;
#X obj 561 89 hsl 27 15 0 1 0 0 empty empty empty -2 -8 0 10 -262144
-1 -1 1300 1;
#X obj 713 89 hsl 27 15 0 1 0 0 empty empty empty -2 -8 0 10 -262144
-1 -1 1300 1;
#X obj 873 89 hsl 27 15 0 1 0 0 empty empty empty -2 -8 0 10 -262144
-1 -1 1300 1;
#X obj 820 89 inlet~, f 7;
#X obj 6 109 utils-drywet;
#X obj 175 109 utils-drywet;
#X obj 337 108 utils-drywet;
#X obj 497 108 utils-drywet;
#X obj 659 109 utils-drywet;
#X obj 820 110 utils-drywet;
#X obj 60 249 utils-line~;
#X obj 379 249 utils-line~;
#X obj 539 249 utils-line~;
#X obj 701 249 utils-line~;
#X obj 861 249 utils-line~;
#X obj 213 249 utils-line~;
#X obj 25 139 delwrite~ \$1-del-6~ 5000;
#X obj 195 139 delwrite~ \$1-del-5~ 5000;
#X obj 355 139 delwrite~ \$1-del-4~ 5000;
#X obj 515 139 delwrite~ \$1-del-3~ 5000;
#X obj 677 139 delwrite~ \$1-del-2~ 5000;
#X obj 837 139 delwrite~ \$1-del-1~ 5000;
#X obj 60 208 delread4~ \$1-del-6~;
#X obj 219 207 delread4~ \$1-del-5~;
#X obj 379 207 delread4~ \$1-del-4~;
#X obj 539 207 delread4~ \$1-del-3~;
#X obj 701 207 delread4~ \$1-del-2~;
#X obj 861 207 delread4~ \$1-del-1~, f 27;
#X obj 60 187 utils-line~;
#X obj 219 187 utils-line~;
#X obj 379 187 utils-line~;
#X obj 539 187 utils-line~;
#X obj 701 187 utils-line~;
#X obj 861 187 utils-line~;
#X connect 0 0 66 0;
#X connect 1 0 42 0;
#X connect 2 0 8 0;
#X connect 2 0 54 0;
#X connect 3 0 48 0;
#X connect 4 0 67 0;
#X connect 5 0 43 0;
#X connect 6 0 9 0;
#X connect 6 0 55 0;
#X connect 7 0 53 0;
#X connect 10 0 68 0;
#X connect 11 0 44 0;
#X connect 12 0 14 0;
#X connect 12 0 56 0;
#X connect 13 0 49 0;
#X connect 15 0 69 0;
#X connect 16 0 45 0;
#X connect 17 0 19 0;
#X connect 17 0 57 0;
#X connect 18 0 50 0;
#X connect 20 0 70 0;
#X connect 21 0 46 0;
#X connect 22 0 24 0;
#X connect 22 0 58 0;
#X connect 23 0 51 0;
#X connect 25 0 71 0;
#X connect 26 0 28 0;
#X connect 26 0 59 0;
#X connect 27 0 52 0;
#X connect 29 0 30 0;
#X connect 30 0 0 0;
#X connect 30 1 4 0;
#X connect 30 2 10 0;
#X connect 30 3 15 0;
#X connect 30 4 20 0;
#X connect 30 5 25 0;
#X connect 31 0 3 0;
#X connect 31 1 7 0;
#X connect 31 2 13 0;
#X connect 31 3 18 0;
#X connect 31 4 23 0;
#X connect 31 5 27 0;
#X connect 32 0 31 0;
#X connect 33 0 35 0;
#X connect 33 1 36 0;
#X connect 33 2 37 0;
#X connect 33 3 38 0;
#X connect 33 4 39 0;
#X connect 33 5 40 0;
#X connect 34 0 33 0;
#X connect 35 0 42 1;
#X connect 36 0 43 1;
#X connect 37 0 44 1;
#X connect 38 0 45 1;
#X connect 39 0 46 1;
#X connect 40 0 47 1;
#X connect 41 0 47 0;
#X connect 42 0 8 0;
#X connect 42 1 54 0;
#X connect 43 0 9 0;
#X connect 43 1 55 0;
#X connect 44 0 14 0;
#X connect 44 1 56 0;
#X connect 45 0 19 0;
#X connect 45 1 57 0;
#X connect 46 0 24 0;
#X connect 46 1 58 0;
#X connect 47 0 28 0;
#X connect 47 1 59 0;
#X connect 48 0 2 1;
#X connect 49 0 12 1;
#X connect 50 0 17 1;
#X connect 51 0 22 1;
#X connect 52 0 26 1;
#X connect 53 0 6 1;
#X connect 60 0 2 0;
#X connect 61 0 6 0;
#X connect 62 0 12 0;
#X connect 63 0 17 0;
#X connect 64 0 22 0;
#X connect 65 0 26 0;
#X connect 66 0 60 0;
#X connect 67 0 61 0;
#X connect 68 0 62 0;
#X connect 69 0 63 0;
#X connect 70 0 64 0;
#X connect 71 0 65 0;
#X restore 36 200 pd hex-processing;
#X obj 309 -99 r \$1-feedbacks-in;
#X floatatom 61 49 5 0 1 0 feedback #0-fb-6-in #0-fb-6, f 5;
#X floatatom 96 49 5 0 1 2 - #0-fb-5-in #0-fb-5, f 5;
#X floatatom 131 49 5 0 1 2 - #0-fb-4-in #0-fb-4, f 5;
#X floatatom 166 49 5 0 1 2 - #0-fb-3-in #0-fb-3, f 5;
#X floatatom 202 49 5 0 1 2 - #0-fb-2-in #0-fb-2, f 5;
#X floatatom 237 49 5 0 1 2 - #0-fb-1-in #0-fb-1, f 5;
#X obj 36 129 inlet~;
#X obj 55 151 inlet~;
#X obj 75 171 inlet~;
#X obj 95 129 inlet~;
#X obj 115 151 inlet~;
#X obj 135 171 inlet~;
#X obj 36 225 outlet~;
#X obj 67 245 outlet~;
#X obj 99 265 outlet~;
#X obj 131 225 outlet~;
#X obj 163 245 outlet~;
#X obj 195 265 outlet~;
#X obj 3 8 cnv 5 5 5 empty empty |-----------------INPUTS----------------|
0 0 0 8 -262144 -66577 0;
#X obj 237 9 cnv 5 5 5 empty empty DELs 0 0 0 8 -262144 -66577 0;
#X obj 273 9 cnv 5 5 5 empty empty FBs 0 0 0 8 -262144 -66577 0;
#X obj 3 114 cnv 5 5 5 empty empty |---------------------------OUTPUTS--------------------------|
0 0 0 8 -262144 -66577 0;
#X floatatom 96 32 5 0 5000 0 - #0-del-5-in #0-del-5, f 5;
#X floatatom 131 32 5 0 5000 0 - #0-del-4-in #0-del-4, f 5;
#X floatatom 166 32 5 0 5000 0 - #0-del-3-in #0-del-3, f 5;
#X floatatom 202 32 5 0 5000 0 - #0-del-2-in #0-del-2, f 5;
#X floatatom 237 32 5 0 5000 0 - #0-del-1-in #0-del-1, f 5;
#N canvas 496 184 450 300 sends 0;
#X obj 39 23 inlet;
#X obj 39 65 unpack f f f f f f;
#X obj 39 87 s \$0-del-6-in;
#X obj 60 107 s \$0-del-5-in;
#X obj 81 127 s \$0-del-4-in;
#X obj 102 147 s \$0-del-3-in;
#X obj 123 167 s \$0-del-2-in;
#X obj 144 187 s \$0-del-1-in;
#X msg 187 34 \$1 \$1 \$1 \$1 \$1 \$1;
#X obj 187 12 r \$0-del-all;
#X connect 0 0 1 0;
#X connect 1 0 2 0;
#X connect 1 1 3 0;
#X connect 1 2 4 0;
#X connect 1 3 5 0;
#X connect 1 4 6 0;
#X connect 1 5 7 0;
#X connect 8 0 1 0;
#X connect 9 0 8 0;
#X restore 210 -45 pd sends;
#N canvas 722 258 466 498 receives 0;
#X obj 58 331 pack f f f f f f;
#X obj 138 280 r \$0-del-1;
#X obj 138 302 t b f;
#X obj 128 252 t b f;
#X obj 108 202 t b f;
#X obj 98 152 t b f;
#X obj 68 102 t b f;
#X obj 58 50 r \$0-del-6;
#X obj 68 80 r \$0-del-5;
#X obj 98 130 r \$0-del-4;
#X obj 108 180 r \$0-del-3;
#X obj 128 230 r \$0-del-2;
#X obj 58 353 outlet;
#X connect 0 0 12 0;
#X connect 1 0 2 0;
#X connect 2 0 0 0;
#X connect 2 1 0 5;
#X connect 3 0 0 0;
#X connect 3 1 0 4;
#X connect 4 0 0 0;
#X connect 4 1 0 3;
#X connect 5 0 0 0;
#X connect 5 1 0 2;
#X connect 6 0 0 0;
#X connect 6 1 0 1;
#X connect 7 0 0 0;
#X connect 8 0 6 0;
#X connect 9 0 5 0;
#X connect 10 0 4 0;
#X connect 11 0 3 0;
#X restore 220 118 pd receives;
#N canvas 843 22 466 498 receives 0;
#X obj 58 331 pack f f f f f f;
#X obj 138 302 t b f;
#X obj 128 252 t b f;
#X obj 108 202 t b f;
#X obj 98 152 t b f;
#X obj 68 102 t b f;
#X obj 58 353 outlet;
#X obj 58 50 r \$0-fb-6;
#X obj 68 80 r \$0-fb-5;
#X obj 98 130 r \$0-fb-4;
#X obj 108 180 r \$0-fb-3;
#X obj 128 230 r \$0-fb-2;
#X obj 138 280 r \$0-fb-1;
#X connect 0 0 6 0;
#X connect 1 0 0 0;
#X connect 1 1 0 5;
#X connect 2 0 0 0;
#X connect 2 1 0 4;
#X connect 3 0 0 0;
#X connect 3 1 0 3;
#X connect 4 0 0 0;
#X connect 4 1 0 2;
#X connect 5 0 0 0;
#X connect 5 1 0 1;
#X connect 7 0 0 0;
#X connect 8 0 5 0;
#X connect 9 0 4 0;
#X connect 10 0 3 0;
#X connect 11 0 2 0;
#X connect 12 0 1 0;
#X restore 220 140 pd receives;
#N canvas 843 22 466 498 receives 0;
#X obj 58 331 pack f f f f f f;
#X obj 138 302 t b f;
#X obj 128 252 t b f;
#X obj 108 202 t b f;
#X obj 98 152 t b f;
#X obj 68 102 t b f;
#X obj 58 353 outlet;
#X obj 58 50 r \$0-dw-6;
#X obj 68 80 r \$0-dw-5;
#X obj 98 130 r \$0-dw-4;
#X obj 108 180 r \$0-dw-3;
#X obj 128 230 r \$0-dw-2;
#X obj 138 280 r \$0-dw-1;
#X connect 0 0 6 0;
#X connect 1 0 0 0;
#X connect 1 1 0 5;
#X connect 2 0 0 0;
#X connect 2 1 0 4;
#X connect 3 0 0 0;
#X connect 3 1 0 3;
#X connect 4 0 0 0;
#X connect 4 1 0 2;
#X connect 5 0 0 0;
#X connect 5 1 0 1;
#X connect 7 0 0 0;
#X connect 8 0 5 0;
#X connect 9 0 4 0;
#X connect 10 0 3 0;
#X connect 11 0 2 0;
#X connect 12 0 1 0;
#X restore 220 162 pd receives;
#N canvas 496 184 450 300 sends 0;
#X obj 39 23 inlet;
#X obj 39 65 unpack f f f f f f;
#X msg 187 34 \$1 \$1 \$1 \$1 \$1 \$1;
#X obj 187 12 r \$0-fb-all;
#X obj 39 87 s \$0-fb-6-in;
#X obj 60 107 s \$0-fb-5-in;
#X obj 81 127 s \$0-fb-4-in;
#X obj 102 147 s \$0-fb-3-in;
#X obj 123 167 s \$0-fb-2-in;
#X obj 144 187 s \$0-fb-1-in;
#X connect 0 0 1 0;
#X connect 1 0 4 0;
#X connect 1 1 5 0;
#X connect 1 2 6 0;
#X connect 1 3 7 0;
#X connect 1 4 8 0;
#X connect 1 5 9 0;
#X connect 2 0 1 0;
#X connect 3 0 2 0;
#X restore 309 -45 pd sends;
#N canvas 496 184 450 300 sends 0;
#X obj 39 23 inlet;
#X obj 39 65 unpack f f f f f f;
#X msg 187 34 \$1 \$1 \$1 \$1 \$1 \$1;
#X obj 187 12 r \$0-dw-all;
#X obj 39 87 s \$0-dw-6-in;
#X obj 60 107 s \$0-dw-5-in;
#X obj 81 127 s \$0-dw-4-in;
#X obj 102 147 s \$0-dw-3-in;
#X obj 123 167 s \$0-dw-2-in;
#X obj 144 187 s \$0-dw-1-in;
#X connect 0 0 1 0;
#X connect 1 0 4 0;
#X connect 1 1 5 0;
#X connect 1 2 6 0;
#X connect 1 3 7 0;
#X connect 1 4 8 0;
#X connect 1 5 9 0;
#X connect 2 0 1 0;
#X connect 3 0 2 0;
#X restore 439 -45 pd sends;
#X obj 439 -99 r \$1-drywets-in;
#X obj 468 -75 inlet drywets;
#X obj 338 -75 inlet feedbacks;
#X obj 64 66 hsl 27 15 0 1 0 0 \$0-dw-6 \$0-dw-6-in dry/wet -50 7 0
10 -262144 -1 -1 1300 1;
#X obj 99 66 hsl 27 15 0 1 0 0 \$0-dw-5 \$0-dw-5-in empty -2 -8 0 10
-262144 -1 -1 1300 1;
#X obj 134 66 hsl 27 15 0 1 0 0 \$0-dw-4 \$0-dw-4-in empty -2 -8 0
10 -262144 -1 -1 1300 1;
#X obj 169 66 hsl 27 15 0 1 0 0 \$0-dw-3 \$0-dw-3-in empty -2 -8 0
10 -262144 -1 -1 1300 1;
#X obj 205 66 hsl 27 15 0 1 0 0 \$0-dw-2 \$0-dw-2-in empty -2 -8 0
10 -262144 -1 -1 1300 1;
#X obj 240 66 hsl 27 15 0 1 0 0 \$0-dw-1 \$0-dw-1-in empty -2 -8 0
10 -262144 -1 -1 1300 1;
#X obj 282 66 hsl 27 15 0 1 0 0 \$0-dw-all \$0-dw-all-in empty -2 -8
0 10 -262144 -1 -1 1300 1;
#X obj 304 9 cnv 5 5 5 empty empty DWs 0 0 0 8 -262144 -66577 0;
#X obj 369 22 loadbang;
#X msg 369 44 0.5;
#X obj 369 66 s \$0-dw-all-in;
#X obj 300 138 s \$1-delays-out;
#X obj 300 158 s \$1-feedbacks-out;
#X obj 300 178 s \$1-drywets-out;
#X text 252 90 HEX_DISTO;
#X connect 2 0 40 0;
#X connect 3 0 40 0;
#X connect 11 0 25 0;
#X connect 11 1 26 0;
#X connect 11 2 27 0;
#X connect 11 3 28 0;
#X connect 11 4 29 0;
#X connect 11 5 30 0;
#X connect 12 0 44 0;
#X connect 19 0 11 0;
#X connect 20 0 11 1;
#X connect 21 0 11 2;
#X connect 22 0 11 3;
#X connect 23 0 11 4;
#X connect 24 0 11 5;
#X connect 41 0 11 6;
#X connect 41 0 60 0;
#X connect 42 0 11 7;
#X connect 42 0 61 0;
#X connect 43 0 11 8;
#X connect 43 0 62 0;
#X connect 46 0 45 0;
#X connect 47 0 45 0;
#X connect 48 0 44 0;
#X connect 57 0 58 0;
#X connect 58 0 59 0;
#X coords 0 -1 1 1 320 120 2 0 0;
