#N canvas 257 81 1044 675 8;
#X floatatom 180 31 5 0 100 2 - #0-fb-all-in #0-fb-all, f 5;
#X floatatom 180 23 5 0 5000 2 All #0-del-all-in #0-del-all, f 5;
#X floatatom 41 23 5 0 200 0 level #0-del-6-in #0-del-6, f 5;
#X text 45 11 6;
#X text 68 11 5;
#X text 91 11 4;
#X text 113 11 3;
#X text 135 11 2;
#X text 159 11 1;
#N canvas -8 -8 1280 637 hex-processing 1;
#X obj 1333 71 unpack f f f f f f;
#X obj 1333 132 unpack f f f f f f;
#X obj 1334 20 unpack f f f f f f;
#X obj 1334 3 inlet drywet;
#X obj 1333 185 unpack f f f f f f;
#X obj 1333 239 unpack f f f f f f;
#X obj 12 16 inlet~;
#X obj 12 295 utils-drywet;
#X obj 77 35 hsl 27 15 0 1 0 0 empty empty empty -2 -8 0 10 -262144
-1 -1 0 1;
#X obj 107 308 grandelay;
#X obj 118 112 utils-line;
#X obj 132 168 utils-line;
#X obj 152 279 utils-line;
#X obj 142 226 utils-line;
#X floatatom 142 201 5 0 0 0 delay - -, f 5;
#X floatatom 152 256 5 0 99.9 0 feedback - -, f 5;
#X floatatom 118 87 5 0 100 0 vitesse_de_lecture - -, f 5;
#X floatatom 132 146 5 -100 100 0 taille_du_grain - -, f 5;
#X obj 12 367 outlet~;
#X floatatom 191 320 5 0 0 0 - - -, f 5;
#X obj 107 353 *~;
#X obj 1333 54 inlet vitesse_de_lecture;
#X obj 1333 110 inlet taille_du_grain;
#X obj 1333 166 inlet delay;
#X obj 1333 217 inlet feedback;
#X obj 230 16 inlet~;
#X obj 230 295 utils-drywet;
#X obj 291 35 hsl 27 15 0 1 0 0 empty empty empty -2 -8 0 10 -262144
-1 -1 0 1;
#X obj 327 308 grandelay;
#X obj 337 112 utils-line;
#X obj 347 168 utils-line;
#X obj 370 279 utils-line;
#X obj 359 226 utils-line;
#X floatatom 359 201 5 0 0 0 delay - -, f 5;
#X floatatom 370 256 5 0 99.9 0 feedback - -, f 5;
#X floatatom 337 87 5 0 100 0 vitesse_de_lecture - -, f 5;
#X floatatom 347 146 5 -100 100 0 taille_du_grain - -, f 5;
#X obj 230 367 outlet~;
#X floatatom 406 320 5 0 0 0 - - -, f 5;
#X obj 327 353 *~;
#X obj 443 16 inlet~;
#X obj 443 295 utils-drywet;
#X obj 508 35 hsl 27 15 0 1 0 0 empty empty empty -2 -8 0 10 -262144
-1 -1 0 1;
#X obj 539 308 grandelay;
#X obj 548 112 utils-line;
#X obj 560 168 utils-line;
#X obj 583 279 utils-line;
#X obj 571 226 utils-line;
#X floatatom 571 201 5 0 0 0 delay - -, f 5;
#X floatatom 583 256 5 0 99.9 0 feedback - -, f 5;
#X floatatom 548 87 5 0 100 0 vitesse_de_lecture - -, f 5;
#X floatatom 560 146 5 -100 100 0 taille_du_grain - -, f 5;
#X obj 445 367 outlet~;
#X floatatom 619 320 5 0 0 0 - - -, f 5;
#X obj 539 353 *~;
#X obj 658 16 inlet~;
#X obj 658 295 utils-drywet;
#X obj 725 35 hsl 27 15 0 1 0 0 empty empty empty -2 -8 0 10 -262144
-1 -1 0 1;
#X obj 756 308 grandelay;
#X obj 764 112 utils-line;
#X obj 776 168 utils-line;
#X obj 800 279 utils-line;
#X obj 787 226 utils-line;
#X floatatom 787 201 5 0 0 0 delay - -, f 5;
#X floatatom 800 256 5 0 99.9 0 feedback - -, f 5;
#X floatatom 764 87 5 0 100 0 vitesse_de_lecture - -, f 5;
#X floatatom 776 146 5 -100 100 0 taille_du_grain - -, f 5;
#X obj 658 367 outlet~;
#X floatatom 834 320 5 0 0 0 - - -, f 5;
#X obj 756 353 *~;
#X obj 869 16 inlet~;
#X obj 869 295 utils-drywet;
#X obj 934 35 hsl 27 15 0 1 0 0 empty empty empty -2 -8 0 10 -262144
-1 -1 0 1;
#X obj 966 308 grandelay;
#X obj 976 112 utils-line;
#X obj 989 168 utils-line;
#X obj 1012 279 utils-line;
#X obj 998 226 utils-line;
#X floatatom 998 201 5 0 0 0 delay - -, f 5;
#X floatatom 1012 256 5 0 99.9 0 feedback - -, f 5;
#X floatatom 976 87 5 0 100 0 vitesse_de_lecture - -, f 5;
#X floatatom 989 146 5 -100 100 0 taille_du_grain - -, f 5;
#X obj 871 367 outlet~;
#X floatatom 1046 320 5 0 0 0 - - -, f 5;
#X obj 966 353 *~;
#X obj 1080 16 inlet~;
#X obj 1080 295 utils-drywet;
#X obj 1147 35 hsl 27 15 0 1 0 0 empty empty empty -2 -8 0 10 -262144
-1 -1 0 1;
#X obj 1176 308 grandelay;
#X obj 1187 112 utils-line;
#X obj 1197 168 utils-line;
#X obj 1220 279 utils-line;
#X obj 1209 226 utils-line;
#X floatatom 1209 201 5 0 0 0 delay - -, f 5;
#X floatatom 1220 256 5 0 99.9 0 feedback - -, f 5;
#X floatatom 1187 87 5 0 100 0 vitesse_de_lecture - -, f 5;
#X floatatom 1197 146 5 -100 100 0 taille_du_grain - -, f 5;
#X obj 1083 367 outlet~;
#X floatatom 1256 320 5 0 0 0 - - -, f 5;
#X obj 1176 353 *~;
#X connect 0 0 16 0;
#X connect 0 1 35 0;
#X connect 0 2 50 0;
#X connect 0 3 65 0;
#X connect 0 4 80 0;
#X connect 0 5 95 0;
#X connect 1 0 17 0;
#X connect 1 1 36 0;
#X connect 1 2 51 0;
#X connect 1 3 66 0;
#X connect 1 4 81 0;
#X connect 1 5 96 0;
#X connect 2 0 8 0;
#X connect 2 1 27 0;
#X connect 2 2 42 0;
#X connect 2 3 57 0;
#X connect 2 4 72 0;
#X connect 2 5 87 0;
#X connect 3 0 2 0;
#X connect 4 0 14 0;
#X connect 4 1 33 0;
#X connect 4 2 48 0;
#X connect 4 3 63 0;
#X connect 4 4 78 0;
#X connect 4 5 93 0;
#X connect 5 0 15 0;
#X connect 5 1 34 0;
#X connect 5 2 49 0;
#X connect 5 3 64 0;
#X connect 5 4 79 0;
#X connect 5 5 94 0;
#X connect 6 0 7 0;
#X connect 7 0 18 0;
#X connect 7 1 9 0;
#X connect 8 0 7 1;
#X connect 9 0 20 0;
#X connect 10 0 9 1;
#X connect 11 0 9 2;
#X connect 12 0 9 4;
#X connect 13 0 9 3;
#X connect 14 0 13 0;
#X connect 15 0 12 0;
#X connect 16 0 10 0;
#X connect 17 0 11 0;
#X connect 19 0 20 1;
#X connect 20 0 18 0;
#X connect 21 0 0 0;
#X connect 22 0 1 0;
#X connect 23 0 4 0;
#X connect 24 0 5 0;
#X connect 25 0 26 0;
#X connect 26 0 37 0;
#X connect 26 1 28 0;
#X connect 27 0 26 1;
#X connect 28 0 39 0;
#X connect 29 0 28 1;
#X connect 30 0 28 2;
#X connect 31 0 28 4;
#X connect 32 0 28 3;
#X connect 33 0 32 0;
#X connect 34 0 31 0;
#X connect 35 0 29 0;
#X connect 36 0 30 0;
#X connect 38 0 39 1;
#X connect 39 0 37 0;
#X connect 40 0 41 0;
#X connect 41 0 52 0;
#X connect 41 1 43 0;
#X connect 42 0 41 1;
#X connect 43 0 54 0;
#X connect 44 0 43 1;
#X connect 45 0 43 2;
#X connect 46 0 43 4;
#X connect 47 0 43 3;
#X connect 48 0 47 0;
#X connect 49 0 46 0;
#X connect 50 0 44 0;
#X connect 51 0 45 0;
#X connect 53 0 54 1;
#X connect 54 0 52 0;
#X connect 55 0 56 0;
#X connect 56 0 67 0;
#X connect 56 1 58 0;
#X connect 57 0 56 1;
#X connect 58 0 69 0;
#X connect 59 0 58 1;
#X connect 60 0 58 2;
#X connect 61 0 58 4;
#X connect 62 0 58 3;
#X connect 63 0 62 0;
#X connect 64 0 61 0;
#X connect 65 0 59 0;
#X connect 66 0 60 0;
#X connect 68 0 69 1;
#X connect 69 0 67 0;
#X connect 70 0 71 0;
#X connect 71 0 82 0;
#X connect 71 1 73 0;
#X connect 72 0 71 1;
#X connect 73 0 84 0;
#X connect 74 0 73 1;
#X connect 75 0 73 2;
#X connect 76 0 73 4;
#X connect 77 0 73 3;
#X connect 78 0 77 0;
#X connect 79 0 76 0;
#X connect 80 0 74 0;
#X connect 81 0 75 0;
#X connect 83 0 84 1;
#X connect 84 0 82 0;
#X connect 85 0 86 0;
#X connect 86 0 97 0;
#X connect 86 1 88 0;
#X connect 87 0 86 1;
#X connect 88 0 99 0;
#X connect 89 0 88 1;
#X connect 90 0 88 2;
#X connect 91 0 88 4;
#X connect 92 0 88 3;
#X connect 93 0 92 0;
#X connect 94 0 91 0;
#X connect 95 0 89 0;
#X connect 96 0 90 0;
#X connect 98 0 99 1;
#X connect 99 0 97 0;
#X restore 23 132 pd hex-processing;
#X floatatom 41 31 5 0 100 0 drive #0-fb-6-in #0-fb-6, f 5;
#X floatatom 62 31 5 0 100 2 - #0-fb-5-in #0-fb-5, f 5;
#X floatatom 87 32 5 0 100 2 - #0-fb-4-in #0-fb-4, f 5;
#X floatatom 109 31 5 0 100 2 - #0-fb-3-in #0-fb-3, f 5;
#X floatatom 132 31 5 0 100 2 - #0-fb-2-in #0-fb-2, f 5;
#X floatatom 152 31 5 0 100 2 - #0-fb-1-in #0-fb-1, f 5;
#X obj 23 83 inlet~;
#X obj 38 100 inlet~;
#X obj 48 112 inlet~;
#X obj 62 83 inlet~;
#X obj 74 100 inlet~;
#X obj 88 112 inlet~;
#X obj 23 146 outlet~;
#X obj 44 159 outlet~;
#X obj 64 172 outlet~;
#X obj 68 146 outlet~;
#X obj 96 159 outlet~;
#X obj 121 172 outlet~;
#X obj 2 3 cnv 5 5 5 empty empty |-----------------INPUTS----------------|
0 0 0 8 -262144 -66577 0;
#X obj 152 3 cnv 5 5 5 empty empty DELs 0 0 0 8 -262144 -66577 0;
#X obj 178 3 cnv 5 5 5 empty empty FBs 0 0 0 8 -262144 -66577 0;
#X obj 2 74 cnv 5 5 5 empty empty |---------------------------OUTPUTS--------------------------|
0 0 0 8 -262144 -66577 0;
#X floatatom 62 23 5 0 200 0 - #0-del-5-in #0-del-5, f 5;
#X floatatom 87 23 5 0 200 0 - #0-del-4-in #0-del-4, f 5;
#X floatatom 109 23 5 0 200 0 - #0-del-3-in #0-del-3, f 5;
#X floatatom 132 23 5 0 200 0 - #0-del-2-in #0-del-2, f 5;
#X floatatom 152 23 5 0 200 0 - #0-del-1-in #0-del-1, f 5;
#N canvas 496 184 450 300 sends 0;
#X obj 26 16 inlet;
#X obj 26 41 unpack f f f f f f;
#X obj 26 56 s \$0-del-6-in;
#X obj 39 68 s \$0-del-5-in;
#X obj 54 81 s \$0-del-4-in;
#X obj 68 96 s \$0-del-3-in;
#X obj 81 109 s \$0-del-2-in;
#X obj 94 121 s \$0-del-1-in;
#X msg 121 23 \$1 \$1 \$1 \$1 \$1 \$1;
#X obj 121 8 r \$0-del-all;
#X connect 0 0 1 0;
#X connect 1 0 2 0;
#X connect 1 1 3 0;
#X connect 1 2 4 0;
#X connect 1 3 5 0;
#X connect 1 4 6 0;
#X connect 1 5 7 0;
#X connect 8 0 1 0;
#X connect 9 0 8 0;
#X restore 135 -13 pd sends;
#N canvas 722 258 466 498 receives 0;
#X obj 38 217 pack f f f f f f;
#X obj 91 181 r \$0-del-1;
#X obj 91 197 t b f;
#X obj 83 165 t b f;
#X obj 71 132 t b f;
#X obj 64 100 t b f;
#X obj 45 68 t b f;
#X obj 38 32 r \$0-del-6;
#X obj 45 54 r \$0-del-5;
#X obj 64 87 r \$0-del-4;
#X obj 71 116 r \$0-del-3;
#X obj 83 149 r \$0-del-2;
#X obj 38 230 outlet;
#X connect 0 0 12 0;
#X connect 1 0 2 0;
#X connect 2 0 0 0;
#X connect 2 1 0 5;
#X connect 3 0 0 0;
#X connect 3 1 0 4;
#X connect 4 0 0 0;
#X connect 4 1 0 3;
#X connect 5 0 0 0;
#X connect 5 1 0 2;
#X connect 6 0 0 0;
#X connect 6 1 0 1;
#X connect 7 0 0 0;
#X connect 8 0 6 0;
#X connect 9 0 5 0;
#X connect 10 0 4 0;
#X connect 11 0 3 0;
#X restore 168 81 pd receives;
#N canvas 843 22 466 469 receives 0;
#X obj 38 217 pack f f f f f f;
#X obj 91 197 t b f;
#X obj 83 165 t b f;
#X obj 71 132 t b f;
#X obj 64 100 t b f;
#X obj 45 68 t b f;
#X obj 38 230 outlet;
#X obj 38 32 r \$0-fb-6;
#X obj 45 54 r \$0-fb-5;
#X obj 64 87 r \$0-fb-4;
#X obj 71 116 r \$0-fb-3;
#X obj 83 149 r \$0-fb-2;
#X obj 91 181 r \$0-fb-1;
#X connect 0 0 6 0;
#X connect 1 0 0 0;
#X connect 1 1 0 5;
#X connect 2 0 0 0;
#X connect 2 1 0 4;
#X connect 3 0 0 0;
#X connect 3 1 0 3;
#X connect 4 0 0 0;
#X connect 4 1 0 2;
#X connect 5 0 0 0;
#X connect 5 1 0 1;
#X connect 7 0 0 0;
#X connect 8 0 5 0;
#X connect 9 0 4 0;
#X connect 10 0 3 0;
#X connect 11 0 2 0;
#X connect 12 0 1 0;
#X restore 168 96 pd receives;
#N canvas 843 22 466 498 receives 0;
#X obj 38 217 pack f f f f f f;
#X obj 91 197 t b f;
#X obj 83 165 t b f;
#X obj 71 132 t b f;
#X obj 64 100 t b f;
#X obj 45 68 t b f;
#X obj 38 230 outlet;
#X obj 38 32 r \$0-dw-6;
#X obj 45 54 r \$0-dw-5;
#X obj 64 87 r \$0-dw-4;
#X obj 71 116 r \$0-dw-3;
#X obj 83 149 r \$0-dw-2;
#X obj 91 181 r \$0-dw-1;
#X connect 0 0 6 0;
#X connect 1 0 0 0;
#X connect 1 1 0 5;
#X connect 2 0 0 0;
#X connect 2 1 0 4;
#X connect 3 0 0 0;
#X connect 3 1 0 3;
#X connect 4 0 0 0;
#X connect 4 1 0 2;
#X connect 5 0 0 0;
#X connect 5 1 0 1;
#X connect 7 0 0 0;
#X connect 8 0 5 0;
#X connect 9 0 4 0;
#X connect 10 0 3 0;
#X connect 11 0 2 0;
#X connect 12 0 1 0;
#X restore 168 110 pd receives;
#N canvas 496 184 450 300 sends 0;
#X obj 26 16 inlet;
#X obj 26 41 unpack f f f f f f;
#X msg 121 23 \$1 \$1 \$1 \$1 \$1 \$1;
#X obj 121 8 r \$0-fb-all;
#X obj 26 56 s \$0-fb-6-in;
#X obj 39 68 s \$0-fb-5-in;
#X obj 54 81 s \$0-fb-4-in;
#X obj 68 96 s \$0-fb-3-in;
#X obj 81 109 s \$0-fb-2-in;
#X obj 94 121 s \$0-fb-1-in;
#X connect 0 0 1 0;
#X connect 1 0 4 0;
#X connect 1 1 5 0;
#X connect 1 2 6 0;
#X connect 1 3 7 0;
#X connect 1 4 8 0;
#X connect 1 5 9 0;
#X connect 2 0 1 0;
#X connect 3 0 2 0;
#X restore 201 -13 pd sends;
#N canvas 496 184 450 300 sends 0;
#X obj 26 16 inlet;
#X obj 26 41 unpack f f f f f f;
#X msg 121 23 \$1 \$1 \$1 \$1 \$1 \$1;
#X obj 121 8 r \$0-dw-all;
#X obj 26 56 s \$0-dw-6-in;
#X obj 39 68 s \$0-dw-5-in;
#X obj 54 81 s \$0-dw-4-in;
#X obj 68 96 s \$0-dw-3-in;
#X obj 81 109 s \$0-dw-2-in;
#X obj 94 121 s \$0-dw-1-in;
#X connect 0 0 1 0;
#X connect 1 0 4 0;
#X connect 1 1 5 0;
#X connect 1 2 6 0;
#X connect 1 3 7 0;
#X connect 1 4 8 0;
#X connect 1 5 9 0;
#X connect 2 0 1 0;
#X connect 3 0 2 0;
#X restore 285 -13 pd sends;
#X obj 285 -48 r \$1-drywets-in;
#X obj 304 -32 inlet drywets;
#X obj 44 44 hsl 27 15 0 1 0 0 \$0-dw-6 \$0-dw-6-in dry/wet -50 7 0
10 -262144 -1 -1 1300 1;
#X obj 65 44 hsl 27 15 0 1 0 0 \$0-dw-5 \$0-dw-5-in empty -2 -8 0 10
-262144 -1 -1 1300 1;
#X obj 90 44 hsl 27 15 0 1 0 0 \$0-dw-4 \$0-dw-4-in empty -2 -8 0 10
-262144 -1 -1 1300 1;
#X obj 112 44 hsl 27 15 0 1 0 0 \$0-dw-3 \$0-dw-3-in empty -2 -8 0
10 -262144 -1 -1 1300 1;
#X obj 135 44 hsl 27 15 0 1 0 0 \$0-dw-2 \$0-dw-2-in empty -2 -8 0
10 -262144 -1 -1 1300 1;
#X obj 155 44 hsl 27 15 0 1 0 0 \$0-dw-1 \$0-dw-1-in empty -2 -8 0
10 -262144 -1 -1 1300 1;
#X obj 183 44 hsl 27 15 0 1 0 0 \$0-dw-all \$0-dw-all-in empty -2 -8
0 10 -262144 -1 -1 1300 1;
#X obj 198 3 cnv 5 5 5 empty empty DWs 0 0 0 8 -262144 -66577 0;
#X obj 240 16 loadbang;
#X msg 240 29 0.5;
#X obj 240 44 s \$0-dw-all-in;
#X obj 217 121 s \$1-drywets-out;
#X text 165 58 HEX_DISTO;
#X obj 217 107 s \$1-drive-out;
#X obj 220 -32 inlet drive;
#X obj 201 -48 r \$1-drive-in;
#X obj 217 94 s \$1-level-out;
#X obj 135 -47 r \$1-level-in;
#X obj 146 -32 inlet level;
#X connect 38 0 61 0;
#X connect 39 0 58 0;
#X connect 40 0 9 10;
#X connect 40 0 56 0;
#X connect 43 0 42 0;
#X connect 44 0 42 0;
#X connect 53 0 54 0;
#X connect 54 0 55 0;
#X connect 59 0 41 0;
#X connect 60 0 41 0;
#X connect 62 0 37 0;
#X connect 63 0 37 0;
#X coords -1 -1 500 1 320 120 2 0 0;
