#N canvas 341 7 774 675 10;
#X floatatom 279 49 5 0 1000 2 - #0-fb-all-in #0-fb-all, f 5;
#X floatatom 279 32 5 0 4 2 All #0-del-all-in #0-del-all, f 5;
#X floatatom 61 32 5 0 4 0 wtf #0-del-6-in #0-del-6, f 5;
#X text 69 18 6;
#X text 104 18 5;
#X text 140 18 4;
#X text 173 18 3;
#X text 209 18 2;
#X text 245 17 1;
#N canvas -1688 -825 1680 967 hex-processing 0;
#X floatatom 97 138 4 0 5000 1 lpf - -, f 4;
#X obj 6 89 inlet~;
#X floatatom 120 190 4 0 999 1 wtf - -, f 4;
#X obj 5 309 outlet~;
#X obj 1252 122 unpack f f f f f f;
#X obj 1239 174 unpack f f f f f f;
#X obj 1264 68 unpack f f f f f f;
#X obj 1264 46 inlet drywet;
#X obj 78 84 hsl 27 15 0 1 0 0 empty empty empty -2 -8 0 10 -262144
-1 -1 1300 1;
#X obj 6 109 utils-drywet;
#X obj 120 217 utils-line;
#X obj 97 167 utils-line;
#X floatatom 281 138 4 0 5000 1 lpf - -, f 4;
#X obj 190 89 inlet~;
#X floatatom 304 190 4 0 999 1 wtf - -, f 4;
#X obj 189 309 outlet~;
#X obj 262 84 hsl 27 15 0 1 0 0 empty empty empty -2 -8 0 10 -262144
-1 -1 1300 1;
#X obj 190 109 utils-drywet;
#X obj 304 218 utils-line;
#X obj 281 167 utils-line;
#X floatatom 463 138 4 0 5000 1 lpf - -, f 4;
#X obj 372 89 inlet~;
#X floatatom 486 190 4 0 999 1 wtf - -, f 4;
#X obj 371 309 outlet~;
#X obj 444 84 hsl 27 15 0 1 0 0 empty empty empty -2 -8 0 10 -262144
-1 -1 1300 1;
#X obj 372 109 utils-drywet;
#X obj 486 218 utils-line;
#X obj 463 167 utils-line;
#X floatatom 651 138 4 0 5000 1 lpf - -, f 4;
#X obj 560 89 inlet~;
#X floatatom 674 190 4 0 999 1 wtf - -, f 4;
#X obj 559 309 outlet~;
#X obj 632 84 hsl 27 15 0 1 0 0 empty empty empty -2 -8 0 10 -262144
-1 -1 1300 1;
#X obj 560 109 utils-drywet;
#X obj 674 218 utils-line;
#X obj 651 167 utils-line;
#X floatatom 842 138 4 0 5000 1 lpf - -, f 4;
#X obj 751 89 inlet~;
#X floatatom 865 190 4 0 999 1 wtf - -, f 4;
#X obj 750 309 outlet~;
#X obj 823 84 hsl 27 15 0 1 0 0 empty empty empty -2 -8 0 10 -262144
-1 -1 1300 1;
#X obj 751 109 utils-drywet;
#X obj 865 218 utils-line;
#X obj 842 167 utils-line;
#X floatatom 1034 138 4 0 5000 1 lpf - -, f 4;
#X obj 943 89 inlet~;
#X floatatom 1057 190 4 0 999 1 wtf - -, f 4;
#X obj 942 309 outlet~;
#X obj 1015 84 hsl 27 15 0 1 0 0 empty empty empty -2 -8 0 10 -262144
-1 -1 1300 1;
#X obj 943 109 utils-drywet;
#X obj 1057 218 utils-line;
#X obj 1034 167 utils-line;
#X obj 1252 95 inlet lpf;
#X obj 1239 143 inlet wtf;
#X obj 1012 253 octafuzz;
#X obj 820 253 octafuzz;
#X obj 629 253 octafuzz;
#X obj 259 253 octafuzz;
#X obj 75 253 octafuzz;
#X obj 441 253 octafuzz;
#X connect 0 0 11 0;
#X connect 1 0 9 0;
#X connect 2 0 10 0;
#X connect 4 0 0 0;
#X connect 4 1 12 0;
#X connect 4 2 20 0;
#X connect 4 3 28 0;
#X connect 4 5 44 0;
#X connect 5 0 2 0;
#X connect 5 1 14 0;
#X connect 5 2 22 0;
#X connect 5 3 30 0;
#X connect 5 4 38 0;
#X connect 5 5 46 0;
#X connect 6 0 8 0;
#X connect 6 1 16 0;
#X connect 6 2 24 0;
#X connect 6 3 32 0;
#X connect 6 4 40 0;
#X connect 6 5 48 0;
#X connect 7 0 6 0;
#X connect 8 0 9 1;
#X connect 9 0 3 0;
#X connect 9 1 58 0;
#X connect 10 0 58 2;
#X connect 11 0 58 1;
#X connect 12 0 19 0;
#X connect 13 0 17 0;
#X connect 14 0 18 0;
#X connect 16 0 17 1;
#X connect 17 0 15 0;
#X connect 17 1 57 0;
#X connect 18 0 57 2;
#X connect 19 0 57 1;
#X connect 20 0 27 0;
#X connect 21 0 25 0;
#X connect 22 0 26 0;
#X connect 24 0 25 1;
#X connect 25 0 23 0;
#X connect 25 1 59 0;
#X connect 26 0 59 2;
#X connect 27 0 59 1;
#X connect 28 0 35 0;
#X connect 29 0 33 0;
#X connect 30 0 34 0;
#X connect 32 0 33 1;
#X connect 33 0 31 0;
#X connect 33 1 56 0;
#X connect 34 0 56 2;
#X connect 35 0 56 1;
#X connect 36 0 43 0;
#X connect 37 0 41 0;
#X connect 38 0 42 0;
#X connect 40 0 41 1;
#X connect 41 0 39 0;
#X connect 41 1 55 0;
#X connect 42 0 55 2;
#X connect 43 0 55 1;
#X connect 44 0 51 0;
#X connect 45 0 49 0;
#X connect 46 0 50 0;
#X connect 48 0 49 1;
#X connect 49 0 47 0;
#X connect 49 1 54 0;
#X connect 50 0 54 2;
#X connect 51 0 54 1;
#X connect 52 0 4 0;
#X connect 53 0 5 0;
#X connect 54 0 47 0;
#X connect 55 0 39 0;
#X connect 56 0 31 0;
#X connect 57 0 15 0;
#X connect 58 0 3 0;
#X connect 59 0 23 0;
#X restore 36 205 pd hex-processing;
#X floatatom 61 49 5 0 1000 0 lpf #0-fb-6-in #0-fb-6, f 5;
#X floatatom 96 49 5 0 1000 2 - #0-fb-5-in #0-fb-5, f 5;
#X floatatom 131 49 5 0 1000 2 - #0-fb-4-in #0-fb-4, f 5;
#X floatatom 166 50 5 0 1000 2 - #0-fb-3-in #0-fb-3, f 5;
#X floatatom 202 49 5 0 1000 2 - #0-fb-2-in #0-fb-2, f 5;
#X floatatom 237 49 5 0 1000 2 - #0-fb-1-in #0-fb-1, f 5;
#X obj 36 129 inlet~;
#X obj 47 149 inlet~;
#X obj 59 171 inlet~;
#X obj 91 150 inlet~;
#X obj 113 171 inlet~;
#X obj 145 149 inlet~;
#X obj 36 225 outlet~;
#X obj 67 245 outlet~;
#X obj 99 265 outlet~;
#X obj 103 225 outlet~;
#X obj 146 245 outlet~;
#X obj 184 267 outlet~;
#X obj 3 8 cnv 5 5 5 empty empty |-----------------INPUTS----------------|
0 0 0 8 -262144 -66577 0;
#X obj 237 9 cnv 5 5 5 empty empty DELs 0 0 0 8 -262144 -66577 0;
#X obj 273 9 cnv 5 5 5 empty empty FBs 0 0 0 8 -262144 -66577 0;
#X obj 3 114 cnv 5 5 5 empty empty |---------------------------OUTPUTS--------------------------|
0 0 0 8 -262144 -66577 0;
#X floatatom 96 32 5 0 4 0 - #0-del-5-in #0-del-5, f 5;
#X floatatom 131 31 5 0 4 0 - #0-del-4-in #0-del-4, f 5;
#X floatatom 166 33 5 0 4 0 - #0-del-3-in #0-del-3, f 5;
#X floatatom 202 32 5 0 4 0 - #0-del-2-in #0-del-2, f 5;
#X floatatom 237 32 5 0 4 0 - #0-del-1-in #0-del-1, f 5;
#N canvas 496 184 450 300 sends 0;
#X obj 39 23 inlet;
#X obj 39 65 unpack f f f f f f;
#X obj 39 87 s \$0-del-6-in;
#X obj 60 107 s \$0-del-5-in;
#X obj 81 127 s \$0-del-4-in;
#X obj 102 147 s \$0-del-3-in;
#X obj 123 167 s \$0-del-2-in;
#X obj 144 187 s \$0-del-1-in;
#X msg 187 34 \$1 \$1 \$1 \$1 \$1 \$1;
#X obj 187 12 r \$0-del-all;
#X connect 0 0 1 0;
#X connect 1 0 2 0;
#X connect 1 1 3 0;
#X connect 1 2 4 0;
#X connect 1 3 5 0;
#X connect 1 4 6 0;
#X connect 1 5 7 0;
#X connect 8 0 1 0;
#X connect 9 0 8 0;
#X restore 210 -45 pd sends;
#N canvas 722 258 466 498 receives 0;
#X obj 58 331 pack f f f f f f;
#X obj 138 280 r \$0-del-1;
#X obj 138 302 t b f;
#X obj 128 252 t b f;
#X obj 108 202 t b f;
#X obj 98 152 t b f;
#X obj 68 102 t b f;
#X obj 58 50 r \$0-del-6;
#X obj 68 80 r \$0-del-5;
#X obj 98 130 r \$0-del-4;
#X obj 108 180 r \$0-del-3;
#X obj 128 230 r \$0-del-2;
#X obj 58 353 outlet;
#X connect 0 0 12 0;
#X connect 1 0 2 0;
#X connect 2 0 0 0;
#X connect 2 1 0 5;
#X connect 3 0 0 0;
#X connect 3 1 0 4;
#X connect 4 0 0 0;
#X connect 4 1 0 3;
#X connect 5 0 0 0;
#X connect 5 1 0 2;
#X connect 6 0 0 0;
#X connect 6 1 0 1;
#X connect 7 0 0 0;
#X connect 8 0 6 0;
#X connect 9 0 5 0;
#X connect 10 0 4 0;
#X connect 11 0 3 0;
#X restore 257 125 pd receives;
#N canvas 843 22 466 469 receives 0;
#X obj 58 331 pack f f f f f f;
#X obj 138 302 t b f;
#X obj 128 252 t b f;
#X obj 108 202 t b f;
#X obj 98 152 t b f;
#X obj 68 102 t b f;
#X obj 58 353 outlet;
#X obj 58 50 r \$0-fb-6;
#X obj 68 80 r \$0-fb-5;
#X obj 98 130 r \$0-fb-4;
#X obj 108 180 r \$0-fb-3;
#X obj 128 230 r \$0-fb-2;
#X obj 138 280 r \$0-fb-1;
#X connect 0 0 6 0;
#X connect 1 0 0 0;
#X connect 1 1 0 5;
#X connect 2 0 0 0;
#X connect 2 1 0 4;
#X connect 3 0 0 0;
#X connect 3 1 0 3;
#X connect 4 0 0 0;
#X connect 4 1 0 2;
#X connect 5 0 0 0;
#X connect 5 1 0 1;
#X connect 7 0 0 0;
#X connect 8 0 5 0;
#X connect 9 0 4 0;
#X connect 10 0 3 0;
#X connect 11 0 2 0;
#X connect 12 0 1 0;
#X restore 257 147 pd receives;
#N canvas 843 22 466 498 receives 0;
#X obj 58 331 pack f f f f f f;
#X obj 138 302 t b f;
#X obj 128 252 t b f;
#X obj 108 202 t b f;
#X obj 98 152 t b f;
#X obj 68 102 t b f;
#X obj 58 353 outlet;
#X obj 58 50 r \$0-dw-6;
#X obj 68 80 r \$0-dw-5;
#X obj 98 130 r \$0-dw-4;
#X obj 108 180 r \$0-dw-3;
#X obj 128 230 r \$0-dw-2;
#X obj 138 280 r \$0-dw-1;
#X connect 0 0 6 0;
#X connect 1 0 0 0;
#X connect 1 1 0 5;
#X connect 2 0 0 0;
#X connect 2 1 0 4;
#X connect 3 0 0 0;
#X connect 3 1 0 3;
#X connect 4 0 0 0;
#X connect 4 1 0 2;
#X connect 5 0 0 0;
#X connect 5 1 0 1;
#X connect 7 0 0 0;
#X connect 8 0 5 0;
#X connect 9 0 4 0;
#X connect 10 0 3 0;
#X connect 11 0 2 0;
#X connect 12 0 1 0;
#X restore 257 169 pd receives;
#N canvas 496 184 450 300 sends 0;
#X obj 39 23 inlet;
#X obj 39 65 unpack f f f f f f;
#X msg 187 34 \$1 \$1 \$1 \$1 \$1 \$1;
#X obj 187 12 r \$0-fb-all;
#X obj 39 87 s \$0-fb-6-in;
#X obj 60 107 s \$0-fb-5-in;
#X obj 81 127 s \$0-fb-4-in;
#X obj 102 147 s \$0-fb-3-in;
#X obj 123 167 s \$0-fb-2-in;
#X obj 144 187 s \$0-fb-1-in;
#X connect 0 0 1 0;
#X connect 1 0 4 0;
#X connect 1 1 5 0;
#X connect 1 2 6 0;
#X connect 1 3 7 0;
#X connect 1 4 8 0;
#X connect 1 5 9 0;
#X connect 2 0 1 0;
#X connect 3 0 2 0;
#X restore 309 -45 pd sends;
#N canvas 496 184 450 300 sends 0;
#X obj 39 23 inlet;
#X obj 39 65 unpack f f f f f f;
#X msg 187 34 \$1 \$1 \$1 \$1 \$1 \$1;
#X obj 187 12 r \$0-dw-all;
#X obj 39 87 s \$0-dw-6-in;
#X obj 60 107 s \$0-dw-5-in;
#X obj 81 127 s \$0-dw-4-in;
#X obj 102 147 s \$0-dw-3-in;
#X obj 123 167 s \$0-dw-2-in;
#X obj 144 187 s \$0-dw-1-in;
#X connect 0 0 1 0;
#X connect 1 0 4 0;
#X connect 1 1 5 0;
#X connect 1 2 6 0;
#X connect 1 3 7 0;
#X connect 1 4 8 0;
#X connect 1 5 9 0;
#X connect 2 0 1 0;
#X connect 3 0 2 0;
#X restore 439 -45 pd sends;
#X obj 439 -99 r \$1-drywets-in;
#X obj 468 -75 inlet drywets;
#X obj 64 66 hsl 27 15 0 1 0 0 \$0-dw-6 \$0-dw-6-in dry/wet -50 7 0
10 -262144 -1 -1 1300 1;
#X obj 99 66 hsl 27 15 0 1 0 0 \$0-dw-5 \$0-dw-5-in empty -2 -8 0 10
-262144 -1 -1 1300 1;
#X obj 134 66 hsl 27 15 0 1 0 0 \$0-dw-4 \$0-dw-4-in empty -2 -8 0
10 -262144 -1 -1 1300 1;
#X obj 169 66 hsl 27 15 0 1 0 0 \$0-dw-3 \$0-dw-3-in empty -2 -8 0
10 -262144 -1 -1 1300 1;
#X obj 205 66 hsl 27 15 0 1 0 0 \$0-dw-2 \$0-dw-2-in empty -2 -8 0
10 -262144 -1 -1 1300 1;
#X obj 240 66 hsl 27 15 0 1 0 0 \$0-dw-1 \$0-dw-1-in empty -2 -8 0
10 -262144 -1 -1 1300 1;
#X obj 282 66 hsl 27 15 0 1 0 0 \$0-dw-all \$0-dw-all-in empty -2 -8
0 10 -262144 -1 -1 1300 1;
#X obj 304 9 cnv 5 5 5 empty empty DWs 0 0 0 8 -262144 -66577 0;
#X obj 369 22 loadbang;
#X msg 369 44 0.5;
#X obj 369 66 s \$0-dw-all-in;
#X obj 337 185 s \$1-drywets-out;
#X obj 338 -75 inlet drive;
#X obj 309 -99 r \$1-drive-in;
#X obj 210 -96 r \$1-level-in;
#X obj 228 -74 inlet level;
#X text 234 92 HEX_OCTAFUZZ;
#X obj 337 145 s \$1-wtf-out;
#X obj 337 165 s \$1-lpf-out;
#X connect 9 0 22 0;
#X connect 9 1 23 0;
#X connect 9 2 24 0;
#X connect 9 3 25 0;
#X connect 9 4 26 0;
#X connect 9 5 27 0;
#X connect 16 0 9 0;
#X connect 17 0 9 1;
#X connect 18 0 9 2;
#X connect 19 0 9 3;
#X connect 20 0 9 4;
#X connect 21 0 9 5;
#X connect 38 0 62 0;
#X connect 38 0 9 6;
#X connect 39 0 9 7;
#X connect 39 0 63 0;
#X connect 40 0 56 0;
#X connect 40 0 9 8;
#X connect 43 0 42 0;
#X connect 44 0 42 0;
#X connect 53 0 54 0;
#X connect 54 0 55 0;
#X connect 57 0 41 0;
#X connect 58 0 41 0;
#X connect 59 0 37 0;
#X connect 60 0 37 0;
#X coords -1 -1 500 1 320 120 2 0 0;
