#N canvas 595 318 641 453 10;
#X floatatom 61 32 5 0 5000 0 delays - -, f 5;
#X obj 179 -99 r \$1-feedbacks-in;
#X floatatom 61 49 5 0 5000 0 feedbacks - -, f 5;
#X obj 19 129 inlet~;
#X obj 24 225 outlet~;
#X obj 3 8 cnv 5 5 5 empty empty INPUT 0 0 0 8 -262144 -66577 0;
#X obj 60 9 cnv 5 5 5 empty empty DEL 0 0 0 8 -262144 -66577 0;
#X obj 104 9 cnv 5 5 5 empty empty FB 0 0 0 8 -262144 -66577 0;
#N canvas 33 298 438 393 processing 0;
#X obj 25 139 delwrite~ \$1-del-1 5000;
#X obj 90 188 delread~ \$1-del-1;
#X floatatom 90 169 4 0 999 1 delay - -, f 4;
#X obj 17 103 inlet~;
#X obj 57 228 *~;
#X floatatom 90 211 4 0 999 1 feedback - -, f 4;
#X obj 27 275 outlet~;
#X obj 291 95 inlet feedback;
#X obj 213 95 inlet delay;
#X connect 1 0 4 0;
#X connect 2 0 1 0;
#X connect 3 0 0 0;
#X connect 4 0 0 0;
#X connect 4 0 6 0;
#X connect 5 0 4 1;
#X connect 7 0 5 0;
#X connect 8 0 2 0;
#X restore 24 200 pd processing;
#X obj 30 -96 r \$1-delay-in;
#X obj 48 -74 inlet delay;
#X obj 188 -74 inlet feedback;
#X connect 0 0 8 2;
#X connect 0 0 8 1;
#X connect 1 0 2 0;
#X connect 3 0 8 0;
#X connect 8 0 4 0;
#X connect 9 0 0 0;
#X connect 10 0 0 0;
#X connect 11 0 2 0;
#X coords 0 -1 1 1 120 80 2 0 0;
