#N canvas 0 22 450 300 10;
#X obj 47 82 osc~ 220;
#X obj 47 104 *~;
#X obj 47 126 send~ osc;
#X obj 141 67 tgl 15 0 empty empty empty 17 7 0 10 -262144 -1 -1 0
1;
#X obj 141 26 tgl 15 0 empty empty empty 17 7 0 10 -262144 -1 -1 0
1;
#X obj 141 47 metro 250;
#X obj 141 85 else/adsr~ 100 50 0.5 100, f 35;
#X connect 0 0 1 0;
#X connect 1 0 2 0;
#X connect 3 0 6 0;
#X connect 4 0 5 0;
#X connect 5 0 3 0;
#X connect 6 0 1 1;
